<svg width="525" height="79" viewBox="0 0 525 79" fill="none" xmlns="http://www.w3.org/2000/svg">
<path d="M10.8438 7.08594H10.2422C10.0807 6.61198 9.82031 6.10417 9.46094 5.5625C9.10677 5.02083 8.77865 4.72917 8.47656 4.6875C8.3099 4.66667 8.10417 4.64844 7.85938 4.63281C7.61458 4.61719 7.40365 4.60938 7.22656 4.60938H6.85938V13.3047C6.85938 13.4922 6.89323 13.6589 6.96094 13.8047C7.02865 13.9453 7.16146 14.0573 7.35938 14.1406C7.47917 14.1875 7.66406 14.237 7.91406 14.2891C8.16927 14.3359 8.38542 14.3698 8.5625 14.3906V15H2.38281V14.3906C2.53385 14.375 2.74479 14.3542 3.01562 14.3281C3.29167 14.2969 3.47917 14.2604 3.57812 14.2188C3.78125 14.1354 3.91667 14.0234 3.98438 13.8828C4.05208 13.7422 4.08594 13.5755 4.08594 13.3828V4.60938H3.71875C3.54167 4.60938 3.33073 4.61719 3.08594 4.63281C2.84115 4.64844 2.63542 4.66667 2.46875 4.6875C2.16667 4.72917 1.83594 5.02083 1.47656 5.5625C1.1224 6.10417 0.864583 6.61198 0.703125 7.08594H0.101562V3.91406H10.8438V7.08594ZM21.3203 6.74219H20.7266C20.5755 6.32031 20.3151 5.89323 19.9453 5.46094C19.5755 5.02865 19.2083 4.77344 18.8438 4.69531C18.6875 4.65885 18.4688 4.63802 18.1875 4.63281C17.9115 4.6224 17.6823 4.61719 17.5 4.61719H15.8906V8.89844H17.0312C17.3177 8.89844 17.5781 8.86458 17.8125 8.79688C18.0469 8.72917 18.2604 8.59896 18.4531 8.40625C18.5729 8.28646 18.6927 8.07552 18.8125 7.77344C18.9375 7.47135 19.0182 7.20833 19.0547 6.98438H19.6484V11.6094H19.0547C19.0234 11.3906 18.9427 11.1172 18.8125 10.7891C18.6875 10.4557 18.5677 10.2266 18.4531 10.1016C18.2812 9.91406 18.0781 9.78646 17.8438 9.71875C17.6094 9.64583 17.3385 9.60938 17.0312 9.60938H15.8906V12.8047C15.8906 13.138 15.9141 13.4036 15.9609 13.6016C16.013 13.7943 16.1068 13.9427 16.2422 14.0469C16.3724 14.1458 16.5495 14.2109 16.7734 14.2422C17.0026 14.2734 17.3125 14.2891 17.7031 14.2891C17.8854 14.2891 18.1042 14.2865 18.3594 14.2812C18.6146 14.276 18.8385 14.2604 19.0312 14.2344C19.25 14.2083 19.4531 14.1693 19.6406 14.1172C19.8333 14.0651 19.9766 13.9896 20.0703 13.8906C20.3203 13.6354 20.6016 13.2474 20.9141 12.7266C21.2266 12.2005 21.4323 11.8073 21.5312 11.5469H22.1016L21.8906 15H11.4922V14.3906C11.638 14.3802 11.8359 14.3594 12.0859 14.3281C12.3359 14.2969 12.513 14.2604 12.6172 14.2188C12.8151 14.1354 12.9479 14.0312 13.0156 13.9062C13.0833 13.776 13.1172 13.612 13.1172 13.4141V5.59375C13.1172 5.40625 13.0885 5.2526 13.0312 5.13281C12.974 5.00781 12.8359 4.89583 12.6172 4.79688C12.4818 4.73438 12.2917 4.67708 12.0469 4.625C11.8021 4.57292 11.6172 4.53906 11.4922 4.52344V3.91406H21.3203V6.74219ZM32.9219 7.23438H32.3047C32.2474 7.05729 32.1458 6.82292 32 6.53125C31.8542 6.23438 31.6979 5.96615 31.5312 5.72656C31.3385 5.44531 31.1484 5.21354 30.9609 5.03125C30.7734 4.84896 30.5781 4.73958 30.375 4.70312C30.1875 4.67188 29.9792 4.65104 29.75 4.64062C29.5208 4.625 29.2786 4.61719 29.0234 4.61719H27.4375V13.3672C27.4375 13.5599 27.4792 13.724 27.5625 13.8594C27.6458 13.9896 27.776 14.0911 27.9531 14.1641C28.0625 14.2057 28.2344 14.2474 28.4688 14.2891C28.7031 14.3255 28.9453 14.3594 29.1953 14.3906V15H23.0391V14.3906C23.1901 14.375 23.3906 14.3542 23.6406 14.3281C23.8906 14.2969 24.0651 14.2604 24.1641 14.2188C24.3516 14.1458 24.4818 14.0443 24.5547 13.9141C24.6276 13.7839 24.6641 13.6172 24.6641 13.4141V5.59375C24.6641 5.41667 24.6302 5.26302 24.5625 5.13281C24.5 4.9974 24.3672 4.88542 24.1641 4.79688C24.0182 4.73438 23.8255 4.67708 23.5859 4.625C23.3464 4.57292 23.1641 4.53906 23.0391 4.52344V3.91406H32.9219V7.23438ZM47.2344 15H41.2891V14.3906C41.4193 14.3802 41.6094 14.3646 41.8594 14.3438C42.1094 14.3177 42.2812 14.2839 42.375 14.2422C42.5677 14.1641 42.7005 14.0625 42.7734 13.9375C42.8464 13.8073 42.8828 13.6432 42.8828 13.4453V6.96875L37.8984 13.1562C37.8984 13.5156 37.9323 13.7526 38 13.8672C38.0729 13.9818 38.2057 14.0833 38.3984 14.1719C38.5078 14.2188 38.6797 14.2656 38.9141 14.3125C39.1484 14.3542 39.3411 14.3802 39.4922 14.3906V15H33.5703V14.3906C33.7005 14.3854 33.8906 14.3698 34.1406 14.3438C34.3958 14.3125 34.5807 14.276 34.6953 14.2344C34.8828 14.1667 35.013 14.0651 35.0859 13.9297C35.1589 13.7891 35.1953 13.625 35.1953 13.4375V5.59375C35.1953 5.41146 35.1615 5.25781 35.0938 5.13281C35.0312 5.00781 34.8984 4.89844 34.6953 4.80469C34.5443 4.73698 34.3464 4.67708 34.1016 4.625C33.8568 4.56771 33.6797 4.53385 33.5703 4.52344V3.91406H39.5156V4.52344C39.3542 4.53385 39.1615 4.5599 38.9375 4.60156C38.7135 4.64323 38.5417 4.68229 38.4219 4.71875C38.2188 4.78646 38.0833 4.89583 38.0156 5.04688C37.9531 5.19271 37.9219 5.34896 37.9219 5.51562V11.8594L42.9062 5.67188C42.9062 5.40104 42.8672 5.21094 42.7891 5.10156C42.7109 4.98698 42.5807 4.88802 42.3984 4.80469C42.2474 4.73177 42.0625 4.67188 41.8438 4.625C41.6302 4.57812 41.4531 4.54427 41.3125 4.52344V3.91406H47.2344V4.52344C47.0677 4.53385 46.8802 4.55729 46.6719 4.59375C46.4635 4.625 46.276 4.66667 46.1094 4.71875C45.9115 4.78646 45.7786 4.89323 45.7109 5.03906C45.6432 5.1849 45.6094 5.34375 45.6094 5.51562V13.3672C45.6094 13.5547 45.6432 13.7135 45.7109 13.8438C45.7786 13.974 45.9115 14.0833 46.1094 14.1719C46.2344 14.224 46.4141 14.2708 46.6484 14.3125C46.888 14.3542 47.0833 14.3802 47.2344 14.3906V15ZM52.2656 8.75781C52.2656 9.16927 52.112 9.52604 51.8047 9.82812C51.5026 10.1302 51.1432 10.2812 50.7266 10.2812C50.3047 10.2812 49.9401 10.1328 49.6328 9.83594C49.3307 9.53385 49.1797 9.17448 49.1797 8.75781C49.1797 8.34115 49.3307 7.98177 49.6328 7.67969C49.9401 7.3724 50.3047 7.21875 50.7266 7.21875C51.1432 7.21875 51.5026 7.3724 51.8047 7.67969C52.112 7.98698 52.2656 8.34635 52.2656 8.75781ZM52.2656 13.7031C52.2656 14.1146 52.112 14.4714 51.8047 14.7734C51.5026 15.0755 51.1432 15.2266 50.7266 15.2266C50.3047 15.2266 49.9401 15.0781 49.6328 14.7812C49.3307 14.4792 49.1797 14.1198 49.1797 13.7031C49.1797 13.2865 49.3307 12.9271 49.6328 12.625C49.9401 12.3177 50.3047 12.1641 50.7266 12.1641C51.1432 12.1641 51.5026 12.3177 51.8047 12.625C52.112 12.9323 52.2656 13.2917 52.2656 13.7031Z" fill="#131212"/>
<rect y="34" width="86" height="45" rx="22.5" fill="#F5F7FA"/>
<path d="M25.956 56.8C25.956 57.376 26.076 57.892 26.316 58.348C26.564 58.796 26.904 59.148 27.336 59.404C27.768 59.66 28.26 59.788 28.812 59.788C29.372 59.788 29.864 59.66 30.288 59.404C30.72 59.148 31.056 58.796 31.296 58.348C31.544 57.892 31.668 57.376 31.668 56.8C31.668 56.224 31.548 55.712 31.308 55.264C31.068 54.808 30.732 54.452 30.3 54.196C29.876 53.94 29.38 53.812 28.812 53.812C28.26 53.812 27.768 53.94 27.336 54.196C26.904 54.452 26.564 54.808 26.316 55.264C26.076 55.712 25.956 56.224 25.956 56.8ZM24.456 56.8C24.456 56.168 24.564 55.588 24.78 55.06C24.996 54.532 25.3 54.076 25.692 53.692C26.092 53.3 26.556 52.996 27.084 52.78C27.62 52.564 28.196 52.456 28.812 52.456C29.444 52.456 30.024 52.564 30.552 52.78C31.08 52.996 31.54 53.3 31.932 53.692C32.332 54.076 32.64 54.532 32.856 55.06C33.072 55.588 33.18 56.168 33.18 56.8C33.18 57.424 33.072 58.004 32.856 58.54C32.64 59.076 32.336 59.54 31.944 59.932C31.552 60.324 31.088 60.632 30.552 60.856C30.024 61.072 29.444 61.18 28.812 61.18C28.188 61.18 27.608 61.072 27.072 60.856C26.536 60.632 26.072 60.324 25.68 59.932C25.296 59.54 24.996 59.076 24.78 58.54C24.564 58.004 24.456 57.424 24.456 56.8ZM33.3538 53.908V52.6H39.2098V53.908H36.9898V61H35.5618V53.908H33.3538ZM41.1167 61V59.752H45.3527V61H41.1167ZM41.1167 53.848V52.6H45.3527V53.848H41.1167ZM41.1167 57.112V55.888H45.1127V57.112H41.1167ZM40.2407 52.6H41.6327V61H40.2407V52.6ZM53.6362 52.6V61H52.1962V53.908H48.8482V57.856C48.8482 58.472 48.7562 59.02 48.5722 59.5C48.3882 59.972 48.1042 60.34 47.7202 60.604C47.3442 60.868 46.8642 61 46.2802 61V59.788C46.4722 59.788 46.6402 59.74 46.7842 59.644C46.9282 59.54 47.0482 59.4 47.1442 59.224C47.2482 59.04 47.3242 58.824 47.3722 58.576C47.4282 58.328 47.4562 58.056 47.4562 57.76V52.6H53.6362ZM55.5337 52.6H56.9497V61H55.5337V52.6ZM56.3737 57.028V55.78H58.0657C58.6737 55.78 59.2017 55.888 59.6497 56.104C60.1057 56.312 60.4577 56.612 60.7057 57.004C60.9537 57.388 61.0777 57.852 61.0777 58.396C61.0777 58.924 60.9537 59.384 60.7057 59.776C60.4577 60.168 60.1057 60.472 59.6497 60.688C59.2017 60.896 58.6737 61 58.0657 61H56.3737V59.752H58.0657C58.3857 59.752 58.6657 59.704 58.9057 59.608C59.1537 59.504 59.3457 59.352 59.4817 59.152C59.6177 58.944 59.6857 58.692 59.6857 58.396C59.6857 58.092 59.6177 57.84 59.4817 57.64C59.3457 57.432 59.1537 57.28 58.9057 57.184C58.6657 57.08 58.3857 57.028 58.0657 57.028H56.3737Z" fill="#787878"/>
<rect x="96" y="34" width="175" height="45" rx="22.5" fill="#F5F7FA"/>
<path d="M120.936 52.6H122.352V61H120.936V52.6ZM121.776 53.848V52.6H123.468C124.076 52.6 124.604 52.708 125.052 52.924C125.508 53.132 125.86 53.432 126.108 53.824C126.356 54.208 126.48 54.668 126.48 55.204C126.48 55.74 126.356 56.204 126.108 56.596C125.86 56.988 125.508 57.292 125.052 57.508C124.604 57.716 124.076 57.82 123.468 57.82H121.776V56.572H123.468C123.956 56.572 124.348 56.456 124.644 56.224C124.94 55.992 125.088 55.652 125.088 55.204C125.088 54.756 124.94 54.42 124.644 54.196C124.348 53.964 123.956 53.848 123.468 53.848H121.776ZM128.894 56.8C128.894 57.376 129.014 57.892 129.254 58.348C129.502 58.796 129.842 59.148 130.274 59.404C130.706 59.66 131.198 59.788 131.75 59.788C132.31 59.788 132.802 59.66 133.226 59.404C133.658 59.148 133.994 58.796 134.234 58.348C134.482 57.892 134.606 57.376 134.606 56.8C134.606 56.224 134.486 55.712 134.246 55.264C134.006 54.808 133.67 54.452 133.238 54.196C132.814 53.94 132.318 53.812 131.75 53.812C131.198 53.812 130.706 53.94 130.274 54.196C129.842 54.452 129.502 54.808 129.254 55.264C129.014 55.712 128.894 56.224 128.894 56.8ZM127.394 56.8C127.394 56.168 127.502 55.588 127.718 55.06C127.934 54.532 128.238 54.076 128.63 53.692C129.03 53.3 129.494 52.996 130.021 52.78C130.558 52.564 131.134 52.456 131.75 52.456C132.382 52.456 132.962 52.564 133.49 52.78C134.018 52.996 134.478 53.3 134.87 53.692C135.27 54.076 135.578 54.532 135.794 55.06C136.01 55.588 136.118 56.168 136.118 56.8C136.118 57.424 136.01 58.004 135.794 58.54C135.578 59.076 135.274 59.54 134.882 59.932C134.49 60.324 134.026 60.632 133.49 60.856C132.962 61.072 132.382 61.18 131.75 61.18C131.126 61.18 130.546 61.072 130.01 60.856C129.474 60.632 129.01 60.324 128.618 59.932C128.234 59.54 127.934 59.076 127.718 58.54C127.502 58.004 127.394 57.424 127.394 56.8ZM138.539 56.8C138.539 57.392 138.671 57.912 138.935 58.36C139.207 58.808 139.559 59.156 139.991 59.404C140.431 59.644 140.907 59.764 141.419 59.764C141.819 59.764 142.179 59.712 142.499 59.608C142.819 59.504 143.107 59.364 143.363 59.188C143.627 59.004 143.855 58.8 144.047 58.576V60.256C143.695 60.544 143.315 60.764 142.907 60.916C142.499 61.068 141.987 61.144 141.371 61.144C140.755 61.144 140.179 61.04 139.643 60.832C139.115 60.624 138.655 60.324 138.263 59.932C137.871 59.54 137.563 59.08 137.339 58.552C137.123 58.016 137.015 57.432 137.015 56.8C137.015 56.168 137.123 55.588 137.339 55.06C137.563 54.524 137.871 54.06 138.263 53.668C138.655 53.276 139.115 52.976 139.643 52.768C140.179 52.56 140.755 52.456 141.371 52.456C141.987 52.456 142.499 52.532 142.907 52.684C143.315 52.836 143.695 53.056 144.047 53.344V55.024C143.855 54.8 143.627 54.6 143.363 54.424C143.107 54.24 142.819 54.096 142.499 53.992C142.179 53.888 141.819 53.836 141.419 53.836C140.907 53.836 140.431 53.96 139.991 54.208C139.559 54.448 139.207 54.792 138.935 55.24C138.671 55.68 138.539 56.2 138.539 56.8ZM145.791 52.6H147.243V61H145.791V52.6ZM150.363 52.6H152.067L148.527 56.536L152.247 61H150.507L146.811 56.572L150.363 52.6ZM153.644 56.8C153.644 57.376 153.764 57.892 154.004 58.348C154.252 58.796 154.592 59.148 155.024 59.404C155.456 59.66 155.948 59.788 156.5 59.788C157.06 59.788 157.552 59.66 157.976 59.404C158.408 59.148 158.744 58.796 158.984 58.348C159.232 57.892 159.356 57.376 159.356 56.8C159.356 56.224 159.236 55.712 158.996 55.264C158.756 54.808 158.42 54.452 157.988 54.196C157.564 53.94 157.068 53.812 156.5 53.812C155.948 53.812 155.456 53.94 155.024 54.196C154.592 54.452 154.252 54.808 154.004 55.264C153.764 55.712 153.644 56.224 153.644 56.8ZM152.144 56.8C152.144 56.168 152.252 55.588 152.468 55.06C152.684 54.532 152.988 54.076 153.38 53.692C153.78 53.3 154.244 52.996 154.771 52.78C155.308 52.564 155.884 52.456 156.5 52.456C157.132 52.456 157.712 52.564 158.24 52.78C158.768 52.996 159.228 53.3 159.62 53.692C160.02 54.076 160.328 54.532 160.544 55.06C160.76 55.588 160.868 56.168 160.868 56.8C160.868 57.424 160.76 58.004 160.544 58.54C160.328 59.076 160.024 59.54 159.632 59.932C159.24 60.324 158.776 60.632 158.24 60.856C157.712 61.072 157.132 61.18 156.5 61.18C155.876 61.18 155.296 61.072 154.76 60.856C154.224 60.632 153.76 60.324 153.368 59.932C152.984 59.54 152.684 59.076 152.468 58.54C152.252 58.004 152.144 57.424 152.144 56.8ZM171.209 59.692V52.6H172.637V61H162.269V52.6H163.697V59.692H166.757V52.6H168.149V59.692H171.209ZM175.102 57.148V55.84H181.09V57.148H175.102ZM180.178 52.6H181.594V61H180.178V52.6ZM174.538 52.6H175.954V61H174.538V52.6ZM190.031 52.6H191.471V61H190.031V52.6ZM183.467 52.6H184.883V61H183.467V52.6ZM184.307 57.028V55.78H185.999C186.607 55.78 187.135 55.888 187.583 56.104C188.039 56.312 188.391 56.612 188.639 57.004C188.887 57.388 189.011 57.852 189.011 58.396C189.011 58.924 188.887 59.384 188.639 59.776C188.391 60.168 188.039 60.472 187.583 60.688C187.135 60.896 186.607 61 185.999 61H184.307V59.752H185.999C186.319 59.752 186.599 59.704 186.839 59.608C187.087 59.504 187.279 59.352 187.415 59.152C187.551 58.944 187.619 58.692 187.619 58.396C187.619 58.092 187.551 57.84 187.415 57.64C187.279 57.432 187.087 57.28 186.839 57.184C186.599 57.08 186.319 57.028 185.999 57.028H184.307ZM200.798 54.124L193.334 61.42L193.394 59.476L200.858 52.18L200.798 54.124ZM194.726 52.6V59.836L193.334 61.42V52.6H194.726ZM200.858 52.18V61H199.466V53.8L200.858 52.18ZM195.482 50.08H196.466C196.466 50.2 196.494 50.324 196.55 50.452C196.614 50.58 196.714 50.688 196.85 50.776C196.994 50.864 197.178 50.908 197.402 50.908C197.634 50.908 197.818 50.864 197.954 50.776C198.098 50.688 198.198 50.58 198.254 50.452C198.318 50.324 198.35 50.2 198.35 50.08H199.334C199.334 50.376 199.262 50.656 199.118 50.92C198.974 51.176 198.758 51.388 198.47 51.556C198.182 51.716 197.826 51.796 197.402 51.796C196.986 51.796 196.634 51.716 196.346 51.556C196.058 51.388 195.842 51.176 195.698 50.92C195.554 50.656 195.482 50.376 195.482 50.08ZM207.339 56.8C207.339 57.376 207.459 57.892 207.699 58.348C207.947 58.796 208.287 59.148 208.719 59.404C209.151 59.66 209.643 59.788 210.195 59.788C210.755 59.788 211.247 59.66 211.671 59.404C212.103 59.148 212.439 58.796 212.679 58.348C212.927 57.892 213.051 57.376 213.051 56.8C213.051 56.224 212.931 55.712 212.691 55.264C212.451 54.808 212.115 54.452 211.683 54.196C211.259 53.94 210.763 53.812 210.195 53.812C209.643 53.812 209.151 53.94 208.719 54.196C208.287 54.452 207.947 54.808 207.699 55.264C207.459 55.712 207.339 56.224 207.339 56.8ZM205.839 56.8C205.839 56.168 205.947 55.588 206.163 55.06C206.379 54.532 206.683 54.076 207.075 53.692C207.475 53.3 207.939 52.996 208.467 52.78C209.003 52.564 209.579 52.456 210.195 52.456C210.827 52.456 211.407 52.564 211.935 52.78C212.463 52.996 212.923 53.3 213.315 53.692C213.715 54.076 214.023 54.532 214.239 55.06C214.455 55.588 214.563 56.168 214.563 56.8C214.563 57.424 214.455 58.004 214.239 58.54C214.023 59.076 213.719 59.54 213.327 59.932C212.935 60.324 212.471 60.632 211.935 60.856C211.407 61.072 210.827 61.18 210.195 61.18C209.571 61.18 208.991 61.072 208.455 60.856C207.919 60.632 207.455 60.324 207.063 59.932C206.679 59.54 206.379 59.076 206.163 58.54C205.947 58.004 205.839 57.424 205.839 56.8ZM214.737 53.908V52.6H220.593V53.908H218.373V61H216.945V53.908H214.737ZM224.436 55.036L222.336 60.64H220.752L224.448 52.18L228.132 60.64H226.548L224.436 55.036ZM227.568 61H221.316V62.32H219.972V59.728H228.912V62.32H227.568V61ZM236.953 52.6H238.393V61H236.953V52.6ZM230.389 52.6H231.805V61H230.389V52.6ZM231.229 57.028V55.78H232.921C233.529 55.78 234.057 55.888 234.505 56.104C234.961 56.312 235.313 56.612 235.561 57.004C235.809 57.388 235.933 57.852 235.933 58.396C235.933 58.924 235.809 59.384 235.561 59.776C235.313 60.168 234.961 60.472 234.505 60.688C234.057 60.896 233.529 61 232.921 61H231.229V59.752H232.921C233.241 59.752 233.521 59.704 233.761 59.608C234.009 59.504 234.201 59.352 234.337 59.152C234.473 58.944 234.541 58.692 234.541 58.396C234.541 58.092 234.473 57.84 234.337 57.64C234.201 57.432 234.009 57.28 233.761 57.184C233.521 57.08 233.241 57.028 232.921 57.028H231.229ZM244.612 52.6H246.34L243.796 56.632L246.52 61H244.792L242.992 57.772L241.132 61H239.416L242.2 56.632L239.716 52.6H241.432L243.004 55.444L244.612 52.6Z" fill="#787878"/>
<rect x="281" y="34" width="90" height="45" rx="22.5" fill="#F5F7FA"/>
<path d="M306.956 56.8C306.956 57.376 307.076 57.892 307.316 58.348C307.564 58.796 307.904 59.148 308.336 59.404C308.768 59.66 309.26 59.788 309.812 59.788C310.372 59.788 310.864 59.66 311.288 59.404C311.72 59.148 312.056 58.796 312.296 58.348C312.544 57.892 312.668 57.376 312.668 56.8C312.668 56.224 312.548 55.712 312.308 55.264C312.068 54.808 311.732 54.452 311.3 54.196C310.876 53.94 310.38 53.812 309.812 53.812C309.26 53.812 308.768 53.94 308.336 54.196C307.904 54.452 307.564 54.808 307.316 55.264C307.076 55.712 306.956 56.224 306.956 56.8ZM305.456 56.8C305.456 56.168 305.564 55.588 305.78 55.06C305.996 54.532 306.3 54.076 306.692 53.692C307.092 53.3 307.556 52.996 308.084 52.78C308.62 52.564 309.196 52.456 309.812 52.456C310.444 52.456 311.024 52.564 311.552 52.78C312.08 52.996 312.54 53.3 312.932 53.692C313.332 54.076 313.64 54.532 313.856 55.06C314.072 55.588 314.18 56.168 314.18 56.8C314.18 57.424 314.072 58.004 313.856 58.54C313.64 59.076 313.336 59.54 312.944 59.932C312.552 60.324 312.088 60.632 311.552 60.856C311.024 61.072 310.444 61.18 309.812 61.18C309.188 61.18 308.608 61.072 308.072 60.856C307.536 60.632 307.072 60.324 306.68 59.932C306.296 59.54 305.996 59.076 305.78 58.54C305.564 58.004 305.456 57.424 305.456 56.8ZM314.354 53.908V52.6H320.21V53.908H317.99V61H316.562V53.908H314.354ZM324.053 55.036L321.953 60.64H320.369L324.065 52.18L327.749 60.64H326.165L324.053 55.036ZM327.185 61H320.933V62.32H319.589V59.728H328.529V62.32H327.185V61ZM336.57 52.6H338.01V61H336.57V52.6ZM330.006 52.6H331.422V61H330.006V52.6ZM330.846 57.028V55.78H332.538C333.146 55.78 333.674 55.888 334.122 56.104C334.578 56.312 334.93 56.612 335.178 57.004C335.426 57.388 335.55 57.852 335.55 58.396C335.55 58.924 335.426 59.384 335.178 59.776C334.93 60.168 334.578 60.472 334.122 60.688C333.674 60.896 333.146 61 332.538 61H330.846V59.752H332.538C332.858 59.752 333.138 59.704 333.378 59.608C333.626 59.504 333.818 59.352 333.954 59.152C334.09 58.944 334.158 58.692 334.158 58.396C334.158 58.092 334.09 57.84 333.954 57.64C333.818 57.432 333.626 57.28 333.378 57.184C333.138 57.08 332.858 57.028 332.538 57.028H330.846ZM344.23 52.6H345.958L343.414 56.632L346.138 61H344.41L342.61 57.772L340.75 61H339.034L341.818 56.632L339.333 52.6H341.05L342.622 55.444L344.23 52.6Z" fill="#787878"/>
<rect x="381" y="34" width="144" height="45" rx="22.5" fill="#F5F7FA"/>
<path d="M407.496 55.888L406.92 61H405.456L406.608 52.18L410.052 57.88L413.508 52.18L414.66 61H413.196L412.608 55.888L410.052 60.22L407.496 55.888ZM416.914 61V59.752H421.15V61H416.914ZM416.914 53.848V52.6H421.15V53.848H416.914ZM416.914 57.112V55.888H420.91V57.112H416.914ZM416.038 52.6H417.43V61H416.038V52.6ZM423.937 56.8C423.937 57.392 424.069 57.912 424.333 58.36C424.605 58.808 424.957 59.156 425.389 59.404C425.829 59.644 426.305 59.764 426.817 59.764C427.217 59.764 427.577 59.712 427.897 59.608C428.217 59.504 428.505 59.364 428.761 59.188C429.025 59.004 429.253 58.8 429.445 58.576V60.256C429.093 60.544 428.713 60.764 428.305 60.916C427.897 61.068 427.385 61.144 426.769 61.144C426.153 61.144 425.577 61.04 425.041 60.832C424.513 60.624 424.053 60.324 423.661 59.932C423.269 59.54 422.961 59.08 422.737 58.552C422.521 58.016 422.413 57.432 422.413 56.8C422.413 56.168 422.521 55.588 422.737 55.06C422.961 54.524 423.269 54.06 423.661 53.668C424.053 53.276 424.513 52.976 425.041 52.768C425.577 52.56 426.153 52.456 426.769 52.456C427.385 52.456 427.897 52.532 428.305 52.684C428.713 52.836 429.093 53.056 429.445 53.344V55.024C429.253 54.8 429.025 54.6 428.761 54.424C428.505 54.24 428.217 54.096 427.897 53.992C427.577 53.888 427.217 53.836 426.817 53.836C426.305 53.836 425.829 53.96 425.389 54.208C424.957 54.448 424.605 54.792 424.333 55.24C424.069 55.68 423.937 56.2 423.937 56.8ZM429.987 53.908V52.6H435.843V53.908H433.623V61H432.195V53.908H429.987ZM437.296 56.8C437.296 57.376 437.416 57.892 437.656 58.348C437.904 58.796 438.244 59.148 438.676 59.404C439.108 59.66 439.6 59.788 440.152 59.788C440.712 59.788 441.204 59.66 441.628 59.404C442.06 59.148 442.396 58.796 442.636 58.348C442.884 57.892 443.008 57.376 443.008 56.8C443.008 56.224 442.888 55.712 442.648 55.264C442.408 54.808 442.072 54.452 441.64 54.196C441.216 53.94 440.72 53.812 440.152 53.812C439.6 53.812 439.108 53.94 438.676 54.196C438.244 54.452 437.904 54.808 437.656 55.264C437.416 55.712 437.296 56.224 437.296 56.8ZM435.796 56.8C435.796 56.168 435.904 55.588 436.12 55.06C436.336 54.532 436.64 54.076 437.032 53.692C437.432 53.3 437.896 52.996 438.424 52.78C438.96 52.564 439.536 52.456 440.152 52.456C440.784 52.456 441.364 52.564 441.892 52.78C442.42 52.996 442.88 53.3 443.272 53.692C443.672 54.076 443.98 54.532 444.196 55.06C444.412 55.588 444.52 56.168 444.52 56.8C444.52 57.424 444.412 58.004 444.196 58.54C443.98 59.076 443.676 59.54 443.284 59.932C442.892 60.324 442.428 60.632 441.892 60.856C441.364 61.072 440.784 61.18 440.152 61.18C439.528 61.18 438.948 61.072 438.412 60.856C437.876 60.632 437.412 60.324 437.02 59.932C436.636 59.54 436.336 59.076 436.12 58.54C435.904 58.004 435.796 57.424 435.796 56.8ZM450.575 56.668V55.972H451.931C452.195 55.972 452.427 55.928 452.627 55.84C452.827 55.752 452.983 55.628 453.095 55.468C453.207 55.3 453.263 55.1 453.263 54.868C453.263 54.516 453.139 54.244 452.891 54.052C452.643 53.86 452.323 53.764 451.931 53.764H450.911V59.836H452.087C452.407 59.836 452.691 59.784 452.939 59.68C453.187 59.576 453.383 59.42 453.527 59.212C453.671 59.004 453.743 58.744 453.743 58.432C453.743 58.208 453.699 58.012 453.611 57.844C453.531 57.668 453.415 57.524 453.263 57.412C453.119 57.292 452.947 57.208 452.747 57.16C452.547 57.104 452.327 57.076 452.087 57.076H450.575V56.296H452.171C452.579 56.296 452.963 56.34 453.323 56.428C453.683 56.516 454.003 56.652 454.283 56.836C454.571 57.02 454.795 57.256 454.955 57.544C455.115 57.832 455.195 58.176 455.195 58.576C455.195 59.128 455.063 59.584 454.799 59.944C454.543 60.304 454.187 60.572 453.731 60.748C453.283 60.916 452.763 61 452.171 61H449.495V52.6H452.027C452.555 52.6 453.019 52.676 453.419 52.828C453.827 52.98 454.143 53.212 454.367 53.524C454.599 53.836 454.715 54.232 454.715 54.712C454.715 55.128 454.599 55.484 454.367 55.78C454.143 56.068 453.827 56.288 453.419 56.44C453.019 56.592 452.555 56.668 452.027 56.668H450.575ZM457.734 56.8C457.734 57.392 457.866 57.912 458.13 58.36C458.402 58.808 458.754 59.156 459.186 59.404C459.626 59.644 460.102 59.764 460.614 59.764C461.014 59.764 461.374 59.712 461.694 59.608C462.014 59.504 462.302 59.364 462.558 59.188C462.822 59.004 463.05 58.8 463.242 58.576V60.256C462.89 60.544 462.51 60.764 462.102 60.916C461.694 61.068 461.182 61.144 460.566 61.144C459.95 61.144 459.374 61.04 458.838 60.832C458.31 60.624 457.85 60.324 457.458 59.932C457.066 59.54 456.758 59.08 456.534 58.552C456.318 58.016 456.21 57.432 456.21 56.8C456.21 56.168 456.318 55.588 456.534 55.06C456.758 54.524 457.066 54.06 457.458 53.668C457.85 53.276 458.31 52.976 458.838 52.768C459.374 52.56 459.95 52.456 460.566 52.456C461.182 52.456 461.694 52.532 462.102 52.684C462.51 52.836 462.89 53.056 463.242 53.344V55.024C463.05 54.8 462.822 54.6 462.558 54.424C462.302 54.24 462.014 54.096 461.694 53.992C461.374 53.888 461.014 53.836 460.614 53.836C460.102 53.836 459.626 53.96 459.186 54.208C458.754 54.448 458.402 54.792 458.13 55.24C457.866 55.68 457.734 56.2 457.734 56.8ZM463.784 53.908V52.6H469.64V53.908H467.42V61H465.992V53.908H463.784ZM470.67 52.6H472.086V61H470.67V52.6ZM471.51 53.848V52.6H473.202C473.81 52.6 474.338 52.708 474.786 52.924C475.242 53.132 475.594 53.432 475.842 53.824C476.09 54.208 476.214 54.668 476.214 55.204C476.214 55.74 476.09 56.204 475.842 56.596C475.594 56.988 475.242 57.292 474.786 57.508C474.338 57.716 473.81 57.82 473.202 57.82H471.51V56.572H473.202C473.69 56.572 474.082 56.456 474.378 56.224C474.674 55.992 474.822 55.652 474.822 55.204C474.822 54.756 474.674 54.42 474.378 54.196C474.082 53.964 473.69 53.848 473.202 53.848H471.51ZM478.484 61V59.752H482.72V61H478.484ZM478.484 53.848V52.6H482.72V53.848H478.484ZM478.484 57.112V55.888H482.48V57.112H478.484ZM477.608 52.6H479V61H477.608V52.6ZM487.091 57.928L487.331 56.668H489.695V57.928H487.091ZM488.987 52.6H490.439V61H488.987V52.6ZM485.855 52.6V54.916C485.855 55.26 485.911 55.564 486.023 55.828C486.143 56.084 486.311 56.288 486.527 56.44C486.751 56.592 487.019 56.668 487.331 56.668L487.091 57.928C486.523 57.928 486.039 57.8 485.639 57.544C485.247 57.28 484.951 56.928 484.751 56.488C484.559 56.048 484.463 55.56 484.463 55.024V52.6H485.855ZM499.802 54.124L492.338 61.42L492.398 59.476L499.862 52.18L499.802 54.124ZM493.73 52.6V59.836L492.338 61.42V52.6H493.73ZM499.862 52.18V61H498.47V53.8L499.862 52.18Z" fill="#787878"/>
</svg>
