<svg width="485" height="108" viewBox="0 0 485 108" fill="none" xmlns="http://www.w3.org/2000/svg">
<path d="M7.7 8.15334H2.31V16.8333H1.12V7.03334H8.89V16.8333H7.7V8.15334ZM10.4978 13.6133C10.4978 12.96 10.6425 12.3813 10.9318 11.8773C11.2305 11.3733 11.6318 10.9767 12.1358 10.6873C12.6398 10.398 13.2045 10.2533 13.8298 10.2533C14.4645 10.2533 15.0291 10.398 15.5238 10.6873C16.0278 10.9767 16.4245 11.3733 16.7138 11.8773C17.0125 12.3813 17.1618 12.96 17.1618 13.6133C17.1618 14.2573 17.0125 14.836 16.7138 15.3493C16.4245 15.8533 16.0278 16.25 15.5238 16.5393C15.0291 16.8287 14.4645 16.9733 13.8298 16.9733C13.2045 16.9733 12.6398 16.8287 12.1358 16.5393C11.6318 16.25 11.2305 15.8533 10.9318 15.3493C10.6425 14.836 10.4978 14.2573 10.4978 13.6133ZM11.6318 13.6133C11.6318 14.0613 11.7251 14.458 11.9118 14.8033C12.1078 15.1487 12.3691 15.424 12.6958 15.6293C13.0318 15.8253 13.4098 15.9233 13.8298 15.9233C14.2498 15.9233 14.6231 15.8253 14.9498 15.6293C15.2858 15.424 15.5471 15.1487 15.7338 14.8033C15.9298 14.458 16.0278 14.0613 16.0278 13.6133C16.0278 13.1653 15.9298 12.7687 15.7338 12.4233C15.5471 12.0687 15.2858 11.7933 14.9498 11.5973C14.6231 11.4013 14.2498 11.3033 13.8298 11.3033C13.4098 11.3033 13.0318 11.4013 12.6958 11.5973C12.3691 11.7933 12.1078 12.0687 11.9118 12.4233C11.7251 12.7687 11.6318 13.1653 11.6318 13.6133ZM20.8704 14.8733V13.8233H23.0684V14.8733H20.8704ZM22.2704 10.3933H23.3904V16.8333H22.2704V10.3933ZM19.4704 10.3933V12.2413C19.4704 12.6147 19.5124 12.918 19.5964 13.1513C19.6804 13.3847 19.8251 13.5573 20.0304 13.6693C20.2357 13.772 20.5157 13.8233 20.8704 13.8233V14.8733C20.2264 14.8733 19.7177 14.7847 19.3444 14.6073C18.9804 14.43 18.7237 14.15 18.5744 13.7673C18.4251 13.3753 18.3504 12.8667 18.3504 12.2413V10.3933H19.4704ZM24.5153 10.3933H28.2953V11.4433H24.5153V10.3933ZM25.8453 10.6733H26.9653V16.8333H25.8453V10.6733ZM28.6541 13.6133C28.6541 12.96 28.7987 12.3813 29.0881 11.8773C29.3867 11.3733 29.7881 10.9767 30.2921 10.6873C30.7961 10.398 31.3607 10.2533 31.9861 10.2533C32.6207 10.2533 33.1854 10.398 33.6801 10.6873C34.1841 10.9767 34.5807 11.3733 34.8701 11.8773C35.1687 12.3813 35.3181 12.96 35.3181 13.6133C35.3181 14.2573 35.1687 14.836 34.8701 15.3493C34.5807 15.8533 34.1841 16.25 33.6801 16.5393C33.1854 16.8287 32.6207 16.9733 31.9861 16.9733C31.3607 16.9733 30.7961 16.8287 30.2921 16.5393C29.7881 16.25 29.3867 15.8533 29.0881 15.3493C28.7987 14.836 28.6541 14.2573 28.6541 13.6133ZM29.7881 13.6133C29.7881 14.0613 29.8814 14.458 30.0681 14.8033C30.2641 15.1487 30.5254 15.424 30.8521 15.6293C31.1881 15.8253 31.5661 15.9233 31.9861 15.9233C32.4061 15.9233 32.7794 15.8253 33.1061 15.6293C33.4421 15.424 33.7034 15.1487 33.8901 14.8033C34.0861 14.458 34.1841 14.0613 34.1841 13.6133C34.1841 13.1653 34.0861 12.7687 33.8901 12.4233C33.7034 12.0687 33.4421 11.7933 33.1061 11.5973C32.7794 11.4013 32.4061 11.3033 31.9861 11.3033C31.5661 11.3033 31.1881 11.4013 30.8521 11.5973C30.5254 11.7933 30.2641 12.0687 30.0681 12.4233C29.8814 12.7687 29.7881 13.1653 29.7881 13.6133ZM37.5146 13.4733H39.3766C39.8246 13.4733 40.226 13.52 40.5806 13.6133C40.9353 13.7067 41.2153 13.87 41.4206 14.1033C41.626 14.3367 41.7286 14.6633 41.7286 15.0833C41.7286 15.5687 41.5653 15.984 41.2386 16.3293C40.9213 16.6653 40.394 16.8333 39.6566 16.8333H37.5146V15.8533H39.3766C39.7966 15.8533 40.1046 15.7647 40.3006 15.5873C40.506 15.41 40.6086 15.1953 40.6086 14.9433C40.6086 14.8127 40.5806 14.696 40.5246 14.5933C40.478 14.4907 40.4033 14.3973 40.3006 14.3133C40.2073 14.2293 40.0813 14.1687 39.9226 14.1313C39.7733 14.0847 39.5913 14.0613 39.3766 14.0613H37.5146V13.4733ZM37.5146 13.7533V13.0953H39.2366C39.4046 13.0953 39.554 13.0767 39.6846 13.0393C39.8246 12.9927 39.9413 12.9273 40.0346 12.8433C40.128 12.7593 40.198 12.666 40.2446 12.5633C40.3006 12.4513 40.3286 12.3347 40.3286 12.2133C40.3286 11.9613 40.2306 11.7607 40.0346 11.6113C39.8386 11.4527 39.5726 11.3733 39.2366 11.3733H37.5146V10.3933H39.2366C39.638 10.3933 40.002 10.454 40.3286 10.5753C40.6646 10.6873 40.9353 10.874 41.1406 11.1353C41.346 11.3873 41.4486 11.7233 41.4486 12.1433C41.4486 12.5073 41.346 12.8107 41.1406 13.0533C40.9353 13.2867 40.6646 13.464 40.3286 13.5853C40.002 13.6973 39.638 13.7533 39.2366 13.7533H37.5146ZM36.8566 10.3933H37.9766V16.8333H36.8566V10.3933ZM49.0104 10.3933H50.1304V16.8333H49.0104V10.3933ZM43.2004 10.3933H44.3204V16.8333H43.2004V10.3933ZM43.8584 13.8093V12.8293H45.8604C46.5231 12.8293 47.0784 12.9927 47.5264 13.3193C47.9837 13.6367 48.2124 14.1407 48.2124 14.8313C48.2124 15.2887 48.1097 15.6667 47.9044 15.9653C47.6991 16.264 47.4191 16.4833 47.0644 16.6233C46.7097 16.7633 46.3084 16.8333 45.8604 16.8333H43.8584V15.8533H45.8604C46.1311 15.8533 46.3551 15.816 46.5324 15.7413C46.7191 15.6573 46.8591 15.5407 46.9524 15.3913C47.0457 15.2327 47.0924 15.046 47.0924 14.8313C47.0924 14.5047 46.9897 14.2527 46.7844 14.0753C46.5791 13.898 46.2711 13.8093 45.8604 13.8093H43.8584ZM57.6138 11.5133L52.2938 17.3233L52.3638 15.7133L57.6838 9.90334L57.6138 11.5133ZM53.4138 10.3933V15.7833L52.2938 17.3233V10.3933H53.4138ZM57.6838 9.90334V16.8333H56.5638V11.4433L57.6838 9.90334ZM52.8118 7.10334H53.8058C53.8058 7.22468 53.8385 7.36934 53.9038 7.53734C53.9692 7.69601 54.0905 7.84068 54.2678 7.97134C54.4452 8.09268 54.6972 8.15334 55.0238 8.15334C55.3505 8.15334 55.6025 8.09268 55.7798 7.97134C55.9572 7.84068 56.0785 7.69601 56.1438 7.53734C56.2092 7.36934 56.2418 7.22468 56.2418 7.10334H57.2358C57.2358 7.42068 57.1518 7.73334 56.9838 8.04134C56.8252 8.34001 56.5825 8.58734 56.2558 8.78334C55.9292 8.97001 55.5185 9.06334 55.0238 9.06334C54.5385 9.06334 54.1278 8.97001 53.7918 8.78334C53.4652 8.58734 53.2178 8.34001 53.0498 8.04134C52.8912 7.73334 52.8118 7.42068 52.8118 7.10334ZM69.44 11.5133L64.12 17.3233L64.19 15.7133L69.51 9.90334L69.44 11.5133ZM65.24 10.3933V15.7833L64.12 17.3233V10.3933H65.24ZM69.51 9.90334V16.8333H68.39V11.4433L69.51 9.90334ZM72.3369 13.9633V12.9133H77.0969V13.9633H72.3369ZM76.3689 10.3933H77.4889V16.8333H76.3689V10.3933ZM71.6789 10.3933H72.7989V16.8333H71.6789V10.3933ZM83.0949 12.3253L81.2049 16.4133H79.9449L83.0949 9.90334L86.2449 16.4133H84.9849L83.0949 12.3253ZM85.9649 16.8333H80.2949V18.0933H79.1049V15.7833H87.0849V18.0933H85.9649V16.8333ZM88.9228 13.8933V12.9413H93.2208C93.1834 12.6053 93.0901 12.3113 92.9408 12.0593C92.8008 11.798 92.6001 11.5973 92.3388 11.4573C92.0868 11.308 91.7741 11.2333 91.4008 11.2333C91.0274 11.2333 90.6868 11.3127 90.3788 11.4713C90.0708 11.63 89.8234 11.8587 89.6368 12.1573C89.4594 12.4467 89.3708 12.792 89.3708 13.1933L89.3428 13.6133C89.3428 14.108 89.4268 14.528 89.5948 14.8733C89.7628 15.2187 90.0008 15.48 90.3088 15.6573C90.6168 15.8347 90.9808 15.9233 91.4008 15.9233C91.7181 15.9233 91.9981 15.8767 92.2408 15.7833C92.4928 15.6807 92.7168 15.5453 92.9128 15.3773C93.1088 15.2 93.2768 14.9947 93.4168 14.7613L94.3268 15.3353C94.1121 15.662 93.8741 15.9513 93.6128 16.2033C93.3514 16.446 93.0341 16.6373 92.6608 16.7773C92.2874 16.908 91.8208 16.9733 91.2608 16.9733C90.6821 16.9733 90.1594 16.8287 89.6928 16.5393C89.2354 16.25 88.8714 15.8533 88.6008 15.3493C88.3394 14.836 88.2088 14.2573 88.2088 13.6133C88.2088 13.492 88.2134 13.3753 88.2228 13.2633C88.2321 13.1513 88.2461 13.0393 88.2648 12.9273C88.3581 12.3953 88.5448 11.9287 88.8248 11.5273C89.1048 11.126 89.4641 10.8133 89.9028 10.5893C90.3508 10.3653 90.8501 10.2533 91.4008 10.2533C92.0074 10.2533 92.5394 10.3887 92.9968 10.6593C93.4541 10.93 93.8088 11.3127 94.0608 11.8073C94.3128 12.2927 94.4388 12.876 94.4388 13.5573C94.4388 13.6133 94.4388 13.6693 94.4388 13.7253C94.4388 13.7813 94.4341 13.8373 94.4248 13.8933H88.9228ZM95.9038 10.3933H97.0238V16.8333H95.9038V10.3933ZM99.4038 10.3933H100.804L98.0038 13.0533L101.084 16.8333H99.6838L96.6038 13.0533L99.4038 10.3933ZM102.439 13.6133C102.439 14.0613 102.532 14.458 102.719 14.8033C102.915 15.1487 103.176 15.424 103.503 15.6293C103.839 15.8253 104.217 15.9233 104.637 15.9233C104.982 15.9233 105.304 15.872 105.603 15.7693C105.911 15.6573 106.177 15.5127 106.401 15.3353C106.625 15.1487 106.783 14.9527 106.877 14.7473V16.1473C106.653 16.4087 106.331 16.614 105.911 16.7633C105.5 16.9033 105.075 16.9733 104.637 16.9733C104.011 16.9733 103.447 16.8287 102.943 16.5393C102.439 16.25 102.037 15.8533 101.739 15.3493C101.449 14.836 101.305 14.2573 101.305 13.6133C101.305 12.96 101.449 12.3813 101.739 11.8773C102.037 11.3733 102.439 10.9767 102.943 10.6873C103.447 10.398 104.011 10.2533 104.637 10.2533C105.075 10.2533 105.5 10.328 105.911 10.4773C106.331 10.6173 106.653 10.818 106.877 11.0793V12.4793C106.783 12.2647 106.625 12.0687 106.401 11.8913C106.177 11.714 105.911 11.574 105.603 11.4713C105.304 11.3593 104.982 11.3033 104.637 11.3033C104.217 11.3033 103.839 11.4013 103.503 11.5973C103.176 11.7933 102.915 12.0687 102.719 12.4233C102.532 12.7687 102.439 13.1653 102.439 13.6133ZM108.9 16.2733C108.9 16.0587 108.975 15.8767 109.124 15.7273C109.283 15.578 109.465 15.5033 109.67 15.5033C109.885 15.5033 110.067 15.578 110.216 15.7273C110.366 15.8767 110.44 16.0587 110.44 16.2733C110.44 16.4787 110.366 16.6607 110.216 16.8193C110.067 16.9687 109.885 17.0433 109.67 17.0433C109.465 17.0433 109.283 16.9687 109.124 16.8193C108.975 16.6607 108.9 16.4787 108.9 16.2733ZM108.9 10.9533C108.9 10.7387 108.975 10.5567 109.124 10.4073C109.283 10.258 109.465 10.1833 109.67 10.1833C109.885 10.1833 110.067 10.258 110.216 10.4073C110.366 10.5567 110.44 10.7387 110.44 10.9533C110.44 11.1587 110.366 11.3407 110.216 11.4993C110.067 11.6487 109.885 11.7233 109.67 11.7233C109.465 11.7233 109.283 11.6487 109.124 11.4993C108.975 11.3407 108.9 11.1587 108.9 10.9533Z" fill="#979797"/>
<path d="M429.48 7.41334V6.13334H437.32L431.96 17.3333H430.536L435.288 7.41334H429.48ZM437.726 17.3333L443.022 11.6853C443.268 11.4187 443.476 11.1573 443.646 10.9013C443.828 10.6347 443.961 10.368 444.046 10.1013C444.142 9.82401 444.19 9.53601 444.19 9.23734C444.19 8.99201 444.142 8.75201 444.046 8.51734C443.95 8.28268 443.806 8.06934 443.614 7.87734C443.433 7.68534 443.209 7.53068 442.942 7.41334C442.676 7.29601 442.372 7.23734 442.03 7.23734C441.55 7.23734 441.134 7.34934 440.782 7.57334C440.441 7.78668 440.18 8.10134 439.998 8.51734C439.817 8.92268 439.726 9.40801 439.726 9.97334H438.366C438.366 9.17334 438.51 8.47468 438.798 7.87734C439.086 7.26934 439.502 6.80001 440.046 6.46934C440.601 6.12801 441.262 5.95734 442.03 5.95734C442.649 5.95734 443.182 6.06401 443.63 6.27734C444.078 6.48001 444.446 6.74668 444.734 7.07734C445.022 7.39734 445.236 7.74401 445.374 8.11734C445.513 8.49068 445.582 8.84801 445.582 9.18934C445.582 9.76534 445.444 10.336 445.166 10.9013C444.889 11.4667 444.532 11.9733 444.094 12.4213L440.526 16.0533H445.63V17.3333H437.726ZM448.516 11.7333C448.516 12.384 448.58 12.9867 448.708 13.5413C448.836 14.0853 449.022 14.56 449.268 14.9653C449.513 15.36 449.806 15.6693 450.148 15.8933C450.5 16.1067 450.889 16.2133 451.316 16.2133C451.753 16.2133 452.142 16.1067 452.484 15.8933C452.825 15.6693 453.118 15.36 453.364 14.9653C453.609 14.56 453.796 14.0853 453.924 13.5413C454.052 12.9867 454.116 12.384 454.116 11.7333C454.116 11.0827 454.052 10.4853 453.924 9.94134C453.796 9.38668 453.609 8.91201 453.364 8.51734C453.118 8.11201 452.825 7.80268 452.484 7.58934C452.142 7.36534 451.753 7.25334 451.316 7.25334C450.889 7.25334 450.5 7.36534 450.148 7.58934C449.806 7.80268 449.513 8.11201 449.268 8.51734C449.022 8.91201 448.836 9.38668 448.708 9.94134C448.58 10.4853 448.516 11.0827 448.516 11.7333ZM447.156 11.7333C447.156 10.6133 447.332 9.62134 447.684 8.75734C448.036 7.89334 448.521 7.21601 449.14 6.72534C449.769 6.22401 450.494 5.97334 451.316 5.97334C452.137 5.97334 452.857 6.22401 453.476 6.72534C454.105 7.21601 454.596 7.89334 454.948 8.75734C455.3 9.62134 455.476 10.6133 455.476 11.7333C455.476 12.8533 455.3 13.8453 454.948 14.7093C454.596 15.5733 454.105 16.256 453.476 16.7573C452.857 17.248 452.137 17.4933 451.316 17.4933C450.494 17.4933 449.769 17.248 449.14 16.7573C448.521 16.256 448.036 15.5733 447.684 14.7093C447.332 13.8453 447.156 12.8533 447.156 11.7333ZM458.109 11.7333C458.109 12.384 458.173 12.9867 458.301 13.5413C458.429 14.0853 458.616 14.56 458.861 14.9653C459.107 15.36 459.4 15.6693 459.741 15.8933C460.093 16.1067 460.483 16.2133 460.909 16.2133C461.347 16.2133 461.736 16.1067 462.077 15.8933C462.419 15.6693 462.712 15.36 462.957 14.9653C463.203 14.56 463.389 14.0853 463.517 13.5413C463.645 12.9867 463.709 12.384 463.709 11.7333C463.709 11.0827 463.645 10.4853 463.517 9.94134C463.389 9.38668 463.203 8.91201 462.957 8.51734C462.712 8.11201 462.419 7.80268 462.077 7.58934C461.736 7.36534 461.347 7.25334 460.909 7.25334C460.483 7.25334 460.093 7.36534 459.741 7.58934C459.4 7.80268 459.107 8.11201 458.861 8.51734C458.616 8.91201 458.429 9.38668 458.301 9.94134C458.173 10.4853 458.109 11.0827 458.109 11.7333ZM456.749 11.7333C456.749 10.6133 456.925 9.62134 457.277 8.75734C457.629 7.89334 458.115 7.21601 458.733 6.72534C459.363 6.22401 460.088 5.97334 460.909 5.97334C461.731 5.97334 462.451 6.22401 463.069 6.72534C463.699 7.21601 464.189 7.89334 464.541 8.75734C464.893 9.62134 465.069 10.6133 465.069 11.7333C465.069 12.8533 464.893 13.8453 464.541 14.7093C464.189 15.5733 463.699 16.256 463.069 16.7573C462.451 17.248 461.731 17.4933 460.909 17.4933C460.088 17.4933 459.363 17.248 458.733 16.7573C458.115 16.256 457.629 15.5733 457.277 14.7093C456.925 13.8453 456.749 12.8533 456.749 11.7333ZM466.023 15.0933L472.231 6.13334H472.791V17.3333H471.431V14.5173V14.3413V9.15734L468.263 13.8933H471.991H472.263H474.551V15.0933H466.023ZM482.151 9.81334C482.151 9.30134 482.039 8.85334 481.815 8.46934C481.602 8.07468 481.303 7.76534 480.919 7.54134C480.546 7.31734 480.119 7.20534 479.639 7.20534C479.159 7.20534 478.727 7.31734 478.343 7.54134C477.97 7.76534 477.671 8.07468 477.447 8.46934C477.234 8.85334 477.127 9.30134 477.127 9.81334C477.127 10.3253 477.234 10.7787 477.447 11.1733C477.671 11.568 477.97 11.8827 478.343 12.1173C478.727 12.3413 479.159 12.4533 479.639 12.4533C480.119 12.4533 480.546 12.3413 480.919 12.1173C481.303 11.8827 481.602 11.568 481.815 11.1733C482.039 10.7787 482.151 10.3253 482.151 9.81334ZM478.967 17.3333H477.255L480.759 12.7093L480.855 12.7893C480.642 13.056 480.391 13.232 480.103 13.3173C479.826 13.4027 479.506 13.4453 479.143 13.4453C478.685 13.4453 478.253 13.3547 477.847 13.1733C477.453 12.992 477.101 12.736 476.791 12.4053C476.493 12.0747 476.258 11.6907 476.087 11.2533C475.917 10.8053 475.831 10.3253 475.831 9.81334C475.831 9.04534 475.997 8.37334 476.327 7.79734C476.669 7.22134 477.127 6.77334 477.703 6.45334C478.279 6.13334 478.925 5.97334 479.639 5.97334C480.365 5.97334 481.01 6.13334 481.575 6.45334C482.151 6.77334 482.605 7.22134 482.935 7.79734C483.277 8.37334 483.447 9.04534 483.447 9.81334C483.447 10.272 483.383 10.6987 483.255 11.0933C483.127 11.488 482.957 11.8347 482.743 12.1333L478.967 17.3333Z" fill="white"/>
<path d="M2.058 41.1533V40.4953H3.64C3.96667 40.4953 4.26067 40.4393 4.522 40.3273C4.78333 40.2153 4.98867 40.052 5.138 39.8373C5.28733 39.6227 5.362 39.3613 5.362 39.0533C5.362 38.5867 5.19867 38.2273 4.872 37.9753C4.54533 37.714 4.13467 37.5833 3.64 37.5833H2.31V45.2833H3.78C4.2 45.2833 4.56867 45.2087 4.886 45.0593C5.21267 44.91 5.46467 44.6953 5.642 44.4153C5.82867 44.1353 5.922 43.7947 5.922 43.3933C5.922 43.0947 5.87067 42.8287 5.768 42.5953C5.66533 42.362 5.516 42.166 5.32 42.0073C5.13333 41.8487 4.90933 41.732 4.648 41.6573C4.38667 41.5733 4.09733 41.5313 3.78 41.5313H2.058V40.8733H3.78C4.256 40.8733 4.69467 40.9247 5.096 41.0273C5.49733 41.13 5.84733 41.2887 6.146 41.5033C6.454 41.7087 6.692 41.9747 6.86 42.3013C7.028 42.628 7.112 43.0153 7.112 43.4633C7.112 44.1073 6.96267 44.644 6.664 45.0733C6.37467 45.4933 5.978 45.8107 5.474 46.0253C4.97933 46.2307 4.41467 46.3333 3.78 46.3333H1.12V36.5333H3.64C4.228 36.5333 4.73667 36.622 5.166 36.7993C5.60467 36.9767 5.94533 37.2473 6.188 37.6113C6.43067 37.966 6.552 38.4233 6.552 38.9833C6.552 39.4407 6.43067 39.8327 6.188 40.1593C5.94533 40.486 5.60467 40.7333 5.166 40.9013C4.73667 41.0693 4.228 41.1533 3.64 41.1533H2.058ZM14.4986 39.8933V46.3333H13.3786V40.9433H10.0886V44.0933C10.0886 44.5973 10.0093 45.0173 9.85064 45.3533C9.70131 45.68 9.46797 45.9273 9.15064 46.0953C8.83331 46.254 8.43197 46.3333 7.94664 46.3333V45.3113C8.22664 45.3113 8.46464 45.2227 8.66064 45.0453C8.86597 44.868 8.96864 44.5507 8.96864 44.0933V39.8933H14.4986ZM17.1673 44.4433C17.1673 44.6673 17.2279 44.8587 17.3493 45.0173C17.4706 45.1667 17.6339 45.2833 17.8393 45.3673C18.0446 45.442 18.2733 45.4793 18.5253 45.4793C18.8986 45.4793 19.2299 45.4233 19.5193 45.3113C19.8086 45.1993 20.0326 45.022 20.1913 44.7793C20.3593 44.5367 20.4433 44.2147 20.4433 43.8133L20.6673 44.5133C20.6673 44.924 20.5553 45.2787 20.3313 45.5773C20.1166 45.8667 19.8273 46.0907 19.4633 46.2493C19.0993 46.3987 18.6933 46.4733 18.2453 46.4733C17.8439 46.4733 17.4753 46.3987 17.1393 46.2493C16.8033 46.1 16.5326 45.8807 16.3273 45.5913C16.1313 45.2927 16.0333 44.924 16.0333 44.4853C16.0333 44.028 16.1453 43.6407 16.3693 43.3233C16.5933 43.006 16.9106 42.7633 17.3213 42.5953C17.7319 42.418 18.2173 42.3293 18.7773 42.3293C19.1879 42.3293 19.5379 42.3853 19.8273 42.4973C20.1259 42.6 20.3639 42.7213 20.5413 42.8613C20.7186 42.992 20.8399 43.0993 20.9053 43.1833V43.8413C20.5879 43.6173 20.2659 43.454 19.9393 43.3513C19.6126 43.2393 19.2439 43.1833 18.8333 43.1833C18.4599 43.1833 18.1473 43.2347 17.8953 43.3373C17.6526 43.44 17.4706 43.5847 17.3493 43.7713C17.2279 43.958 17.1673 44.182 17.1673 44.4433ZM17.1673 41.4053L16.6213 40.5513C16.8639 40.374 17.1906 40.1967 17.6013 40.0193C18.0119 39.842 18.5066 39.7533 19.0853 39.7533C19.5799 39.7533 20.0093 39.8327 20.3733 39.9913C20.7466 40.1407 21.0359 40.36 21.2413 40.6493C21.4559 40.9387 21.5633 41.2933 21.5633 41.7133V46.3333H20.4433V41.7133C20.4433 41.3867 20.3033 41.144 20.0233 40.9853C19.7526 40.8173 19.4399 40.7333 19.0853 40.7333C18.7773 40.7333 18.4973 40.7753 18.2453 40.8593C17.9933 40.934 17.7739 41.0273 17.5873 41.1393C17.4099 41.242 17.2699 41.3307 17.1673 41.4053ZM26.9582 41.8253L25.0682 45.9133H23.8082L26.9582 39.4033L30.1082 45.9133H28.8482L26.9582 41.8253ZM29.8282 46.3333H24.1582V47.5933H22.9682V45.2833H30.9482V47.5933H29.8282V46.3333ZM32.786 43.3933V42.4413H37.084C37.0467 42.1053 36.9534 41.8113 36.804 41.5593C36.664 41.298 36.4634 41.0973 36.202 40.9573C35.95 40.808 35.6374 40.7333 35.264 40.7333C34.8907 40.7333 34.55 40.8127 34.242 40.9713C33.934 41.13 33.6867 41.3587 33.5 41.6573C33.3227 41.9467 33.234 42.292 33.234 42.6933L33.206 43.1133C33.206 43.608 33.29 44.028 33.458 44.3733C33.626 44.7187 33.864 44.98 34.172 45.1573C34.48 45.3347 34.844 45.4233 35.264 45.4233C35.5814 45.4233 35.8614 45.3767 36.104 45.2833C36.356 45.1807 36.58 45.0453 36.776 44.8773C36.972 44.7 37.14 44.4947 37.28 44.2613L38.19 44.8353C37.9754 45.162 37.7374 45.4513 37.476 45.7033C37.2147 45.946 36.8974 46.1373 36.524 46.2773C36.1507 46.408 35.684 46.4733 35.124 46.4733C34.5454 46.4733 34.0227 46.3287 33.556 46.0393C33.0987 45.75 32.7347 45.3533 32.464 44.8493C32.2027 44.336 32.072 43.7573 32.072 43.1133C32.072 42.992 32.0767 42.8753 32.086 42.7633C32.0954 42.6513 32.1094 42.5393 32.128 42.4273C32.2214 41.8953 32.408 41.4287 32.688 41.0273C32.968 40.626 33.3274 40.3133 33.766 40.0893C34.214 39.8653 34.7134 39.7533 35.264 39.7533C35.8707 39.7533 36.4027 39.8887 36.86 40.1593C37.3174 40.43 37.672 40.8127 37.924 41.3073C38.176 41.7927 38.302 42.376 38.302 43.0573C38.302 43.1133 38.302 43.1693 38.302 43.2253C38.302 43.2813 38.2974 43.3373 38.288 43.3933H32.786ZM45.4791 39.8933V46.3333H44.3591V40.9433H41.0691V44.0933C41.0691 44.5973 40.9898 45.0173 40.8311 45.3533C40.6818 45.68 40.4484 45.9273 40.1311 46.0953C39.8138 46.254 39.4124 46.3333 38.9271 46.3333V45.3113C39.2071 45.3113 39.4451 45.2227 39.6411 45.0453C39.8464 44.868 39.9491 44.5507 39.9491 44.0933V39.8933H45.4791ZM47.7978 43.3933V42.4413H52.0958C52.0584 42.1053 51.9651 41.8113 51.8158 41.5593C51.6758 41.298 51.4751 41.0973 51.2138 40.9573C50.9618 40.808 50.6491 40.7333 50.2758 40.7333C49.9024 40.7333 49.5618 40.8127 49.2538 40.9713C48.9458 41.13 48.6984 41.3587 48.5118 41.6573C48.3344 41.9467 48.2458 42.292 48.2458 42.6933L48.2178 43.1133C48.2178 43.608 48.3018 44.028 48.4698 44.3733C48.6378 44.7187 48.8758 44.98 49.1838 45.1573C49.4918 45.3347 49.8558 45.4233 50.2758 45.4233C50.5931 45.4233 50.8731 45.3767 51.1158 45.2833C51.3678 45.1807 51.5918 45.0453 51.7878 44.8773C51.9838 44.7 52.1518 44.4947 52.2918 44.2613L53.2018 44.8353C52.9871 45.162 52.7491 45.4513 52.4878 45.7033C52.2264 45.946 51.9091 46.1373 51.5358 46.2773C51.1624 46.408 50.6958 46.4733 50.1358 46.4733C49.5571 46.4733 49.0344 46.3287 48.5678 46.0393C48.1104 45.75 47.7464 45.3533 47.4758 44.8493C47.2144 44.336 47.0838 43.7573 47.0838 43.1133C47.0838 42.992 47.0884 42.8753 47.0978 42.7633C47.1071 42.6513 47.1211 42.5393 47.1398 42.4273C47.2331 41.8953 47.4198 41.4287 47.6998 41.0273C47.9798 40.626 48.3391 40.3133 48.7778 40.0893C49.2258 39.8653 49.7251 39.7533 50.2758 39.7533C50.8824 39.7533 51.4144 39.8887 51.8718 40.1593C52.3291 40.43 52.6838 40.8127 52.9358 41.3073C53.1878 41.7927 53.3138 42.376 53.3138 43.0573C53.3138 43.1133 53.3138 43.1693 53.3138 43.2253C53.3138 43.2813 53.3091 43.3373 53.2998 43.3933H47.7978ZM60.0988 45.2833H61.2188V47.5933H60.2388V46.3333H54.8488V39.8933H55.9688V45.2833H58.9788V39.8933H60.0988V45.2833ZM72.3521 41.0133L67.0321 46.8233L67.1021 45.2133L72.4221 39.4033L72.3521 41.0133ZM68.1521 39.8933V45.2833L67.0321 46.8233V39.8933H68.1521ZM72.4221 39.4033V46.3333H71.3021V40.9433L72.4221 39.4033ZM84.1783 41.0133L78.8583 46.8233L78.9283 45.2133L84.2483 39.4033L84.1783 41.0133ZM79.9783 39.8933V45.2833L78.8583 46.8233V39.8933H79.9783ZM84.2483 39.4033V46.3333H83.1283V40.9433L84.2483 39.4033ZM88.6992 43.1133V42.4133C89.1285 42.4133 89.4365 42.334 89.6232 42.1753C89.8099 42.0073 89.9032 41.8067 89.9032 41.5733C89.9032 41.3213 89.8099 41.1253 89.6232 40.9853C89.4365 40.836 89.1752 40.7613 88.8392 40.7613C88.5592 40.7613 88.3259 40.8173 88.1392 40.9293C87.9619 41.032 87.8312 41.1627 87.7472 41.3213C87.6632 41.4707 87.6212 41.62 87.6212 41.7693H86.4872C86.4872 41.4053 86.5899 41.0693 86.7952 40.7613C87.0005 40.4533 87.2805 40.2107 87.6352 40.0333C87.9899 39.8467 88.3912 39.7533 88.8392 39.7533C89.2592 39.7533 89.6372 39.8327 89.9732 39.9913C90.3092 40.15 90.5705 40.36 90.7572 40.6213C90.9532 40.8827 91.0512 41.172 91.0512 41.4893C91.0512 41.956 90.8412 42.3433 90.4212 42.6513C90.0105 42.9593 89.4365 43.1133 88.6992 43.1133ZM88.8112 46.4733C88.0552 46.4733 87.4485 46.268 86.9912 45.8573C86.5432 45.4467 86.2819 44.9287 86.2072 44.3033H87.3412C87.4065 44.6113 87.5465 44.8867 87.7612 45.1293C87.9759 45.372 88.3259 45.4933 88.8112 45.4933C89.1099 45.4933 89.3619 45.4513 89.5672 45.3673C89.7819 45.2833 89.9452 45.162 90.0572 45.0033C90.1692 44.8447 90.2252 44.6627 90.2252 44.4573C90.2252 44.2333 90.1645 44.042 90.0432 43.8833C89.9312 43.7247 89.7585 43.6033 89.5252 43.5193C89.3012 43.4353 89.0259 43.3933 88.6992 43.3933V42.6933C89.5019 42.6933 90.1412 42.8333 90.6172 43.1133C91.0932 43.3933 91.3312 43.8367 91.3312 44.4433C91.3312 44.8633 91.2145 45.2273 90.9812 45.5353C90.7572 45.834 90.4539 46.0673 90.0712 46.2353C89.6885 46.394 89.2685 46.4733 88.8112 46.4733ZM96.507 41.8253L94.617 45.9133H93.357L96.507 39.4033L99.657 45.9133H98.397L96.507 41.8253ZM99.377 46.3333H93.707V47.5933H92.517V45.2833H100.497V47.5933H99.377V46.3333ZM102.685 44.4433C102.685 44.6673 102.746 44.8587 102.867 45.0173C102.988 45.1667 103.152 45.2833 103.357 45.3673C103.562 45.442 103.791 45.4793 104.043 45.4793C104.416 45.4793 104.748 45.4233 105.037 45.3113C105.326 45.1993 105.55 45.022 105.709 44.7793C105.877 44.5367 105.961 44.2147 105.961 43.8133L106.185 44.5133C106.185 44.924 106.073 45.2787 105.849 45.5773C105.634 45.8667 105.345 46.0907 104.981 46.2493C104.617 46.3987 104.211 46.4733 103.763 46.4733C103.362 46.4733 102.993 46.3987 102.657 46.2493C102.321 46.1 102.05 45.8807 101.845 45.5913C101.649 45.2927 101.551 44.924 101.551 44.4853C101.551 44.028 101.663 43.6407 101.887 43.3233C102.111 43.006 102.428 42.7633 102.839 42.5953C103.25 42.418 103.735 42.3293 104.295 42.3293C104.706 42.3293 105.056 42.3853 105.345 42.4973C105.644 42.6 105.882 42.7213 106.059 42.8613C106.236 42.992 106.358 43.0993 106.423 43.1833V43.8413C106.106 43.6173 105.784 43.454 105.457 43.3513C105.13 43.2393 104.762 43.1833 104.351 43.1833C103.978 43.1833 103.665 43.2347 103.413 43.3373C103.17 43.44 102.988 43.5847 102.867 43.7713C102.746 43.958 102.685 44.182 102.685 44.4433ZM102.685 41.4053L102.139 40.5513C102.382 40.374 102.708 40.1967 103.119 40.0193C103.53 39.842 104.024 39.7533 104.603 39.7533C105.098 39.7533 105.527 39.8327 105.891 39.9913C106.264 40.1407 106.554 40.36 106.759 40.6493C106.974 40.9387 107.081 41.2933 107.081 41.7133V46.3333H105.961V41.7133C105.961 41.3867 105.821 41.144 105.541 40.9853C105.27 40.8173 104.958 40.7333 104.603 40.7333C104.295 40.7333 104.015 40.7753 103.763 40.8593C103.511 40.934 103.292 41.0273 103.105 41.1393C102.928 41.242 102.788 41.3307 102.685 41.4053ZM107.996 39.8933H111.776V40.9433H107.996V39.8933ZM109.326 40.1733H110.446V46.3333H109.326V40.1733ZM112.849 43.3933V42.4413H117.147C117.109 42.1053 117.016 41.8113 116.867 41.5593C116.727 41.298 116.526 41.0973 116.265 40.9573C116.013 40.808 115.7 40.7333 115.327 40.7333C114.953 40.7333 114.613 40.8127 114.305 40.9713C113.997 41.13 113.749 41.3587 113.563 41.6573C113.385 41.9467 113.297 42.292 113.297 42.6933L113.269 43.1133C113.269 43.608 113.353 44.028 113.521 44.3733C113.689 44.7187 113.927 44.98 114.235 45.1573C114.543 45.3347 114.907 45.4233 115.327 45.4233C115.644 45.4233 115.924 45.3767 116.167 45.2833C116.419 45.1807 116.643 45.0453 116.839 44.8773C117.035 44.7 117.203 44.4947 117.343 44.2613L118.253 44.8353C118.038 45.162 117.8 45.4513 117.539 45.7033C117.277 45.946 116.96 46.1373 116.587 46.2773C116.213 46.408 115.747 46.4733 115.187 46.4733C114.608 46.4733 114.085 46.3287 113.619 46.0393C113.161 45.75 112.797 45.3533 112.527 44.8493C112.265 44.336 112.135 43.7573 112.135 43.1133C112.135 42.992 112.139 42.8753 112.149 42.7633C112.158 42.6513 112.172 42.5393 112.191 42.4273C112.284 41.8953 112.471 41.4287 112.751 41.0273C113.031 40.626 113.39 40.3133 113.829 40.0893C114.277 39.8653 114.776 39.7533 115.327 39.7533C115.933 39.7533 116.465 39.8887 116.923 40.1593C117.38 40.43 117.735 40.8127 117.987 41.3073C118.239 41.7927 118.365 42.376 118.365 43.0573C118.365 43.1133 118.365 43.1693 118.365 43.2253C118.365 43.2813 118.36 43.3373 118.351 43.3933H112.849ZM125.542 39.8933V46.3333H124.422V40.9433H121.132V44.0933C121.132 44.5973 121.052 45.0173 120.894 45.3533C120.744 45.68 120.511 45.9273 120.194 46.0953C119.876 46.254 119.475 46.3333 118.99 46.3333V45.3113C119.27 45.3113 119.508 45.2227 119.704 45.0453C119.909 44.868 120.012 44.5507 120.012 44.0933V39.8933H125.542ZM127.706 39.8933H128.826V46.3333H127.706V39.8933ZM128.364 43.3093V42.3293H130.366C131.029 42.3293 131.584 42.4927 132.032 42.8193C132.49 43.1367 132.718 43.6407 132.718 44.3313C132.718 44.7887 132.616 45.1667 132.41 45.4653C132.205 45.764 131.925 45.9833 131.57 46.1233C131.216 46.2633 130.814 46.3333 130.366 46.3333H128.364V45.3533H130.366C130.637 45.3533 130.861 45.316 131.038 45.2413C131.225 45.1573 131.365 45.0407 131.458 44.8913C131.552 44.7327 131.598 44.546 131.598 44.3313C131.598 44.0047 131.496 43.7527 131.29 43.5753C131.085 43.398 130.777 43.3093 130.366 43.3093H128.364ZM134.754 45.7733C134.754 45.5587 134.828 45.3767 134.978 45.2273C135.136 45.078 135.318 45.0033 135.524 45.0033C135.738 45.0033 135.92 45.078 136.07 45.2273C136.219 45.3767 136.294 45.5587 136.294 45.7733C136.294 45.9787 136.219 46.1607 136.07 46.3193C135.92 46.4687 135.738 46.5433 135.524 46.5433C135.318 46.5433 135.136 46.4687 134.978 46.3193C134.828 46.1607 134.754 45.9787 134.754 45.7733ZM134.754 40.4533C134.754 40.2387 134.828 40.0567 134.978 39.9073C135.136 39.758 135.318 39.6833 135.524 39.6833C135.738 39.6833 135.92 39.758 136.07 39.9073C136.219 40.0567 136.294 40.2387 136.294 40.4533C136.294 40.6587 136.219 40.8407 136.07 40.9993C135.92 41.1487 135.738 41.2233 135.524 41.2233C135.318 41.2233 135.136 41.1487 134.978 40.9993C134.828 40.8407 134.754 40.6587 134.754 40.4533Z" fill="#979797"/>
<path d="M266.82 41.4333C266.82 42.1707 266.979 42.8287 267.296 43.4073C267.623 43.986 268.066 44.4433 268.626 44.7793C269.186 45.1153 269.821 45.2833 270.53 45.2833C271.249 45.2833 271.883 45.1153 272.434 44.7793C272.994 44.4433 273.433 43.986 273.75 43.4073C274.077 42.8287 274.24 42.1707 274.24 41.4333C274.24 40.696 274.077 40.038 273.75 39.4593C273.433 38.8807 272.994 38.4233 272.434 38.0873C271.883 37.7513 271.249 37.5833 270.53 37.5833C269.821 37.5833 269.186 37.7513 268.626 38.0873C268.066 38.4233 267.623 38.8807 267.296 39.4593C266.979 40.038 266.82 40.696 266.82 41.4333ZM265.56 41.4333C265.56 40.7147 265.681 40.052 265.924 39.4453C266.176 38.8293 266.526 38.2973 266.974 37.8493C267.422 37.392 267.949 37.0373 268.556 36.7853C269.163 36.524 269.821 36.3933 270.53 36.3933C271.249 36.3933 271.907 36.524 272.504 36.7853C273.111 37.0373 273.638 37.392 274.086 37.8493C274.534 38.2973 274.879 38.8293 275.122 39.4453C275.374 40.052 275.5 40.7147 275.5 41.4333C275.5 42.1427 275.374 42.8053 275.122 43.4213C274.879 44.0373 274.534 44.574 274.086 45.0313C273.638 45.4793 273.111 45.834 272.504 46.0953C271.907 46.3473 271.249 46.4733 270.53 46.4733C269.821 46.4733 269.163 46.3473 268.556 46.0953C267.949 45.834 267.422 45.4793 266.974 45.0313C266.526 44.574 266.176 44.0373 265.924 43.4213C265.681 42.8053 265.56 42.1427 265.56 41.4333ZM277.615 43.1133C277.615 43.5613 277.708 43.958 277.895 44.3033C278.091 44.6487 278.352 44.924 278.679 45.1293C279.015 45.3253 279.393 45.4233 279.813 45.4233C280.158 45.4233 280.48 45.372 280.779 45.2693C281.087 45.1573 281.353 45.0127 281.577 44.8353C281.801 44.6487 281.959 44.4527 282.053 44.2473V45.6473C281.829 45.9087 281.507 46.114 281.087 46.2633C280.676 46.4033 280.251 46.4733 279.813 46.4733C279.187 46.4733 278.623 46.3287 278.119 46.0393C277.615 45.75 277.213 45.3533 276.915 44.8493C276.625 44.336 276.481 43.7573 276.481 43.1133C276.481 42.46 276.625 41.8813 276.915 41.3773C277.213 40.8733 277.615 40.4767 278.119 40.1873C278.623 39.898 279.187 39.7533 279.813 39.7533C280.251 39.7533 280.676 39.828 281.087 39.9773C281.507 40.1173 281.829 40.318 282.053 40.5793V41.9793C281.959 41.7647 281.801 41.5687 281.577 41.3913C281.353 41.214 281.087 41.074 280.779 40.9713C280.48 40.8593 280.158 40.8033 279.813 40.8033C279.393 40.8033 279.015 40.9013 278.679 41.0973C278.352 41.2933 278.091 41.5687 277.895 41.9233C277.708 42.2687 277.615 42.6653 277.615 43.1133ZM284.566 41.4333C284.566 42.1707 284.725 42.8287 285.042 43.4073C285.369 43.986 285.812 44.4433 286.372 44.7793C286.932 45.1153 287.567 45.2833 288.276 45.2833C288.995 45.2833 289.629 45.1153 290.18 44.7793C290.74 44.4433 291.179 43.986 291.496 43.4073C291.823 42.8287 291.986 42.1707 291.986 41.4333C291.986 40.696 291.823 40.038 291.496 39.4593C291.179 38.8807 290.74 38.4233 290.18 38.0873C289.629 37.7513 288.995 37.5833 288.276 37.5833C287.567 37.5833 286.932 37.7513 286.372 38.0873C285.812 38.4233 285.369 38.8807 285.042 39.4593C284.725 40.038 284.566 40.696 284.566 41.4333ZM283.306 41.4333C283.306 40.7147 283.427 40.052 283.67 39.4453C283.922 38.8293 284.272 38.2973 284.72 37.8493C285.168 37.392 285.695 37.0373 286.302 36.7853C286.909 36.524 287.567 36.3933 288.276 36.3933C288.995 36.3933 289.653 36.524 290.25 36.7853C290.857 37.0373 291.384 37.392 291.832 37.8493C292.28 38.2973 292.625 38.8293 292.868 39.4453C293.12 40.052 293.246 40.7147 293.246 41.4333C293.246 42.1427 293.12 42.8053 292.868 43.4213C292.625 44.0373 292.28 44.574 291.832 45.0313C291.384 45.4793 290.857 45.834 290.25 46.0953C289.653 46.3473 288.995 46.4733 288.276 46.4733C287.567 46.4733 286.909 46.3473 286.302 46.0953C285.695 45.834 285.168 45.4793 284.72 45.0313C284.272 44.574 283.922 44.0373 283.67 43.4213C283.427 42.8053 283.306 42.1427 283.306 41.4333ZM295.627 41.4333C295.627 42.1707 295.785 42.8287 296.103 43.4073C296.429 43.986 296.873 44.4433 297.433 44.7793C297.993 45.1153 298.627 45.2833 299.337 45.2833C300.055 45.2833 300.69 45.1153 301.241 44.7793C301.801 44.4433 302.239 43.986 302.557 43.4073C302.883 42.8287 303.047 42.1707 303.047 41.4333C303.047 40.696 302.883 40.038 302.557 39.4593C302.239 38.8807 301.801 38.4233 301.241 38.0873C300.69 37.7513 300.055 37.5833 299.337 37.5833C298.627 37.5833 297.993 37.7513 297.433 38.0873C296.873 38.4233 296.429 38.8807 296.103 39.4593C295.785 40.038 295.627 40.696 295.627 41.4333ZM294.367 41.4333C294.367 40.7147 294.488 40.052 294.731 39.4453C294.983 38.8293 295.333 38.2973 295.781 37.8493C296.229 37.392 296.756 37.0373 297.363 36.7853C297.969 36.524 298.627 36.3933 299.337 36.3933C300.055 36.3933 300.713 36.524 301.311 36.7853C301.917 37.0373 302.445 37.392 302.893 37.8493C303.341 38.2973 303.686 38.8293 303.929 39.4453C304.181 40.052 304.307 40.7147 304.307 41.4333C304.307 42.1427 304.181 42.8053 303.929 43.4213C303.686 44.0373 303.341 44.574 302.893 45.0313C302.445 45.4793 301.917 45.834 301.311 46.0953C300.713 46.3473 300.055 46.4733 299.337 46.4733C298.627 46.4733 297.969 46.3473 297.363 46.0953C296.756 45.834 296.229 45.4793 295.781 45.0313C295.333 44.574 294.983 44.0373 294.731 43.4213C294.488 42.8053 294.367 42.1427 294.367 41.4333ZM313.124 42.7073L315.224 45.4233L314.524 46.0533L311.864 42.7633L314.524 39.4733L315.224 40.1033L313.124 42.7073ZM310.884 42.7073L312.984 45.4233L312.284 46.0533L309.624 42.7633L312.284 39.4733L312.984 40.1033L310.884 42.7073ZM316.341 37.6533V36.5333H322.571V37.6533H320.051V46.3333H318.861V37.6533H316.341ZM323.758 39.8933V46.3333H322.638V39.8933H323.758ZM325.704 41.1253C325.555 41.0133 325.419 40.934 325.298 40.8873C325.177 40.8313 325.023 40.8033 324.836 40.8033C324.556 40.8033 324.337 40.8733 324.178 41.0133C324.019 41.1533 323.907 41.3447 323.842 41.5873C323.786 41.83 323.758 42.1053 323.758 42.4133H323.254C323.254 41.9 323.343 41.4473 323.52 41.0553C323.707 40.654 323.945 40.3367 324.234 40.1033C324.523 39.87 324.817 39.7533 325.116 39.7533C325.349 39.7533 325.564 39.786 325.76 39.8513C325.965 39.9073 326.152 40.024 326.32 40.2013L325.704 41.1253ZM328.557 43.8133C328.557 44.3267 328.673 44.7233 328.907 45.0033C329.14 45.2833 329.481 45.4233 329.929 45.4233C330.255 45.4233 330.54 45.358 330.783 45.2273C331.035 45.0873 331.226 44.896 331.357 44.6533C331.497 44.4107 331.567 44.1307 331.567 43.8133V39.8933H332.687V46.3333H331.567V45.3253C331.352 45.708 331.086 45.9973 330.769 46.1933C330.451 46.38 330.078 46.4733 329.649 46.4733C328.977 46.4733 328.44 46.2447 328.039 45.7873C327.637 45.33 327.437 44.7187 327.437 43.9533V39.8933H328.557V43.8133ZM335.058 44.3593C335.189 44.5553 335.338 44.7373 335.506 44.9053C335.674 45.0733 335.866 45.2087 336.08 45.3113C336.304 45.4047 336.547 45.4513 336.808 45.4513C337.126 45.4513 337.373 45.3813 337.55 45.2413C337.737 45.092 337.83 44.8913 337.83 44.6393C337.83 44.4153 337.756 44.2287 337.606 44.0793C337.466 43.9207 337.284 43.79 337.06 43.6873C336.836 43.5753 336.598 43.4727 336.346 43.3793C336.066 43.2673 335.782 43.1367 335.492 42.9873C335.212 42.8287 334.974 42.628 334.778 42.3853C334.592 42.1333 334.498 41.8207 334.498 41.4473C334.498 41.0647 334.596 40.7473 334.792 40.4953C334.998 40.2433 335.259 40.0567 335.576 39.9353C335.903 39.814 336.239 39.7533 336.584 39.7533C336.93 39.7533 337.252 39.8093 337.55 39.9213C337.858 40.0333 338.129 40.1827 338.362 40.3693C338.596 40.556 338.778 40.7707 338.908 41.0133L338.012 41.5873C337.835 41.3447 337.611 41.144 337.34 40.9853C337.079 40.8267 336.78 40.7473 336.444 40.7473C336.211 40.7473 336.01 40.7987 335.842 40.9013C335.674 41.004 335.59 41.1627 335.59 41.3773C335.59 41.5453 335.656 41.6947 335.786 41.8253C335.917 41.956 336.085 42.0727 336.29 42.1753C336.496 42.278 336.71 42.376 336.934 42.4693C337.308 42.6187 337.648 42.782 337.956 42.9593C338.264 43.1273 338.507 43.3327 338.684 43.5753C338.871 43.818 338.964 44.1307 338.964 44.5133C338.964 45.0733 338.759 45.54 338.348 45.9133C337.947 46.2867 337.415 46.4733 336.752 46.4733C336.323 46.4733 335.936 46.3987 335.59 46.2493C335.245 46.0907 334.951 45.89 334.708 45.6473C334.475 45.4047 334.298 45.1573 334.176 44.9053L335.058 44.3593ZM339.459 39.8933H342.679V40.9433H339.459V39.8933ZM340.509 37.6533H341.629V46.3333H340.509V37.6533ZM349.119 35.4133V46.3333H347.999V35.4133H349.119ZM352.129 42.4133C352.129 41.8813 352.013 41.48 351.779 41.2093C351.555 40.9387 351.215 40.8033 350.757 40.8033C350.431 40.8033 350.141 40.8733 349.889 41.0133C349.647 41.1533 349.455 41.3447 349.315 41.5873C349.185 41.83 349.119 42.1053 349.119 42.4133H348.755C348.755 41.9 348.853 41.4473 349.049 41.0553C349.245 40.654 349.511 40.3367 349.847 40.1033C350.193 39.87 350.589 39.7533 351.037 39.7533C351.485 39.7533 351.873 39.8467 352.199 40.0333C352.535 40.22 352.792 40.5 352.969 40.8733C353.156 41.2467 353.249 41.7133 353.249 42.2733V46.3333H352.129V42.4133ZM354.795 43.1133C354.795 42.46 354.939 41.8813 355.229 41.3773C355.527 40.8733 355.929 40.4767 356.433 40.1873C356.937 39.898 357.501 39.7533 358.127 39.7533C358.761 39.7533 359.326 39.898 359.821 40.1873C360.325 40.4767 360.721 40.8733 361.011 41.3773C361.309 41.8813 361.459 42.46 361.459 43.1133C361.459 43.7573 361.309 44.336 361.011 44.8493C360.721 45.3533 360.325 45.75 359.821 46.0393C359.326 46.3287 358.761 46.4733 358.127 46.4733C357.501 46.4733 356.937 46.3287 356.433 46.0393C355.929 45.75 355.527 45.3533 355.229 44.8493C354.939 44.336 354.795 43.7573 354.795 43.1133ZM355.929 43.1133C355.929 43.5613 356.022 43.958 356.209 44.3033C356.405 44.6487 356.666 44.924 356.993 45.1293C357.329 45.3253 357.707 45.4233 358.127 45.4233C358.547 45.4233 358.92 45.3253 359.247 45.1293C359.583 44.924 359.844 44.6487 360.031 44.3033C360.227 43.958 360.325 43.5613 360.325 43.1133C360.325 42.6653 360.227 42.2687 360.031 41.9233C359.844 41.5687 359.583 41.2933 359.247 41.0973C358.92 40.9013 358.547 40.8033 358.127 40.8033C357.707 40.8033 357.329 40.9013 356.993 41.0973C356.666 41.2933 356.405 41.5687 356.209 41.9233C356.022 42.2687 355.929 42.6653 355.929 43.1133ZM364.117 43.8133C364.117 44.3267 364.234 44.7233 364.467 45.0033C364.701 45.2833 365.041 45.4233 365.489 45.4233C365.816 45.4233 366.101 45.358 366.343 45.2273C366.595 45.0873 366.787 44.896 366.917 44.6533C367.057 44.4107 367.127 44.1307 367.127 43.8133V39.8933H368.247V46.3333H367.127V45.3253C366.913 45.708 366.647 45.9973 366.329 46.1933C366.012 46.38 365.639 46.4733 365.209 46.4733C364.537 46.4733 364.001 46.2447 363.599 45.7873C363.198 45.33 362.997 44.7187 362.997 43.9533V39.8933H364.117V43.8133ZM370.619 44.3593C370.749 44.5553 370.899 44.7373 371.067 44.9053C371.235 45.0733 371.426 45.2087 371.641 45.3113C371.865 45.4047 372.107 45.4513 372.369 45.4513C372.686 45.4513 372.933 45.3813 373.111 45.2413C373.297 45.092 373.391 44.8913 373.391 44.6393C373.391 44.4153 373.316 44.2287 373.167 44.0793C373.027 43.9207 372.845 43.79 372.621 43.6873C372.397 43.5753 372.159 43.4727 371.907 43.3793C371.627 43.2673 371.342 43.1367 371.053 42.9873C370.773 42.8287 370.535 42.628 370.339 42.3853C370.152 42.1333 370.059 41.8207 370.059 41.4473C370.059 41.0647 370.157 40.7473 370.353 40.4953C370.558 40.2433 370.819 40.0567 371.137 39.9353C371.463 39.814 371.799 39.7533 372.145 39.7533C372.49 39.7533 372.812 39.8093 373.111 39.9213C373.419 40.0333 373.689 40.1827 373.923 40.3693C374.156 40.556 374.338 40.7707 374.469 41.0133L373.573 41.5873C373.395 41.3447 373.171 41.144 372.901 40.9853C372.639 40.8267 372.341 40.7473 372.005 40.7473C371.771 40.7473 371.571 40.7987 371.403 40.9013C371.235 41.004 371.151 41.1627 371.151 41.3773C371.151 41.5453 371.216 41.6947 371.347 41.8253C371.477 41.956 371.645 42.0727 371.851 42.1753C372.056 42.278 372.271 42.376 372.495 42.4693C372.868 42.6187 373.209 42.782 373.517 42.9593C373.825 43.1273 374.067 43.3327 374.245 43.5753C374.431 43.818 374.525 44.1307 374.525 44.5133C374.525 45.0733 374.319 45.54 373.909 45.9133C373.507 46.2867 372.975 46.4733 372.313 46.4733C371.883 46.4733 371.496 46.3987 371.151 46.2493C370.805 46.0907 370.511 45.89 370.269 45.6473C370.035 45.4047 369.858 45.1573 369.737 44.9053L370.619 44.3593ZM378.491 46.4733C377.894 46.4733 377.362 46.3333 376.895 46.0533C376.438 45.764 376.079 45.3673 375.817 44.8633C375.565 44.3593 375.439 43.776 375.439 43.1133C375.439 42.4413 375.57 41.8533 375.831 41.3493C376.102 40.8453 376.475 40.4533 376.951 40.1733C377.437 39.8933 377.997 39.7533 378.631 39.7533C379.266 39.7533 379.807 39.8887 380.255 40.1593C380.713 40.4207 381.063 40.7987 381.305 41.2933C381.548 41.788 381.669 42.376 381.669 43.0573C381.669 43.1227 381.665 43.1927 381.655 43.2673C381.655 43.3327 381.655 43.3747 381.655 43.3933H376.153V42.4413H380.773L380.325 43.0853C380.353 43.0387 380.381 42.9687 380.409 42.8753C380.437 42.7727 380.451 42.6887 380.451 42.6233C380.451 42.2407 380.372 41.9093 380.213 41.6293C380.064 41.3493 379.854 41.13 379.583 40.9713C379.313 40.8127 378.995 40.7333 378.631 40.7333C378.202 40.7333 377.833 40.8267 377.525 41.0133C377.227 41.1907 376.993 41.452 376.825 41.7973C376.667 42.1333 376.583 42.5487 376.573 43.0433C376.573 43.5473 376.653 43.9767 376.811 44.3313C376.97 44.686 377.203 44.9567 377.511 45.1433C377.819 45.33 378.193 45.4233 378.631 45.4233C379.07 45.4233 379.457 45.33 379.793 45.1433C380.129 44.9473 380.414 44.6533 380.647 44.2613L381.557 44.8353C381.221 45.3767 380.797 45.7873 380.283 46.0673C379.779 46.338 379.182 46.4733 378.491 46.4733ZM388.172 41.4333C388.172 42.1893 388.34 42.8567 388.676 43.4353C389.021 44.014 389.469 44.4667 390.02 44.7933C390.57 45.12 391.168 45.2833 391.812 45.2833C392.278 45.2833 392.703 45.2227 393.086 45.1013C393.478 44.98 393.832 44.812 394.15 44.5973C394.467 44.3733 394.738 44.1167 394.962 43.8273V45.3953C394.551 45.7593 394.103 46.03 393.618 46.2073C393.132 46.3847 392.53 46.4733 391.812 46.4733C391.13 46.4733 390.491 46.352 389.894 46.1093C389.306 45.8573 388.788 45.5073 388.34 45.0593C387.892 44.602 387.542 44.0653 387.29 43.4493C387.038 42.8333 386.912 42.1613 386.912 41.4333C386.912 40.7053 387.038 40.0333 387.29 39.4173C387.542 38.8013 387.892 38.2693 388.34 37.8213C388.788 37.364 389.306 37.014 389.894 36.7713C390.491 36.5193 391.13 36.3933 391.812 36.3933C392.53 36.3933 393.132 36.482 393.618 36.6593C394.103 36.8367 394.551 37.1073 394.962 37.4713V39.0393C394.738 38.75 394.467 38.498 394.15 38.2833C393.832 38.0593 393.478 37.8867 393.086 37.7653C392.703 37.644 392.278 37.5833 391.812 37.5833C391.168 37.5833 390.57 37.7467 390.02 38.0733C389.469 38.4 389.021 38.8527 388.676 39.4313C388.34 40.0007 388.172 40.668 388.172 41.4333ZM397.06 45.7733C397.06 45.5587 397.135 45.3767 397.284 45.2273C397.443 45.078 397.625 45.0033 397.83 45.0033C398.045 45.0033 398.227 45.078 398.376 45.2273C398.526 45.3767 398.6 45.5587 398.6 45.7733C398.6 45.9787 398.526 46.1607 398.376 46.3193C398.227 46.4687 398.045 46.5433 397.83 46.5433C397.625 46.5433 397.443 46.4687 397.284 46.3193C397.135 46.1607 397.06 45.9787 397.06 45.7733ZM401.986 43.3933L402.406 42.2733H406.746L407.166 43.3933H401.986ZM404.548 38.7453L402.896 42.6373L402.784 42.8893L401.328 46.3333H399.998L404.548 36.0433L409.098 46.3333H407.768L406.34 42.9733L406.228 42.6933L404.548 38.7453ZM410.924 45.7733C410.924 45.5587 410.998 45.3767 411.148 45.2273C411.306 45.078 411.488 45.0033 411.694 45.0033C411.908 45.0033 412.09 45.078 412.24 45.2273C412.389 45.3767 412.464 45.5587 412.464 45.7733C412.464 45.9787 412.389 46.1607 412.24 46.3193C412.09 46.4687 411.908 46.5433 411.694 46.5433C411.488 46.5433 411.306 46.4687 411.148 46.3193C410.998 46.1607 410.924 45.9787 410.924 45.7733ZM420.158 39.8933V46.3333H419.038V39.8933H420.158ZM422.104 41.1253C421.955 41.0133 421.82 40.934 421.698 40.8873C421.577 40.8313 421.423 40.8033 421.236 40.8033C420.956 40.8033 420.737 40.8733 420.578 41.0133C420.42 41.1533 420.308 41.3447 420.242 41.5873C420.186 41.83 420.158 42.1053 420.158 42.4133H419.654C419.654 41.9 419.743 41.4473 419.92 41.0553C420.107 40.654 420.345 40.3367 420.634 40.1033C420.924 39.87 421.218 39.7533 421.516 39.7533C421.75 39.7533 421.964 39.786 422.16 39.8513C422.366 39.9073 422.552 40.024 422.72 40.2013L422.104 41.1253ZM426.124 46.4733C425.527 46.4733 424.995 46.3333 424.528 46.0533C424.071 45.764 423.711 45.3673 423.45 44.8633C423.198 44.3593 423.072 43.776 423.072 43.1133C423.072 42.4413 423.203 41.8533 423.464 41.3493C423.735 40.8453 424.108 40.4533 424.584 40.1733C425.069 39.8933 425.629 39.7533 426.264 39.7533C426.899 39.7533 427.44 39.8887 427.888 40.1593C428.345 40.4207 428.695 40.7987 428.938 41.2933C429.181 41.788 429.302 42.376 429.302 43.0573C429.302 43.1227 429.297 43.1927 429.288 43.2673C429.288 43.3327 429.288 43.3747 429.288 43.3933H423.786V42.4413H428.406L427.958 43.0853C427.986 43.0387 428.014 42.9687 428.042 42.8753C428.07 42.7727 428.084 42.6887 428.084 42.6233C428.084 42.2407 428.005 41.9093 427.846 41.6293C427.697 41.3493 427.487 41.13 427.216 40.9713C426.945 40.8127 426.628 40.7333 426.264 40.7333C425.835 40.7333 425.466 40.8267 425.158 41.0133C424.859 41.1907 424.626 41.452 424.458 41.7973C424.299 42.1333 424.215 42.5487 424.206 43.0433C424.206 43.5473 424.285 43.9767 424.444 44.3313C424.603 44.686 424.836 44.9567 425.144 45.1433C425.452 45.33 425.825 45.4233 426.264 45.4233C426.703 45.4233 427.09 45.33 427.426 45.1433C427.762 44.9473 428.047 44.6533 428.28 44.2613L429.19 44.8353C428.854 45.3767 428.429 45.7873 427.916 46.0673C427.412 46.338 426.815 46.4733 426.124 46.4733ZM431.341 44.3453C431.341 44.588 431.397 44.798 431.509 44.9753C431.63 45.1527 431.794 45.288 431.999 45.3813C432.214 45.4653 432.456 45.5073 432.727 45.5073C433.072 45.5073 433.38 45.4373 433.651 45.2973C433.931 45.1573 434.15 44.9613 434.309 44.7093C434.477 44.448 434.561 44.1493 434.561 43.8133L434.785 44.6533C434.785 45.064 434.659 45.4047 434.407 45.6753C434.164 45.946 433.861 46.1467 433.497 46.2773C433.142 46.408 432.788 46.4733 432.433 46.4733C432.041 46.4733 431.672 46.394 431.327 46.2353C430.991 46.0673 430.72 45.8293 430.515 45.5213C430.31 45.2133 430.207 44.84 430.207 44.4013C430.207 43.776 430.426 43.2767 430.865 42.9033C431.313 42.5207 431.934 42.3293 432.727 42.3293C433.194 42.3293 433.581 42.3853 433.889 42.4973C434.206 42.6 434.458 42.7213 434.645 42.8613C434.832 42.992 434.958 43.0993 435.023 43.1833V43.8413C434.696 43.6173 434.36 43.4587 434.015 43.3653C433.67 43.2627 433.301 43.2113 432.909 43.2113C432.545 43.2113 432.246 43.258 432.013 43.3513C431.789 43.4447 431.621 43.5753 431.509 43.7433C431.397 43.9113 431.341 44.112 431.341 44.3453ZM431.173 41.3773L430.627 40.5513C430.87 40.374 431.201 40.1967 431.621 40.0193C432.05 39.842 432.564 39.7533 433.161 39.7533C433.665 39.7533 434.104 39.8327 434.477 39.9913C434.86 40.1407 435.154 40.36 435.359 40.6493C435.574 40.9387 435.681 41.2933 435.681 41.7133V46.3333H434.561V41.8673C434.561 41.6433 434.524 41.4613 434.449 41.3213C434.374 41.172 434.267 41.0553 434.127 40.9713C433.996 40.8873 433.842 40.8267 433.665 40.7893C433.488 40.752 433.301 40.7333 433.105 40.7333C432.788 40.7333 432.498 40.7707 432.237 40.8453C431.985 40.92 431.77 41.0087 431.593 41.1113C431.416 41.214 431.276 41.3027 431.173 41.3773ZM437.577 35.4133H438.697V46.3333H437.577V35.4133ZM447.493 46.4733C446.896 46.4733 446.364 46.3333 445.897 46.0533C445.44 45.764 445.081 45.3673 444.819 44.8633C444.567 44.3593 444.441 43.776 444.441 43.1133C444.441 42.4413 444.572 41.8533 444.833 41.3493C445.104 40.8453 445.477 40.4533 445.953 40.1733C446.439 39.8933 446.999 39.7533 447.633 39.7533C448.268 39.7533 448.809 39.8887 449.257 40.1593C449.715 40.4207 450.065 40.7987 450.307 41.2933C450.55 41.788 450.671 42.376 450.671 43.0573C450.671 43.1227 450.667 43.1927 450.657 43.2673C450.657 43.3327 450.657 43.3747 450.657 43.3933H445.155V42.4413H449.775L449.327 43.0853C449.355 43.0387 449.383 42.9687 449.411 42.8753C449.439 42.7727 449.453 42.6887 449.453 42.6233C449.453 42.2407 449.374 41.9093 449.215 41.6293C449.066 41.3493 448.856 41.13 448.585 40.9713C448.315 40.8127 447.997 40.7333 447.633 40.7333C447.204 40.7333 446.835 40.8267 446.527 41.0133C446.229 41.1907 445.995 41.452 445.827 41.7973C445.669 42.1333 445.585 42.5487 445.575 43.0433C445.575 43.5473 445.655 43.9767 445.813 44.3313C445.972 44.686 446.205 44.9567 446.513 45.1433C446.821 45.33 447.195 45.4233 447.633 45.4233C448.072 45.4233 448.459 45.33 448.795 45.1433C449.131 44.9473 449.416 44.6533 449.649 44.2613L450.559 44.8353C450.223 45.3767 449.799 45.7873 449.285 46.0673C448.781 46.338 448.184 46.4733 447.493 46.4733ZM452.472 44.3593C452.603 44.5553 452.752 44.7373 452.92 44.9053C453.088 45.0733 453.28 45.2087 453.494 45.3113C453.718 45.4047 453.961 45.4513 454.222 45.4513C454.54 45.4513 454.787 45.3813 454.964 45.2413C455.151 45.092 455.244 44.8913 455.244 44.6393C455.244 44.4153 455.17 44.2287 455.02 44.0793C454.88 43.9207 454.698 43.79 454.474 43.6873C454.25 43.5753 454.012 43.4727 453.76 43.3793C453.48 43.2673 453.196 43.1367 452.906 42.9873C452.626 42.8287 452.388 42.628 452.192 42.3853C452.006 42.1333 451.912 41.8207 451.912 41.4473C451.912 41.0647 452.01 40.7473 452.206 40.4953C452.412 40.2433 452.673 40.0567 452.99 39.9353C453.317 39.814 453.653 39.7533 453.998 39.7533C454.344 39.7533 454.666 39.8093 454.964 39.9213C455.272 40.0333 455.543 40.1827 455.776 40.3693C456.01 40.556 456.192 40.7707 456.322 41.0133L455.426 41.5873C455.249 41.3447 455.025 41.144 454.754 40.9853C454.493 40.8267 454.194 40.7473 453.858 40.7473C453.625 40.7473 453.424 40.7987 453.256 40.9013C453.088 41.004 453.004 41.1627 453.004 41.3773C453.004 41.5453 453.07 41.6947 453.2 41.8253C453.331 41.956 453.499 42.0727 453.704 42.1753C453.91 42.278 454.124 42.376 454.348 42.4693C454.722 42.6187 455.062 42.782 455.37 42.9593C455.678 43.1273 455.921 43.3327 456.098 43.5753C456.285 43.818 456.378 44.1307 456.378 44.5133C456.378 45.0733 456.173 45.54 455.762 45.9133C455.361 46.2867 454.829 46.4733 454.166 46.4733C453.737 46.4733 453.35 46.3987 453.004 46.2493C452.659 46.0907 452.365 45.89 452.122 45.6473C451.889 45.4047 451.712 45.1573 451.59 44.9053L452.472 44.3593ZM456.873 39.8933H460.093V40.9433H456.873V39.8933ZM457.923 37.6533H459.043V46.3333H457.923V37.6533ZM461.72 44.3453C461.72 44.588 461.776 44.798 461.888 44.9753C462.009 45.1527 462.173 45.288 462.378 45.3813C462.593 45.4653 462.835 45.5073 463.106 45.5073C463.451 45.5073 463.759 45.4373 464.03 45.2973C464.31 45.1573 464.529 44.9613 464.688 44.7093C464.856 44.448 464.94 44.1493 464.94 43.8133L465.164 44.6533C465.164 45.064 465.038 45.4047 464.786 45.6753C464.543 45.946 464.24 46.1467 463.876 46.2773C463.521 46.408 463.167 46.4733 462.812 46.4733C462.42 46.4733 462.051 46.394 461.706 46.2353C461.37 46.0673 461.099 45.8293 460.894 45.5213C460.689 45.2133 460.586 44.84 460.586 44.4013C460.586 43.776 460.805 43.2767 461.244 42.9033C461.692 42.5207 462.313 42.3293 463.106 42.3293C463.573 42.3293 463.96 42.3853 464.268 42.4973C464.585 42.6 464.837 42.7213 465.024 42.8613C465.211 42.992 465.337 43.0993 465.402 43.1833V43.8413C465.075 43.6173 464.739 43.4587 464.394 43.3653C464.049 43.2627 463.68 43.2113 463.288 43.2113C462.924 43.2113 462.625 43.258 462.392 43.3513C462.168 43.4447 462 43.5753 461.888 43.7433C461.776 43.9113 461.72 44.112 461.72 44.3453ZM461.552 41.3773L461.006 40.5513C461.249 40.374 461.58 40.1967 462 40.0193C462.429 39.842 462.943 39.7533 463.54 39.7533C464.044 39.7533 464.483 39.8327 464.856 39.9913C465.239 40.1407 465.533 40.36 465.738 40.6493C465.953 40.9387 466.06 41.2933 466.06 41.7133V46.3333H464.94V41.8673C464.94 41.6433 464.903 41.4613 464.828 41.3213C464.753 41.172 464.646 41.0553 464.506 40.9713C464.375 40.8873 464.221 40.8267 464.044 40.7893C463.867 40.752 463.68 40.7333 463.484 40.7333C463.167 40.7333 462.877 40.7707 462.616 40.8453C462.364 40.92 462.149 41.0087 461.972 41.1113C461.795 41.214 461.655 41.3027 461.552 41.3773ZM466.976 39.8933H470.196V40.9433H466.976V39.8933ZM468.026 37.6533H469.146V46.3333H468.026V37.6533ZM473.812 46.4733C473.214 46.4733 472.682 46.3333 472.216 46.0533C471.758 45.764 471.399 45.3673 471.138 44.8633C470.886 44.3593 470.76 43.776 470.76 43.1133C470.76 42.4413 470.89 41.8533 471.152 41.3493C471.422 40.8453 471.796 40.4533 472.272 40.1733C472.757 39.8933 473.317 39.7533 473.952 39.7533C474.586 39.7533 475.128 39.8887 475.576 40.1593C476.033 40.4207 476.383 40.7987 476.626 41.2933C476.868 41.788 476.99 42.376 476.99 43.0573C476.99 43.1227 476.985 43.1927 476.976 43.2673C476.976 43.3327 476.976 43.3747 476.976 43.3933H471.474V42.4413H476.094L475.646 43.0853C475.674 43.0387 475.702 42.9687 475.73 42.8753C475.758 42.7727 475.772 42.6887 475.772 42.6233C475.772 42.2407 475.692 41.9093 475.534 41.6293C475.384 41.3493 475.174 41.13 474.904 40.9713C474.633 40.8127 474.316 40.7333 473.952 40.7333C473.522 40.7333 473.154 40.8267 472.846 41.0133C472.547 41.1907 472.314 41.452 472.146 41.7973C471.987 42.1333 471.903 42.5487 471.894 43.0433C471.894 43.5473 471.973 43.9767 472.132 44.3313C472.29 44.686 472.524 44.9567 472.832 45.1433C473.14 45.33 473.513 45.4233 473.952 45.4233C474.39 45.4233 474.778 45.33 475.114 45.1433C475.45 44.9473 475.734 44.6533 475.968 44.2613L476.878 44.8353C476.542 45.3767 476.117 45.7873 475.604 46.0673C475.1 46.338 474.502 46.4733 473.812 46.4733ZM480.555 42.8193L478.455 40.1033L479.155 39.4733L481.815 42.7633L479.155 46.0533L478.455 45.4233L480.555 42.8193ZM482.795 42.8193L480.695 40.1033L481.395 39.4733L484.055 42.7633L481.395 46.0533L480.695 45.4233L482.795 42.8193Z" fill="white"/>
<path d="M1.12 64.5333H2.31V74.3333H1.12V64.5333ZM1.778 65.6533V64.5333H3.78C4.41467 64.5333 4.97933 64.6547 5.474 64.8973C5.978 65.1307 6.37467 65.4667 6.664 65.9053C6.96267 66.344 7.112 66.8667 7.112 67.4733C7.112 68.0707 6.96267 68.5933 6.664 69.0413C6.37467 69.48 5.978 69.8207 5.474 70.0633C4.97933 70.2967 4.41467 70.4133 3.78 70.4133H1.778V69.2933H3.78C4.41467 69.2933 4.928 69.1393 5.32 68.8313C5.72133 68.5233 5.922 68.0707 5.922 67.4733C5.922 66.8667 5.72133 66.414 5.32 66.1153C4.928 65.8073 4.41467 65.6533 3.78 65.6533H1.778ZM8.45009 71.3933V70.4413H12.7481C12.7108 70.1053 12.6174 69.8113 12.4681 69.5593C12.3281 69.298 12.1274 69.0973 11.8661 68.9573C11.6141 68.808 11.3014 68.7333 10.9281 68.7333C10.5548 68.7333 10.2141 68.8127 9.90609 68.9713C9.59809 69.13 9.35076 69.3587 9.16409 69.6573C8.98676 69.9467 8.89809 70.292 8.89809 70.6933L8.87009 71.1133C8.87009 71.608 8.95409 72.028 9.12209 72.3733C9.29009 72.7187 9.52809 72.98 9.83609 73.1573C10.1441 73.3347 10.5081 73.4233 10.9281 73.4233C11.2454 73.4233 11.5254 73.3767 11.7681 73.2833C12.0201 73.1807 12.2441 73.0453 12.4401 72.8773C12.6361 72.7 12.8041 72.4947 12.9441 72.2613L13.8541 72.8353C13.6394 73.162 13.4014 73.4513 13.1401 73.7033C12.8788 73.946 12.5614 74.1373 12.1881 74.2773C11.8148 74.408 11.3481 74.4733 10.7881 74.4733C10.2094 74.4733 9.68676 74.3287 9.22009 74.0393C8.76276 73.75 8.39876 73.3533 8.12809 72.8493C7.86676 72.336 7.73609 71.7573 7.73609 71.1133C7.73609 70.992 7.74076 70.8753 7.75009 70.7633C7.75943 70.6513 7.77343 70.5393 7.79209 70.4273C7.88543 69.8953 8.07209 69.4287 8.35209 69.0273C8.63209 68.626 8.99143 68.3133 9.43009 68.0893C9.87809 67.8653 10.3774 67.7533 10.9281 67.7533C11.5348 67.7533 12.0668 67.8887 12.5241 68.1593C12.9814 68.43 13.3361 68.8127 13.5881 69.3073C13.8401 69.7927 13.9661 70.376 13.9661 71.0573C13.9661 71.1133 13.9661 71.1693 13.9661 71.2253C13.9661 71.2813 13.9614 71.3373 13.9521 71.3933H8.45009ZM15.5712 67.8933H19.0012V68.9433H16.6912V74.3333H15.5712V67.8933ZM25.5123 69.0133L20.1923 74.8233L20.2623 73.2133L25.5823 67.4033L25.5123 69.0133ZM21.3123 67.8933V73.2833L20.1923 74.8233V67.8933H21.3123ZM25.5823 67.4033V74.3333H24.4623V68.9433L25.5823 67.4033ZM28.2552 71.1133C28.2552 71.5613 28.3485 71.958 28.5352 72.3033C28.7312 72.6487 28.9925 72.924 29.3192 73.1293C29.6552 73.3253 30.0332 73.4233 30.4532 73.4233C30.7985 73.4233 31.1205 73.372 31.4192 73.2693C31.7272 73.1573 31.9932 73.0127 32.2172 72.8353C32.4412 72.6487 32.5998 72.4527 32.6932 72.2473V73.6473C32.4692 73.9087 32.1472 74.114 31.7272 74.2633C31.3165 74.4033 30.8918 74.4733 30.4532 74.4733C29.8278 74.4733 29.2632 74.3287 28.7592 74.0393C28.2552 73.75 27.8538 73.3533 27.5552 72.8493C27.2658 72.336 27.1212 71.7573 27.1212 71.1133C27.1212 70.46 27.2658 69.8813 27.5552 69.3773C27.8538 68.8733 28.2552 68.4767 28.7592 68.1873C29.2632 67.898 29.8278 67.7533 30.4532 67.7533C30.8918 67.7533 31.3165 67.828 31.7272 67.9773C32.1472 68.1173 32.4692 68.318 32.6932 68.5793V69.9793C32.5998 69.7647 32.4412 69.5687 32.2172 69.3913C31.9932 69.214 31.7272 69.074 31.4192 68.9713C31.1205 68.8593 30.7985 68.8033 30.4532 68.8033C30.0332 68.8033 29.6552 68.9013 29.3192 69.0973C28.9925 69.2933 28.7312 69.5687 28.5352 69.9233C28.3485 70.2687 28.2552 70.6653 28.2552 71.1133ZM33.4567 67.8933H37.2367V68.9433H33.4567V67.8933ZM34.7867 68.1733H35.9067V74.3333H34.7867V68.1733ZM39.4105 77.4133H38.2905V67.8933H39.4105V77.4133ZM44.8005 71.1133C44.8005 71.804 44.6559 72.4013 44.3665 72.9053C44.0772 73.4093 43.6899 73.7967 43.2045 74.0673C42.7285 74.338 42.1965 74.4733 41.6085 74.4733C41.0765 74.4733 40.6052 74.338 40.1945 74.0673C39.7932 73.7967 39.4759 73.4093 39.2425 72.9053C39.0185 72.4013 38.9065 71.804 38.9065 71.1133C38.9065 70.4133 39.0185 69.816 39.2425 69.3213C39.4759 68.8173 39.7932 68.43 40.1945 68.1593C40.6052 67.8887 41.0765 67.7533 41.6085 67.7533C42.1965 67.7533 42.7285 67.8887 43.2045 68.1593C43.6899 68.43 44.0772 68.8173 44.3665 69.3213C44.6559 69.816 44.8005 70.4133 44.8005 71.1133ZM43.6665 71.1133C43.6665 70.6187 43.5639 70.1987 43.3585 69.8533C43.1625 69.508 42.8965 69.2467 42.5605 69.0693C42.2339 68.892 41.8699 68.8033 41.4685 68.8033C41.1419 68.8033 40.8199 68.892 40.5025 69.0693C40.1852 69.2467 39.9239 69.508 39.7185 69.8533C39.5132 70.1987 39.4105 70.6187 39.4105 71.1133C39.4105 71.608 39.5132 72.028 39.7185 72.3733C39.9239 72.7187 40.1852 72.98 40.5025 73.1573C40.8199 73.3347 41.1419 73.4233 41.4685 73.4233C41.8699 73.4233 42.2339 73.3347 42.5605 73.1573C42.8965 72.98 43.1625 72.7187 43.3585 72.3733C43.5639 72.028 43.6665 71.608 43.6665 71.1133ZM46.8489 72.4433C46.8489 72.6673 46.9096 72.8587 47.0309 73.0173C47.1523 73.1667 47.3156 73.2833 47.5209 73.3673C47.7263 73.442 47.9549 73.4793 48.2069 73.4793C48.5803 73.4793 48.9116 73.4233 49.2009 73.3113C49.4903 73.1993 49.7143 73.022 49.8729 72.7793C50.0409 72.5367 50.1249 72.2147 50.1249 71.8133L50.3489 72.5133C50.3489 72.924 50.2369 73.2787 50.0129 73.5773C49.7983 73.8667 49.5089 74.0907 49.1449 74.2493C48.7809 74.3987 48.3749 74.4733 47.9269 74.4733C47.5256 74.4733 47.1569 74.3987 46.8209 74.2493C46.4849 74.1 46.2143 73.8807 46.0089 73.5913C45.8129 73.2927 45.7149 72.924 45.7149 72.4853C45.7149 72.028 45.8269 71.6407 46.0509 71.3233C46.2749 71.006 46.5923 70.7633 47.0029 70.5953C47.4136 70.418 47.8989 70.3293 48.4589 70.3293C48.8696 70.3293 49.2196 70.3853 49.5089 70.4973C49.8076 70.6 50.0456 70.7213 50.2229 70.8613C50.4003 70.992 50.5216 71.0993 50.5869 71.1833V71.8413C50.2696 71.6173 49.9476 71.454 49.6209 71.3513C49.2943 71.2393 48.9256 71.1833 48.5149 71.1833C48.1416 71.1833 47.8289 71.2347 47.5769 71.3373C47.3343 71.44 47.1523 71.5847 47.0309 71.7713C46.9096 71.958 46.8489 72.182 46.8489 72.4433ZM46.8489 69.4053L46.3029 68.5513C46.5456 68.374 46.8723 68.1967 47.2829 68.0193C47.6936 67.842 48.1883 67.7533 48.7669 67.7533C49.2616 67.7533 49.6909 67.8327 50.0549 67.9913C50.4283 68.1407 50.7176 68.36 50.9229 68.6493C51.1376 68.9387 51.2449 69.2933 51.2449 69.7133V74.3333H50.1249V69.7133C50.1249 69.3867 49.9849 69.144 49.7049 68.9853C49.4343 68.8173 49.1216 68.7333 48.7669 68.7333C48.4589 68.7333 48.1789 68.7753 47.9269 68.8593C47.6749 68.934 47.4556 69.0273 47.2689 69.1393C47.0916 69.242 46.9516 69.3307 46.8489 69.4053ZM58.3898 73.2833H59.5098V75.5933H58.5298V74.3333H53.1398V67.8933H54.2598V73.2833H57.2698V67.8933H58.3898V73.2833ZM66.4459 69.0133L61.1259 74.8233L61.1959 73.2133L66.5159 67.4033L66.4459 69.0133ZM62.2459 67.8933V73.2833L61.1259 74.8233V67.8933H62.2459ZM66.5159 67.4033V74.3333H65.3959V68.9433L66.5159 67.4033ZM68.1248 71.1133C68.1248 70.46 68.2694 69.8813 68.5588 69.3773C68.8574 68.8733 69.2588 68.4767 69.7628 68.1873C70.2668 67.898 70.8314 67.7533 71.4568 67.7533C72.0914 67.7533 72.6561 67.898 73.1508 68.1873C73.6548 68.4767 74.0514 68.8733 74.3408 69.3773C74.6394 69.8813 74.7888 70.46 74.7888 71.1133C74.7888 71.7573 74.6394 72.336 74.3408 72.8493C74.0514 73.3533 73.6548 73.75 73.1508 74.0393C72.6561 74.3287 72.0914 74.4733 71.4568 74.4733C70.8314 74.4733 70.2668 74.3287 69.7628 74.0393C69.2588 73.75 68.8574 73.3533 68.5588 72.8493C68.2694 72.336 68.1248 71.7573 68.1248 71.1133ZM69.2588 71.1133C69.2588 71.5613 69.3521 71.958 69.5388 72.3033C69.7348 72.6487 69.9961 72.924 70.3228 73.1293C70.6588 73.3253 71.0368 73.4233 71.4568 73.4233C71.8768 73.4233 72.2501 73.3253 72.5768 73.1293C72.9128 72.924 73.1741 72.6487 73.3608 72.3033C73.5568 71.958 73.6548 71.5613 73.6548 71.1133C73.6548 70.6653 73.5568 70.2687 73.3608 69.9233C73.1741 69.5687 72.9128 69.2933 72.5768 69.0973C72.2501 68.9013 71.8768 68.8033 71.4568 68.8033C71.0368 68.8033 70.6588 68.9013 70.3228 69.0973C69.9961 69.2933 69.7348 69.5687 69.5388 69.9233C69.3521 70.2687 69.2588 70.6653 69.2588 71.1133ZM76.9853 71.4633V70.4133H81.7453V71.4633H76.9853ZM81.0173 67.8933H82.1373V74.3333H81.0173V67.8933ZM76.3273 67.8933H77.4473V74.3333H76.3273V67.8933ZM84.9014 71.4633V70.4133H89.6614V71.4633H84.9014ZM88.9334 67.8933H90.0534V74.3333H88.9334V67.8933ZM84.2434 67.8933H85.3634V74.3333H84.2434V67.8933ZM97.9694 67.8933H99.0894V74.3333H97.9694V67.8933ZM92.1594 67.8933H93.2794V74.3333H92.1594V67.8933ZM92.8174 71.3093V70.3293H94.8194C95.482 70.3293 96.0374 70.4927 96.4854 70.8193C96.9427 71.1367 97.1714 71.6407 97.1714 72.3313C97.1714 72.7887 97.0687 73.1667 96.8634 73.4653C96.658 73.764 96.378 73.9833 96.0234 74.1233C95.6687 74.2633 95.2674 74.3333 94.8194 74.3333H92.8174V73.3533H94.8194C95.09 73.3533 95.314 73.316 95.4914 73.2413C95.678 73.1573 95.818 73.0407 95.9114 72.8913C96.0047 72.7327 96.0514 72.546 96.0514 72.3313C96.0514 72.0047 95.9487 71.7527 95.7434 71.5753C95.538 71.398 95.23 71.3093 94.8194 71.3093H92.8174ZM106.573 69.0133L101.253 74.8233L101.323 73.2133L106.643 67.4033L106.573 69.0133ZM102.373 67.8933V73.2833L101.253 74.8233V67.8933H102.373ZM106.643 67.4033V74.3333H105.523V68.9433L106.643 67.4033ZM101.771 64.6033H102.765C102.765 64.7247 102.797 64.8693 102.863 65.0373C102.928 65.196 103.049 65.3407 103.227 65.4713C103.404 65.5927 103.656 65.6533 103.983 65.6533C104.309 65.6533 104.561 65.5927 104.739 65.4713C104.916 65.3407 105.037 65.196 105.103 65.0373C105.168 64.8693 105.201 64.7247 105.201 64.6033H106.195C106.195 64.9207 106.111 65.2333 105.943 65.5413C105.784 65.84 105.541 66.0873 105.215 66.2833C104.888 66.47 104.477 66.5633 103.983 66.5633C103.497 66.5633 103.087 66.47 102.751 66.2833C102.424 66.0873 102.177 65.84 102.009 65.5413C101.85 65.2333 101.771 64.9207 101.771 64.6033ZM113.667 71.4633V70.4133H118.427V71.4633H113.667ZM117.699 67.8933H118.819V74.3333H117.699V67.8933ZM113.009 67.8933H114.129V74.3333H113.009V67.8933ZM120.365 71.1133C120.365 70.46 120.51 69.8813 120.799 69.3773C121.098 68.8733 121.499 68.4767 122.003 68.1873C122.507 67.898 123.072 67.7533 123.697 67.7533C124.332 67.7533 124.896 67.898 125.391 68.1873C125.895 68.4767 126.292 68.8733 126.581 69.3773C126.88 69.8813 127.029 70.46 127.029 71.1133C127.029 71.7573 126.88 72.336 126.581 72.8493C126.292 73.3533 125.895 73.75 125.391 74.0393C124.896 74.3287 124.332 74.4733 123.697 74.4733C123.072 74.4733 122.507 74.3287 122.003 74.0393C121.499 73.75 121.098 73.3533 120.799 72.8493C120.51 72.336 120.365 71.7573 120.365 71.1133ZM121.499 71.1133C121.499 71.5613 121.592 71.958 121.779 72.3033C121.975 72.6487 122.236 72.924 122.563 73.1293C122.899 73.3253 123.277 73.4233 123.697 73.4233C124.117 73.4233 124.49 73.3253 124.817 73.1293C125.153 72.924 125.414 72.6487 125.601 72.3033C125.797 71.958 125.895 71.5613 125.895 71.1133C125.895 70.6653 125.797 70.2687 125.601 69.9233C125.414 69.5687 125.153 69.2933 124.817 69.0973C124.49 68.9013 124.117 68.8033 123.697 68.8033C123.277 68.8033 122.899 68.9013 122.563 69.0973C122.236 69.2933 121.975 69.5687 121.779 69.9233C121.592 70.2687 121.499 70.6653 121.499 71.1133ZM134.686 74.3333L133.636 69.2233L134.266 67.4033L135.946 74.3333H134.686ZM131.326 73.3673L134.266 67.4033L134.406 69.6433L131.746 74.7673L131.326 73.3673ZM131.746 74.7673L129.128 69.6433L129.268 67.4033L132.166 73.3673L131.746 74.7673ZM127.588 74.3333L129.268 67.4033L129.898 69.2233L128.848 74.3333H127.588ZM137.225 71.3933V70.4413H141.523C141.486 70.1053 141.393 69.8113 141.243 69.5593C141.103 69.298 140.903 69.0973 140.641 68.9573C140.389 68.808 140.077 68.7333 139.703 68.7333C139.33 68.7333 138.989 68.8127 138.681 68.9713C138.373 69.13 138.126 69.3587 137.939 69.6573C137.762 69.9467 137.673 70.292 137.673 70.6933L137.645 71.1133C137.645 71.608 137.729 72.028 137.897 72.3733C138.065 72.7187 138.303 72.98 138.611 73.1573C138.919 73.3347 139.283 73.4233 139.703 73.4233C140.021 73.4233 140.301 73.3767 140.543 73.2833C140.795 73.1807 141.019 73.0453 141.215 72.8773C141.411 72.7 141.579 72.4947 141.719 72.2613L142.629 72.8353C142.415 73.162 142.177 73.4513 141.915 73.7033C141.654 73.946 141.337 74.1373 140.963 74.2773C140.59 74.408 140.123 74.4733 139.563 74.4733C138.985 74.4733 138.462 74.3287 137.995 74.0393C137.538 73.75 137.174 73.3533 136.903 72.8493C136.642 72.336 136.511 71.7573 136.511 71.1133C136.511 70.992 136.516 70.8753 136.525 70.7633C136.535 70.6513 136.549 70.5393 136.567 70.4273C136.661 69.8953 136.847 69.4287 137.127 69.0273C137.407 68.626 137.767 68.3133 138.205 68.0893C138.653 67.8653 139.153 67.7533 139.703 67.7533C140.31 67.7533 140.842 67.8887 141.299 68.1593C141.757 68.43 142.111 68.8127 142.363 69.3073C142.615 69.7927 142.741 70.376 142.741 71.0573C142.741 71.1133 142.741 71.1693 142.741 71.2253C142.741 71.2813 142.737 71.3373 142.727 71.3933H137.225ZM145.327 77.4133H144.207V67.8933H145.327V77.4133ZM150.717 71.1133C150.717 71.804 150.572 72.4013 150.283 72.9053C149.993 73.4093 149.606 73.7967 149.121 74.0673C148.645 74.338 148.113 74.4733 147.525 74.4733C146.993 74.4733 146.521 74.338 146.111 74.0673C145.709 73.7967 145.392 73.4093 145.159 72.9053C144.935 72.4013 144.823 71.804 144.823 71.1133C144.823 70.4133 144.935 69.816 145.159 69.3213C145.392 68.8173 145.709 68.43 146.111 68.1593C146.521 67.8887 146.993 67.7533 147.525 67.7533C148.113 67.7533 148.645 67.8887 149.121 68.1593C149.606 68.43 149.993 68.8173 150.283 69.3213C150.572 69.816 150.717 70.4133 150.717 71.1133ZM149.583 71.1133C149.583 70.6187 149.48 70.1987 149.275 69.8533C149.079 69.508 148.813 69.2467 148.477 69.0693C148.15 68.892 147.786 68.8033 147.385 68.8033C147.058 68.8033 146.736 68.892 146.419 69.0693C146.101 69.2467 145.84 69.508 145.635 69.8533C145.429 70.1987 145.327 70.6187 145.327 71.1133C145.327 71.608 145.429 72.028 145.635 72.3733C145.84 72.7187 146.101 72.98 146.419 73.1573C146.736 73.3347 147.058 73.4233 147.385 73.4233C147.786 73.4233 148.15 73.3347 148.477 73.1573C148.813 72.98 149.079 72.7187 149.275 72.3733C149.48 72.028 149.583 71.608 149.583 71.1133ZM152.541 73.7733C152.541 73.5587 152.616 73.3767 152.765 73.2273C152.924 73.078 153.106 73.0033 153.311 73.0033C153.526 73.0033 153.708 73.078 153.857 73.2273C154.006 73.3767 154.081 73.5587 154.081 73.7733C154.081 73.9787 154.006 74.1607 153.857 74.3193C153.708 74.4687 153.526 74.5433 153.311 74.5433C153.106 74.5433 152.924 74.4687 152.765 74.3193C152.616 74.1607 152.541 73.9787 152.541 73.7733ZM152.541 68.4533C152.541 68.2387 152.616 68.0567 152.765 67.9073C152.924 67.758 153.106 67.6833 153.311 67.6833C153.526 67.6833 153.708 67.758 153.857 67.9073C154.006 68.0567 154.081 68.2387 154.081 68.4533C154.081 68.6587 154.006 68.8407 153.857 68.9993C153.708 69.1487 153.526 69.2233 153.311 69.2233C153.106 69.2233 152.924 69.1487 152.765 68.9993C152.616 68.8407 152.541 68.6587 152.541 68.4533Z" fill="#979797"/>
<path d="M447.12 66.4653V65.2333L450.48 64.3933V74.3333H449.29V65.8213L447.12 66.4653ZM454.053 69.4333C454.053 70.0027 454.109 70.53 454.221 71.0153C454.333 71.4913 454.496 71.9067 454.711 72.2613C454.925 72.6067 455.182 72.8773 455.481 73.0733C455.789 73.26 456.129 73.3533 456.503 73.3533C456.885 73.3533 457.226 73.26 457.525 73.0733C457.823 72.8773 458.08 72.6067 458.295 72.2613C458.509 71.9067 458.673 71.4913 458.785 71.0153C458.897 70.53 458.953 70.0027 458.953 69.4333C458.953 68.864 458.897 68.3413 458.785 67.8653C458.673 67.38 458.509 66.9647 458.295 66.6193C458.08 66.2647 457.823 65.994 457.525 65.8073C457.226 65.6113 456.885 65.5133 456.503 65.5133C456.129 65.5133 455.789 65.6113 455.481 65.8073C455.182 65.994 454.925 66.2647 454.711 66.6193C454.496 66.9647 454.333 67.38 454.221 67.8653C454.109 68.3413 454.053 68.864 454.053 69.4333ZM452.863 69.4333C452.863 68.4533 453.017 67.5853 453.325 66.8293C453.633 66.0733 454.057 65.4807 454.599 65.0513C455.149 64.6127 455.784 64.3933 456.503 64.3933C457.221 64.3933 457.851 64.6127 458.393 65.0513C458.943 65.4807 459.373 66.0733 459.681 66.8293C459.989 67.5853 460.143 68.4533 460.143 69.4333C460.143 70.4133 459.989 71.2813 459.681 72.0373C459.373 72.7933 458.943 73.3907 458.393 73.8293C457.851 74.2587 457.221 74.4733 456.503 74.4733C455.784 74.4733 455.149 74.2587 454.599 73.8293C454.057 73.3907 453.633 72.7933 453.325 72.0373C453.017 71.2813 452.863 70.4133 452.863 69.4333ZM464.239 69.5033V68.7333C464.557 68.7333 464.837 68.6913 465.079 68.6073C465.322 68.514 465.527 68.3927 465.695 68.2433C465.863 68.0847 465.989 67.9027 466.073 67.6973C466.167 67.492 466.213 67.2727 466.213 67.0393C466.213 66.7313 466.157 66.4607 466.045 66.2273C465.933 65.9847 465.765 65.798 465.541 65.6673C465.327 65.5367 465.056 65.4713 464.729 65.4713C464.272 65.4713 463.885 65.616 463.567 65.9053C463.25 66.1853 463.091 66.54 463.091 66.9693H461.957C461.957 66.456 462.074 66.008 462.307 65.6253C462.55 65.2427 462.877 64.944 463.287 64.7293C463.707 64.5053 464.183 64.3933 464.715 64.3933C465.275 64.3933 465.756 64.5147 466.157 64.7573C466.568 65 466.881 65.3173 467.095 65.7093C467.319 66.1013 467.431 66.5307 467.431 66.9973C467.431 67.4547 467.296 67.8747 467.025 68.2573C466.755 68.64 466.381 68.9433 465.905 69.1673C465.429 69.3913 464.874 69.5033 464.239 69.5033ZM464.659 74.4733C464.183 74.4733 463.754 74.4033 463.371 74.2633C462.989 74.1233 462.662 73.932 462.391 73.6893C462.121 73.4373 461.911 73.148 461.761 72.8213C461.612 72.4853 461.537 72.126 461.537 71.7433H462.741C462.741 72.0513 462.821 72.3267 462.979 72.5693C463.147 72.812 463.376 73.0033 463.665 73.1433C463.955 73.2833 464.286 73.3533 464.659 73.3533C465.033 73.3533 465.355 73.2833 465.625 73.1433C465.905 72.994 466.12 72.7887 466.269 72.5273C466.419 72.266 466.493 71.958 466.493 71.6033C466.493 71.3047 466.433 71.0433 466.311 70.8193C466.199 70.586 466.041 70.3947 465.835 70.2453C465.63 70.0867 465.392 69.97 465.121 69.8953C464.851 69.8207 464.557 69.7833 464.239 69.7833V69.0133C464.715 69.0133 465.159 69.0647 465.569 69.1673C465.989 69.27 466.358 69.4333 466.675 69.6573C467.002 69.872 467.254 70.152 467.431 70.4973C467.618 70.8427 467.711 71.258 467.711 71.7433C467.711 72.294 467.576 72.7747 467.305 73.1853C467.044 73.596 466.685 73.9133 466.227 74.1373C465.77 74.3613 465.247 74.4733 464.659 74.4733ZM470.09 69.4333C470.09 70.0027 470.146 70.53 470.258 71.0153C470.37 71.4913 470.533 71.9067 470.748 72.2613C470.963 72.6067 471.219 72.8773 471.518 73.0733C471.826 73.26 472.167 73.3533 472.54 73.3533C472.923 73.3533 473.263 73.26 473.562 73.0733C473.861 72.8773 474.117 72.6067 474.332 72.2613C474.547 71.9067 474.71 71.4913 474.822 71.0153C474.934 70.53 474.99 70.0027 474.99 69.4333C474.99 68.864 474.934 68.3413 474.822 67.8653C474.71 67.38 474.547 66.9647 474.332 66.6193C474.117 66.2647 473.861 65.994 473.562 65.8073C473.263 65.6113 472.923 65.5133 472.54 65.5133C472.167 65.5133 471.826 65.6113 471.518 65.8073C471.219 65.994 470.963 66.2647 470.748 66.6193C470.533 66.9647 470.37 67.38 470.258 67.8653C470.146 68.3413 470.09 68.864 470.09 69.4333ZM468.9 69.4333C468.9 68.4533 469.054 67.5853 469.362 66.8293C469.67 66.0733 470.095 65.4807 470.636 65.0513C471.187 64.6127 471.821 64.3933 472.54 64.3933C473.259 64.3933 473.889 64.6127 474.43 65.0513C474.981 65.4807 475.41 66.0733 475.718 66.8293C476.026 67.5853 476.18 68.4533 476.18 69.4333C476.18 70.4133 476.026 71.2813 475.718 72.0373C475.41 72.7933 474.981 73.3907 474.43 73.8293C473.889 74.2587 473.259 74.4733 472.54 74.4733C471.821 74.4733 471.187 74.2587 470.636 73.8293C470.095 73.3907 469.67 72.7933 469.362 72.0373C469.054 71.2813 468.9 70.4133 468.9 69.4333ZM477.854 66.8993C477.854 66.4327 477.971 66.0127 478.204 65.6393C478.447 65.2567 478.769 64.9533 479.17 64.7293C479.581 64.5053 480.043 64.3933 480.556 64.3933C481.07 64.3933 481.527 64.5053 481.928 64.7293C482.339 64.9533 482.661 65.2567 482.894 65.6393C483.137 66.0127 483.258 66.4327 483.258 66.8993C483.258 67.282 483.193 67.6273 483.062 67.9353C482.932 68.234 482.745 68.4907 482.502 68.7053C482.269 68.92 481.984 69.0833 481.648 69.1953C481.322 69.3073 480.958 69.3633 480.556 69.3633C480.155 69.3633 479.786 69.3073 479.45 69.1953C479.124 69.0833 478.839 68.92 478.596 68.7053C478.363 68.4907 478.181 68.234 478.05 67.9353C477.92 67.6273 477.854 67.282 477.854 66.8993ZM478.988 67.0393C478.988 67.3473 479.058 67.618 479.198 67.8513C479.348 68.0847 479.539 68.2667 479.772 68.3973C480.015 68.528 480.276 68.5933 480.556 68.5933C480.836 68.5933 481.093 68.528 481.326 68.3973C481.569 68.2667 481.76 68.0847 481.9 67.8513C482.05 67.618 482.124 67.3473 482.124 67.0393C482.124 66.7313 482.054 66.456 481.914 66.2133C481.784 65.9707 481.602 65.784 481.368 65.6533C481.135 65.5133 480.864 65.4433 480.556 65.4433C480.258 65.4433 479.987 65.5133 479.744 65.6533C479.511 65.784 479.324 65.9707 479.184 66.2133C479.054 66.456 478.988 66.7313 478.988 67.0393ZM477.504 71.6733C477.504 71.2253 477.584 70.8287 477.742 70.4833C477.91 70.1287 478.134 69.8347 478.414 69.6013C478.704 69.3587 479.03 69.1767 479.394 69.0553C479.768 68.934 480.155 68.8733 480.556 68.8733C480.958 68.8733 481.34 68.934 481.704 69.0553C482.078 69.1767 482.404 69.3587 482.684 69.6013C482.974 69.8347 483.198 70.1287 483.356 70.4833C483.524 70.8287 483.608 71.2253 483.608 71.6733C483.608 72.056 483.529 72.4153 483.37 72.7513C483.221 73.0873 483.006 73.386 482.726 73.6473C482.456 73.9087 482.134 74.114 481.76 74.2633C481.396 74.4033 480.995 74.4733 480.556 74.4733C480.118 74.4733 479.712 74.4033 479.338 74.2633C478.974 74.114 478.652 73.9087 478.372 73.6473C478.102 73.386 477.887 73.0873 477.728 72.7513C477.579 72.4153 477.504 72.056 477.504 71.6733ZM478.638 71.5333C478.638 71.9347 478.727 72.2753 478.904 72.5553C479.091 72.8353 479.329 73.05 479.618 73.1993C479.917 73.3487 480.23 73.4233 480.556 73.4233C480.883 73.4233 481.191 73.3487 481.48 73.1993C481.779 73.05 482.017 72.8353 482.194 72.5553C482.381 72.2753 482.474 71.9347 482.474 71.5333C482.474 71.1787 482.381 70.8613 482.194 70.5813C482.017 70.292 481.779 70.0633 481.48 69.8953C481.191 69.7273 480.883 69.6433 480.556 69.6433C480.23 69.6433 479.917 69.7273 479.618 69.8953C479.329 70.0633 479.091 70.292 478.904 70.5813C478.727 70.8613 478.638 71.1787 478.638 71.5333Z" fill="white"/>
<path d="M1.82 97.4333C1.82 98.1893 1.988 98.8567 2.324 99.4353C2.66933 100.014 3.11733 100.467 3.668 100.793C4.21867 101.12 4.816 101.283 5.46 101.283C5.92667 101.283 6.35133 101.223 6.734 101.101C7.126 100.98 7.48067 100.812 7.798 100.597C8.11533 100.373 8.386 100.117 8.61 99.8273V101.395C8.19933 101.759 7.75133 102.03 7.266 102.207C6.78067 102.385 6.17867 102.473 5.46 102.473C4.77867 102.473 4.13933 102.352 3.542 102.109C2.954 101.857 2.436 101.507 1.988 101.059C1.54 100.602 1.19 100.065 0.938 99.4493C0.686 98.8333 0.56 98.1613 0.56 97.4333C0.56 96.7053 0.686 96.0333 0.938 95.4173C1.19 94.8013 1.54 94.2693 1.988 93.8213C2.436 93.364 2.954 93.014 3.542 92.7713C4.13933 92.5193 4.77867 92.3933 5.46 92.3933C6.17867 92.3933 6.78067 92.482 7.266 92.6593C7.75133 92.8367 8.19933 93.1073 8.61 93.4713V95.0393C8.386 94.75 8.11533 94.498 7.798 94.2833C7.48067 94.0593 7.126 93.8867 6.734 93.7653C6.35133 93.644 5.92667 93.5833 5.46 93.5833C4.816 93.5833 4.21867 93.7467 3.668 94.0733C3.11733 94.4 2.66933 94.8527 2.324 95.4313C1.988 96.0007 1.82 96.668 1.82 97.4333ZM11.292 98.9733H13.154C13.602 98.9733 14.0033 99.02 14.358 99.1133C14.7127 99.2067 14.9927 99.37 15.198 99.6033C15.4033 99.8367 15.506 100.163 15.506 100.583C15.506 101.069 15.3427 101.484 15.016 101.829C14.6987 102.165 14.1713 102.333 13.434 102.333H11.292V101.353H13.154C13.574 101.353 13.882 101.265 14.078 101.087C14.2833 100.91 14.386 100.695 14.386 100.443C14.386 100.313 14.358 100.196 14.302 100.093C14.2553 99.9907 14.1807 99.8973 14.078 99.8133C13.9847 99.7293 13.8587 99.6687 13.7 99.6313C13.5507 99.5847 13.3687 99.5613 13.154 99.5613H11.292V98.9733ZM11.292 99.2533V98.5953H13.014C13.182 98.5953 13.3313 98.5767 13.462 98.5393C13.602 98.4927 13.7187 98.4273 13.812 98.3433C13.9053 98.2593 13.9753 98.166 14.022 98.0633C14.078 97.9513 14.106 97.8347 14.106 97.7133C14.106 97.4613 14.008 97.2607 13.812 97.1113C13.616 96.9527 13.35 96.8733 13.014 96.8733H11.292V95.8933H13.014C13.4153 95.8933 13.7793 95.954 14.106 96.0753C14.442 96.1873 14.7127 96.374 14.918 96.6353C15.1233 96.8873 15.226 97.2233 15.226 97.6433C15.226 98.0073 15.1233 98.3107 14.918 98.5533C14.7127 98.7867 14.442 98.964 14.106 99.0853C13.7793 99.1973 13.4153 99.2533 13.014 99.2533H11.292ZM10.634 95.8933H11.754V102.333H10.634V95.8933ZM22.3677 97.0133L17.0477 102.823L17.1177 101.213L22.4377 95.4033L22.3677 97.0133ZM18.1677 95.8933V101.283L17.0477 102.823V95.8933H18.1677ZM22.4377 95.4033V102.333H21.3177V96.9433L22.4377 95.4033ZM28.1066 97.8253L26.2166 101.913H24.9566L28.1066 95.4033L31.2566 101.913H29.9966L28.1066 97.8253ZM30.9766 102.333H25.3066V103.593H24.1166V101.283H32.0966V103.593H30.9766V102.333ZM33.9345 99.3933V98.4413H38.2325C38.1951 98.1053 38.1018 97.8113 37.9525 97.5593C37.8125 97.298 37.6118 97.0973 37.3505 96.9573C37.0985 96.808 36.7858 96.7333 36.4125 96.7333C36.0391 96.7333 35.6985 96.8127 35.3905 96.9713C35.0825 97.13 34.8351 97.3587 34.6485 97.6573C34.4711 97.9467 34.3825 98.292 34.3825 98.6933L34.3545 99.1133C34.3545 99.608 34.4385 100.028 34.6065 100.373C34.7745 100.719 35.0125 100.98 35.3205 101.157C35.6285 101.335 35.9925 101.423 36.4125 101.423C36.7298 101.423 37.0098 101.377 37.2525 101.283C37.5045 101.181 37.7285 101.045 37.9245 100.877C38.1205 100.7 38.2885 100.495 38.4285 100.261L39.3385 100.835C39.1238 101.162 38.8858 101.451 38.6245 101.703C38.3631 101.946 38.0458 102.137 37.6725 102.277C37.2991 102.408 36.8325 102.473 36.2725 102.473C35.6938 102.473 35.1711 102.329 34.7045 102.039C34.2471 101.75 33.8831 101.353 33.6125 100.849C33.3511 100.336 33.2205 99.7573 33.2205 99.1133C33.2205 98.992 33.2251 98.8753 33.2345 98.7633C33.2438 98.6513 33.2578 98.5393 33.2765 98.4273C33.3698 97.8953 33.5565 97.4287 33.8365 97.0273C34.1165 96.626 34.4758 96.3133 34.9145 96.0893C35.3625 95.8653 35.8618 95.7533 36.4125 95.7533C37.0191 95.7533 37.5511 95.8887 38.0085 96.1593C38.4658 96.43 38.8205 96.8127 39.0725 97.3073C39.3245 97.7927 39.4505 98.376 39.4505 99.0573C39.4505 99.1133 39.4505 99.1693 39.4505 99.2253C39.4505 99.2813 39.4458 99.3373 39.4365 99.3933H33.9345ZM40.0055 95.8933H43.7855V96.9433H40.0055V95.8933ZM41.3355 96.1733H42.4555V102.333H41.3355V96.1733ZM44.8583 99.3933V98.4413H49.1563C49.119 98.1053 49.0256 97.8113 48.8763 97.5593C48.7363 97.298 48.5356 97.0973 48.2743 96.9573C48.0223 96.808 47.7096 96.7333 47.3363 96.7333C46.963 96.7333 46.6223 96.8127 46.3143 96.9713C46.0063 97.13 45.759 97.3587 45.5723 97.6573C45.395 97.9467 45.3063 98.292 45.3063 98.6933L45.2783 99.1133C45.2783 99.608 45.3623 100.028 45.5303 100.373C45.6983 100.719 45.9363 100.98 46.2443 101.157C46.5523 101.335 46.9163 101.423 47.3363 101.423C47.6536 101.423 47.9336 101.377 48.1763 101.283C48.4283 101.181 48.6523 101.045 48.8483 100.877C49.0443 100.7 49.2123 100.495 49.3523 100.261L50.2623 100.835C50.0476 101.162 49.8096 101.451 49.5483 101.703C49.287 101.946 48.9696 102.137 48.5963 102.277C48.223 102.408 47.7563 102.473 47.1963 102.473C46.6176 102.473 46.095 102.329 45.6283 102.039C45.171 101.75 44.807 101.353 44.5363 100.849C44.275 100.336 44.1443 99.7573 44.1443 99.1133C44.1443 98.992 44.149 98.8753 44.1583 98.7633C44.1676 98.6513 44.1816 98.5393 44.2003 98.4273C44.2936 97.8953 44.4803 97.4287 44.7603 97.0273C45.0403 96.626 45.3996 96.3133 45.8383 96.0893C46.2863 95.8653 46.7856 95.7533 47.3363 95.7533C47.943 95.7533 48.475 95.8887 48.9323 96.1593C49.3896 96.43 49.7443 96.8127 49.9963 97.3073C50.2483 97.7927 50.3743 98.376 50.3743 99.0573C50.3743 99.1133 50.3743 99.1693 50.3743 99.2253C50.3743 99.2813 50.3696 99.3373 50.3603 99.3933H44.8583ZM57.5514 95.8933V102.333H56.4314V96.9433H53.1414V100.093C53.1414 100.597 53.062 101.017 52.9034 101.353C52.754 101.68 52.5207 101.927 52.2034 102.095C51.886 102.254 51.4847 102.333 50.9994 102.333V101.311C51.2794 101.311 51.5174 101.223 51.7134 101.045C51.9187 100.868 52.0214 100.551 52.0214 100.093V95.8933H57.5514ZM59.716 95.8933H60.836V102.333H59.716V95.8933ZM60.374 99.3093V98.3293H62.376C63.0387 98.3293 63.594 98.4927 64.042 98.8193C64.4993 99.1367 64.728 99.6407 64.728 100.331C64.728 100.789 64.6253 101.167 64.42 101.465C64.2147 101.764 63.9347 101.983 63.58 102.123C63.2253 102.263 62.824 102.333 62.376 102.333H60.374V101.353H62.376C62.6467 101.353 62.8707 101.316 63.048 101.241C63.2347 101.157 63.3747 101.041 63.468 100.891C63.5613 100.733 63.608 100.546 63.608 100.331C63.608 100.005 63.5053 99.7527 63.3 99.5753C63.0947 99.398 62.7867 99.3093 62.376 99.3093H60.374ZM66.9876 99.1133C66.9876 99.5613 67.0809 99.958 67.2676 100.303C67.4636 100.649 67.7249 100.924 68.0516 101.129C68.3876 101.325 68.7656 101.423 69.1856 101.423C69.5309 101.423 69.8529 101.372 70.1516 101.269C70.4596 101.157 70.7256 101.013 70.9496 100.835C71.1736 100.649 71.3323 100.453 71.4256 100.247V101.647C71.2016 101.909 70.8796 102.114 70.4596 102.263C70.0489 102.403 69.6243 102.473 69.1856 102.473C68.5603 102.473 67.9956 102.329 67.4916 102.039C66.9876 101.75 66.5863 101.353 66.2876 100.849C65.9983 100.336 65.8536 99.7573 65.8536 99.1133C65.8536 98.46 65.9983 97.8813 66.2876 97.3773C66.5863 96.8733 66.9876 96.4767 67.4916 96.1873C67.9956 95.898 68.5603 95.7533 69.1856 95.7533C69.6243 95.7533 70.0489 95.828 70.4596 95.9773C70.8796 96.1173 71.2016 96.318 71.4256 96.5793V97.9793C71.3323 97.7647 71.1736 97.5687 70.9496 97.3913C70.7256 97.214 70.4596 97.074 70.1516 96.9713C69.8529 96.8593 69.5309 96.8033 69.1856 96.8033C68.7656 96.8033 68.3876 96.9013 68.0516 97.0973C67.7249 97.2933 67.4636 97.5687 67.2676 97.9233C67.0809 98.2687 66.9876 98.6653 66.9876 99.1133ZM72.1891 95.8933H75.9691V96.9433H72.1891V95.8933ZM73.5191 96.1733H74.6391V102.333H73.5191V96.1733ZM77.751 98.9733H79.613C80.061 98.9733 80.4623 99.02 80.817 99.1133C81.1716 99.2067 81.4516 99.37 81.657 99.6033C81.8623 99.8367 81.965 100.163 81.965 100.583C81.965 101.069 81.8016 101.484 81.475 101.829C81.1576 102.165 80.6303 102.333 79.893 102.333H77.751V101.353H79.613C80.033 101.353 80.341 101.265 80.537 101.087C80.7423 100.91 80.845 100.695 80.845 100.443C80.845 100.313 80.817 100.196 80.761 100.093C80.7143 99.9907 80.6396 99.8973 80.537 99.8133C80.4436 99.7293 80.3176 99.6687 80.159 99.6313C80.0096 99.5847 79.8276 99.5613 79.613 99.5613H77.751V98.9733ZM77.751 99.2533V98.5953H79.473C79.641 98.5953 79.7903 98.5767 79.921 98.5393C80.061 98.4927 80.1776 98.4273 80.271 98.3433C80.3643 98.2593 80.4343 98.166 80.481 98.0633C80.537 97.9513 80.565 97.8347 80.565 97.7133C80.565 97.4613 80.467 97.2607 80.271 97.1113C80.075 96.9527 79.809 96.8733 79.473 96.8733H77.751V95.8933H79.473C79.8743 95.8933 80.2383 95.954 80.565 96.0753C80.901 96.1873 81.1716 96.374 81.377 96.6353C81.5823 96.8873 81.685 97.2233 81.685 97.6433C81.685 98.0073 81.5823 98.3107 81.377 98.5533C81.1716 98.7867 80.901 98.964 80.565 99.0853C80.2383 99.1973 79.8743 99.2533 79.473 99.2533H77.751ZM77.093 95.8933H78.213V102.333H77.093V95.8933ZM82.8767 99.1133C82.8767 98.46 83.0214 97.8813 83.3107 97.3773C83.6094 96.8733 84.0107 96.4767 84.5147 96.1873C85.0187 95.898 85.5834 95.7533 86.2087 95.7533C86.8434 95.7533 87.4081 95.898 87.9027 96.1873C88.4067 96.4767 88.8034 96.8733 89.0927 97.3773C89.3914 97.8813 89.5407 98.46 89.5407 99.1133C89.5407 99.7573 89.3914 100.336 89.0927 100.849C88.8034 101.353 88.4067 101.75 87.9027 102.039C87.4081 102.329 86.8434 102.473 86.2087 102.473C85.5834 102.473 85.0187 102.329 84.5147 102.039C84.0107 101.75 83.6094 101.353 83.3107 100.849C83.0214 100.336 82.8767 99.7573 82.8767 99.1133ZM84.0107 99.1133C84.0107 99.5613 84.1041 99.958 84.2907 100.303C84.4867 100.649 84.7481 100.924 85.0747 101.129C85.4107 101.325 85.7887 101.423 86.2087 101.423C86.6287 101.423 87.0021 101.325 87.3287 101.129C87.6647 100.924 87.9261 100.649 88.1127 100.303C88.3087 99.958 88.4067 99.5613 88.4067 99.1133C88.4067 98.6653 88.3087 98.2687 88.1127 97.9233C87.9261 97.5687 87.6647 97.2933 87.3287 97.0973C87.0021 96.9013 86.6287 96.8033 86.2087 96.8033C85.7887 96.8033 85.4107 96.9013 85.0747 97.0973C84.7481 97.2933 84.4867 97.5687 84.2907 97.9233C84.1041 98.2687 84.0107 98.6653 84.0107 99.1133ZM91.3593 101.773C91.3593 101.559 91.434 101.377 91.5833 101.227C91.742 101.078 91.924 101.003 92.1293 101.003C92.344 101.003 92.526 101.078 92.6753 101.227C92.8246 101.377 92.8993 101.559 92.8993 101.773C92.8993 101.979 92.8246 102.161 92.6753 102.319C92.526 102.469 92.344 102.543 92.1293 102.543C91.924 102.543 91.742 102.469 91.5833 102.319C91.434 102.161 91.3593 101.979 91.3593 101.773ZM91.3593 96.4533C91.3593 96.2387 91.434 96.0567 91.5833 95.9073C91.742 95.758 91.924 95.6833 92.1293 95.6833C92.344 95.6833 92.526 95.758 92.6753 95.9073C92.8246 96.0567 92.8993 96.2387 92.8993 96.4533C92.8993 96.6587 92.8246 96.8407 92.6753 96.9993C92.526 97.1487 92.344 97.2233 92.1293 97.2233C91.924 97.2233 91.742 97.1487 91.5833 96.9993C91.434 96.8407 91.3593 96.6587 91.3593 96.4533Z" fill="#979797"/>
<path d="M429.05 96.1733V95.2633H435.98V96.1733H434.02H433.824H431.136H430.94H429.05ZM428.49 99.5333V98.6233H430.324H430.548H433.348H433.628H435.42V99.5333H428.49ZM434.37 92.5333H435.42L433.04 102.333H431.99L432.76 99.1413L432.83 98.8893L433.558 95.8653L433.614 95.6413L434.37 92.5333ZM431.43 92.5333H432.48L431.738 95.5853L431.682 95.8093L430.926 98.9173L430.87 99.1693L430.1 102.333H429.05L431.43 92.5333ZM438.227 97.4333C438.227 98.0027 438.283 98.53 438.395 99.0153C438.507 99.4913 438.67 99.9067 438.885 100.261C439.099 100.607 439.356 100.877 439.655 101.073C439.963 101.26 440.303 101.353 440.677 101.353C441.059 101.353 441.4 101.26 441.699 101.073C441.997 100.877 442.254 100.607 442.469 100.261C442.683 99.9067 442.847 99.4913 442.959 99.0153C443.071 98.53 443.127 98.0027 443.127 97.4333C443.127 96.864 443.071 96.3413 442.959 95.8653C442.847 95.38 442.683 94.9647 442.469 94.6193C442.254 94.2647 441.997 93.994 441.699 93.8073C441.4 93.6113 441.059 93.5133 440.677 93.5133C440.303 93.5133 439.963 93.6113 439.655 93.8073C439.356 93.994 439.099 94.2647 438.885 94.6193C438.67 94.9647 438.507 95.38 438.395 95.8653C438.283 96.3413 438.227 96.864 438.227 97.4333ZM437.037 97.4333C437.037 96.4533 437.191 95.5853 437.499 94.8293C437.807 94.0733 438.231 93.4807 438.773 93.0513C439.323 92.6127 439.958 92.3933 440.677 92.3933C441.395 92.3933 442.025 92.6127 442.567 93.0513C443.117 93.4807 443.547 94.0733 443.855 94.8293C444.163 95.5853 444.317 96.4533 444.317 97.4333C444.317 98.4133 444.163 99.2813 443.855 100.037C443.547 100.793 443.117 101.391 442.567 101.829C442.025 102.259 441.395 102.473 440.677 102.473C439.958 102.473 439.323 102.259 438.773 101.829C438.231 101.391 437.807 100.793 437.499 100.037C437.191 99.2813 437.037 98.4133 437.037 97.4333ZM446.621 97.4333C446.621 98.0027 446.677 98.53 446.789 99.0153C446.901 99.4913 447.064 99.9067 447.279 100.261C447.494 100.607 447.75 100.877 448.049 101.073C448.357 101.26 448.698 101.353 449.071 101.353C449.454 101.353 449.794 101.26 450.093 101.073C450.392 100.877 450.648 100.607 450.863 100.261C451.078 99.9067 451.241 99.4913 451.353 99.0153C451.465 98.53 451.521 98.0027 451.521 97.4333C451.521 96.864 451.465 96.3413 451.353 95.8653C451.241 95.38 451.078 94.9647 450.863 94.6193C450.648 94.2647 450.392 93.994 450.093 93.8073C449.794 93.6113 449.454 93.5133 449.071 93.5133C448.698 93.5133 448.357 93.6113 448.049 93.8073C447.75 93.994 447.494 94.2647 447.279 94.6193C447.064 94.9647 446.901 95.38 446.789 95.8653C446.677 96.3413 446.621 96.864 446.621 97.4333ZM445.431 97.4333C445.431 96.4533 445.585 95.5853 445.893 94.8293C446.201 94.0733 446.626 93.4807 447.167 93.0513C447.718 92.6127 448.352 92.3933 449.071 92.3933C449.79 92.3933 450.42 92.6127 450.961 93.0513C451.512 93.4807 451.941 94.0733 452.249 94.8293C452.557 95.5853 452.711 96.4533 452.711 97.4333C452.711 98.4133 452.557 99.2813 452.249 100.037C451.941 100.793 451.512 101.391 450.961 101.829C450.42 102.259 449.79 102.473 449.071 102.473C448.352 102.473 447.718 102.259 447.167 101.829C446.626 101.391 446.201 100.793 445.893 100.037C445.585 99.2813 445.431 98.4133 445.431 97.4333ZM455.016 97.4333C455.016 98.0027 455.072 98.53 455.184 99.0153C455.296 99.4913 455.459 99.9067 455.674 100.261C455.888 100.607 456.145 100.877 456.444 101.073C456.752 101.26 457.092 101.353 457.466 101.353C457.848 101.353 458.189 101.26 458.488 101.073C458.786 100.877 459.043 100.607 459.258 100.261C459.472 99.9067 459.636 99.4913 459.748 99.0153C459.86 98.53 459.916 98.0027 459.916 97.4333C459.916 96.864 459.86 96.3413 459.748 95.8653C459.636 95.38 459.472 94.9647 459.258 94.6193C459.043 94.2647 458.786 93.994 458.488 93.8073C458.189 93.6113 457.848 93.5133 457.466 93.5133C457.092 93.5133 456.752 93.6113 456.444 93.8073C456.145 93.994 455.888 94.2647 455.674 94.6193C455.459 94.9647 455.296 95.38 455.184 95.8653C455.072 96.3413 455.016 96.864 455.016 97.4333ZM453.826 97.4333C453.826 96.4533 453.98 95.5853 454.288 94.8293C454.596 94.0733 455.02 93.4807 455.562 93.0513C456.112 92.6127 456.747 92.3933 457.466 92.3933C458.184 92.3933 458.814 92.6127 459.356 93.0513C459.906 93.4807 460.336 94.0733 460.644 94.8293C460.952 95.5853 461.106 96.4533 461.106 97.4333C461.106 98.4133 460.952 99.2813 460.644 100.037C460.336 100.793 459.906 101.391 459.356 101.829C458.814 102.259 458.184 102.473 457.466 102.473C456.747 102.473 456.112 102.259 455.562 101.829C455.02 101.391 454.596 100.793 454.288 100.037C453.98 99.2813 453.826 98.4133 453.826 97.4333ZM462.08 93.6533V92.5333H468.94L464.25 102.333H463.004L467.162 93.6533H462.08ZM476.352 99.1133C476.352 99.6733 476.263 100.163 476.086 100.583C475.908 101.003 475.661 101.353 475.344 101.633C475.026 101.913 474.662 102.123 474.252 102.263C473.841 102.403 473.398 102.473 472.922 102.473C472.324 102.473 471.802 102.38 471.354 102.193C470.915 102.007 470.537 101.759 470.22 101.451C469.912 101.134 469.65 100.789 469.436 100.415L470.444 99.7293C470.593 100.009 470.789 100.275 471.032 100.527C471.284 100.77 471.573 100.971 471.9 101.129C472.226 101.279 472.567 101.353 472.922 101.353C473.388 101.353 473.785 101.26 474.112 101.073C474.438 100.887 474.686 100.625 474.854 100.289C475.031 99.9533 475.12 99.5613 475.12 99.1133C475.12 98.6653 475.022 98.2733 474.826 97.9373C474.639 97.6013 474.378 97.34 474.042 97.1533C473.715 96.9667 473.342 96.8733 472.922 96.8733C472.614 96.8733 472.329 96.9013 472.068 96.9573C471.816 97.004 471.559 97.0927 471.298 97.2233C471.046 97.3447 470.752 97.522 470.416 97.7553L471.704 92.5333H476.324V93.5833H472.628L471.97 96.1733C472.203 96.052 472.441 95.9633 472.684 95.9073C472.936 95.842 473.183 95.8093 473.426 95.8093C473.986 95.8093 474.485 95.9493 474.924 96.2293C475.372 96.5093 475.722 96.8967 475.974 97.3913C476.226 97.886 476.352 98.46 476.352 99.1133ZM478.038 94.8993C478.038 94.4327 478.155 94.0127 478.388 93.6393C478.631 93.2567 478.953 92.9533 479.354 92.7293C479.765 92.5053 480.227 92.3933 480.74 92.3933C481.253 92.3933 481.711 92.5053 482.112 92.7293C482.523 92.9533 482.845 93.2567 483.078 93.6393C483.321 94.0127 483.442 94.4327 483.442 94.8993C483.442 95.282 483.377 95.6273 483.246 95.9353C483.115 96.234 482.929 96.4907 482.686 96.7053C482.453 96.92 482.168 97.0833 481.832 97.1953C481.505 97.3073 481.141 97.3633 480.74 97.3633C480.339 97.3633 479.97 97.3073 479.634 97.1953C479.307 97.0833 479.023 96.92 478.78 96.7053C478.547 96.4907 478.365 96.234 478.234 95.9353C478.103 95.6273 478.038 95.282 478.038 94.8993ZM479.172 95.0393C479.172 95.3473 479.242 95.618 479.382 95.8513C479.531 96.0847 479.723 96.2667 479.956 96.3973C480.199 96.528 480.46 96.5933 480.74 96.5933C481.02 96.5933 481.277 96.528 481.51 96.3973C481.753 96.2667 481.944 96.0847 482.084 95.8513C482.233 95.618 482.308 95.3473 482.308 95.0393C482.308 94.7313 482.238 94.456 482.098 94.2133C481.967 93.9707 481.785 93.784 481.552 93.6533C481.319 93.5133 481.048 93.4433 480.74 93.4433C480.441 93.4433 480.171 93.5133 479.928 93.6533C479.695 93.784 479.508 93.9707 479.368 94.2133C479.237 94.456 479.172 94.7313 479.172 95.0393ZM477.688 99.6733C477.688 99.2253 477.767 98.8287 477.926 98.4833C478.094 98.1287 478.318 97.8347 478.598 97.6013C478.887 97.3587 479.214 97.1767 479.578 97.0553C479.951 96.934 480.339 96.8733 480.74 96.8733C481.141 96.8733 481.524 96.934 481.888 97.0553C482.261 97.1767 482.588 97.3587 482.868 97.6013C483.157 97.8347 483.381 98.1287 483.54 98.4833C483.708 98.8287 483.792 99.2253 483.792 99.6733C483.792 100.056 483.713 100.415 483.554 100.751C483.405 101.087 483.19 101.386 482.91 101.647C482.639 101.909 482.317 102.114 481.944 102.263C481.58 102.403 481.179 102.473 480.74 102.473C480.301 102.473 479.895 102.403 479.522 102.263C479.158 102.114 478.836 101.909 478.556 101.647C478.285 101.386 478.071 101.087 477.912 100.751C477.763 100.415 477.688 100.056 477.688 99.6733ZM478.822 99.5333C478.822 99.9347 478.911 100.275 479.088 100.555C479.275 100.835 479.513 101.05 479.802 101.199C480.101 101.349 480.413 101.423 480.74 101.423C481.067 101.423 481.375 101.349 481.664 101.199C481.963 101.05 482.201 100.835 482.378 100.555C482.565 100.275 482.658 99.9347 482.658 99.5333C482.658 99.1787 482.565 98.8613 482.378 98.5813C482.201 98.292 481.963 98.0633 481.664 97.8953C481.375 97.7273 481.067 97.6433 480.74 97.6433C480.413 97.6433 480.101 97.7273 479.802 97.8953C479.513 98.0633 479.275 98.292 479.088 98.5813C478.911 98.8613 478.822 99.1787 478.822 99.5333Z" fill="white"/>
</svg>
