<svg width="117" height="19" viewBox="0 0 117 19" fill="none" xmlns="http://www.w3.org/2000/svg">
<path d="M0.936 1.008C1.304 1.024 1.776 1.04 2.352 1.056C2.944 1.072 3.528 1.08 4.104 1.08C4.872 1.08 5.6 1.072 6.288 1.056C6.992 1.04 7.488 1.032 7.776 1.032C9.136 1.032 10.264 1.208 11.16 1.56C12.072 1.912 12.744 2.408 13.176 3.048C13.624 3.672 13.848 4.392 13.848 5.208C13.848 5.704 13.744 6.232 13.536 6.792C13.344 7.336 13 7.848 12.504 8.328C12.008 8.792 11.336 9.176 10.488 9.48C9.64 9.784 8.56 9.936 7.248 9.936H4.944V9.456H7.008C8.08 9.456 8.896 9.28 9.456 8.928C10.032 8.56 10.416 8.08 10.608 7.488C10.816 6.88 10.92 6.208 10.92 5.472C10.92 4.208 10.648 3.232 10.104 2.544C9.56 1.84 8.616 1.488 7.272 1.488C6.584 1.488 6.128 1.624 5.904 1.896C5.696 2.168 5.592 2.72 5.592 3.552V15.456C5.592 16.032 5.64 16.464 5.736 16.752C5.832 17.04 6.016 17.232 6.288 17.328C6.56 17.424 6.96 17.488 7.488 17.52V18C7.104 17.968 6.616 17.952 6.024 17.952C5.448 17.936 4.856 17.928 4.248 17.928C3.576 17.928 2.944 17.936 2.352 17.952C1.776 17.952 1.304 17.968 0.936 18V17.52C1.48 17.488 1.888 17.424 2.16 17.328C2.432 17.232 2.608 17.04 2.688 16.752C2.784 16.464 2.832 16.032 2.832 15.456V3.552C2.832 2.96 2.784 2.528 2.688 2.256C2.608 1.968 2.424 1.776 2.136 1.68C1.864 1.568 1.464 1.504 0.936 1.488V1.008ZM4.992 9.528C5.808 9.56 6.464 9.6 6.96 9.648C7.456 9.68 7.872 9.712 8.208 9.744C8.544 9.776 8.856 9.816 9.144 9.864C10.344 10.024 11.216 10.344 11.76 10.824C12.32 11.304 12.704 12.04 12.912 13.032L13.512 15.48C13.656 16.168 13.808 16.656 13.968 16.944C14.144 17.232 14.4 17.376 14.736 17.376C14.992 17.36 15.2 17.288 15.36 17.16C15.536 17.016 15.72 16.824 15.912 16.584L16.248 16.848C15.88 17.344 15.496 17.72 15.096 17.976C14.696 18.216 14.16 18.336 13.488 18.336C12.8 18.336 12.208 18.16 11.712 17.808C11.232 17.44 10.888 16.752 10.68 15.744L10.2 13.344C10.056 12.656 9.896 12.064 9.72 11.568C9.544 11.056 9.296 10.656 8.976 10.368C8.672 10.08 8.224 9.936 7.632 9.936H5.04L4.992 9.528ZM29.1141 1.008C29.0501 1.616 29.0021 2.208 28.9701 2.784C28.9541 3.344 28.9461 3.776 28.9461 4.08C28.9461 4.384 28.9541 4.672 28.9701 4.944C28.9861 5.216 29.0021 5.44 29.0181 5.616H28.4661C28.3541 4.592 28.1781 3.784 27.9381 3.192C27.7141 2.6 27.3701 2.184 26.9061 1.944C26.4581 1.688 25.8261 1.56 25.0101 1.56H23.3541C22.8421 1.56 22.4501 1.608 22.1781 1.704C21.9221 1.784 21.7461 1.96 21.6501 2.232C21.5541 2.488 21.5061 2.896 21.5061 3.456V15.552C21.5061 16.096 21.5541 16.504 21.6501 16.776C21.7461 17.048 21.9221 17.232 22.1781 17.328C22.4501 17.408 22.8421 17.448 23.3541 17.448H24.9141C25.8261 17.448 26.5461 17.304 27.0741 17.016C27.6181 16.728 28.0261 16.256 28.2981 15.6C28.5861 14.944 28.8021 14.048 28.9461 12.912H29.4981C29.4501 13.376 29.4261 13.984 29.4261 14.736C29.4261 15.056 29.4341 15.52 29.4501 16.128C29.4821 16.736 29.5301 17.36 29.5941 18C28.7781 17.968 27.8581 17.952 26.8341 17.952C25.8101 17.936 24.8981 17.928 24.0981 17.928C23.7301 17.928 23.2581 17.928 22.6821 17.928C22.1061 17.928 21.4821 17.936 20.8101 17.952C20.1541 17.952 19.4821 17.96 18.7941 17.976C18.1221 17.976 17.4741 17.984 16.8501 18V17.52C17.3941 17.488 17.8021 17.424 18.0741 17.328C18.3461 17.232 18.5221 17.04 18.6021 16.752C18.6981 16.464 18.7461 16.032 18.7461 15.456V3.552C18.7461 2.96 18.6981 2.528 18.6021 2.256C18.5221 1.968 18.3381 1.776 18.0501 1.68C17.7781 1.568 17.3781 1.504 16.8501 1.488V1.008C17.4741 1.024 18.1221 1.04 18.7941 1.056C19.4821 1.056 20.1541 1.064 20.8101 1.08C21.4821 1.08 22.1061 1.08 22.6821 1.08C23.2581 1.08 23.7301 1.08 24.0981 1.08C24.8341 1.08 25.6661 1.08 26.5941 1.08C27.5381 1.064 28.3781 1.04 29.1141 1.008ZM25.1301 9.216C25.1301 9.216 25.1301 9.296 25.1301 9.456C25.1301 9.616 25.1301 9.696 25.1301 9.696H20.7861C20.7861 9.696 20.7861 9.616 20.7861 9.456C20.7861 9.296 20.7861 9.216 20.7861 9.216H25.1301ZM25.8261 6.048C25.7621 6.96 25.7301 7.656 25.7301 8.136C25.7461 8.616 25.7541 9.056 25.7541 9.456C25.7541 9.856 25.7621 10.296 25.7781 10.776C25.7941 11.256 25.8341 11.952 25.8981 12.864H25.3461C25.2661 12.336 25.1621 11.832 25.0341 11.352C24.9061 10.856 24.6741 10.456 24.3381 10.152C24.0181 9.848 23.5141 9.696 22.8261 9.696V9.216C23.3381 9.216 23.7381 9.112 24.0261 8.904C24.3301 8.696 24.5621 8.424 24.7221 8.088C24.8821 7.752 24.9941 7.408 25.0581 7.056C25.1381 6.688 25.2101 6.352 25.2741 6.048H25.8261ZM37.0866 0.719999C37.9346 0.719999 38.5826 0.816 39.0306 1.008C39.4786 1.2 39.8706 1.408 40.2066 1.632C40.3986 1.744 40.5506 1.832 40.6626 1.896C40.7906 1.944 40.9106 1.968 41.0226 1.968C41.1826 1.968 41.2946 1.88 41.3586 1.704C41.4386 1.528 41.5026 1.264 41.5506 0.912H42.1026C42.0866 1.2 42.0626 1.544 42.0306 1.944C42.0146 2.328 41.9986 2.84 41.9826 3.48C41.9826 4.12 41.9826 4.96 41.9826 6H41.4306C41.3826 5.216 41.2066 4.456 40.9026 3.72C40.6146 2.984 40.1826 2.384 39.6066 1.92C39.0466 1.456 38.3266 1.224 37.4466 1.224C36.6306 1.224 35.9506 1.472 35.4066 1.968C34.8786 2.448 34.6146 3.088 34.6146 3.888C34.6146 4.592 34.7906 5.184 35.1426 5.664C35.4946 6.128 35.9746 6.568 36.5826 6.984C37.2066 7.384 37.9106 7.832 38.6946 8.328C39.4946 8.84 40.2146 9.352 40.8546 9.864C41.4946 10.36 41.9986 10.912 42.3666 11.52C42.7346 12.128 42.9186 12.864 42.9186 13.728C42.9186 14.768 42.6706 15.632 42.1746 16.32C41.6946 16.992 41.0466 17.496 40.2306 17.832C39.4146 18.168 38.5186 18.336 37.5426 18.336C36.6466 18.336 35.9346 18.24 35.4066 18.048C34.8786 17.856 34.4306 17.656 34.0626 17.448C33.7106 17.224 33.4386 17.112 33.2466 17.112C33.0866 17.112 32.9666 17.2 32.8866 17.376C32.8226 17.552 32.7666 17.816 32.7186 18.168H32.1666C32.1986 17.816 32.2146 17.408 32.2146 16.944C32.2306 16.464 32.2386 15.84 32.2386 15.072C32.2546 14.304 32.2626 13.336 32.2626 12.168H32.8146C32.8786 13.16 33.0546 14.088 33.3426 14.952C33.6466 15.816 34.1026 16.512 34.7106 17.04C35.3346 17.552 36.1586 17.808 37.1826 17.808C37.7266 17.808 38.2306 17.704 38.6946 17.496C39.1586 17.288 39.5346 16.96 39.8226 16.512C40.1106 16.064 40.2546 15.488 40.2546 14.784C40.2546 14.128 40.0946 13.552 39.7746 13.056C39.4706 12.56 39.0386 12.104 38.4786 11.688C37.9346 11.256 37.2946 10.816 36.5586 10.368C35.8066 9.888 35.1026 9.408 34.4466 8.928C33.7906 8.448 33.2626 7.888 32.8626 7.248C32.4786 6.608 32.2866 5.848 32.2866 4.968C32.2866 3.992 32.5106 3.192 32.9586 2.568C33.4226 1.944 34.0146 1.48 34.7346 1.176C35.4706 0.871999 36.2546 0.719999 37.0866 0.719999ZM51.5271 1.008V1.488C50.9991 1.504 50.5991 1.568 50.3271 1.68C50.0551 1.776 49.8711 1.968 49.7751 2.256C49.6791 2.528 49.6311 2.96 49.6311 3.552V15.456C49.6311 16.032 49.6791 16.464 49.7751 16.752C49.8711 17.04 50.0551 17.232 50.3271 17.328C50.5991 17.424 50.9991 17.488 51.5271 17.52V18C51.1431 17.968 50.6551 17.952 50.0631 17.952C49.4871 17.936 48.8951 17.928 48.2871 17.928C47.6151 17.928 46.9831 17.936 46.3911 17.952C45.8151 17.952 45.3431 17.968 44.9751 18V17.52C45.5191 17.488 45.9271 17.424 46.1991 17.328C46.4711 17.232 46.6471 17.04 46.7271 16.752C46.8231 16.464 46.8711 16.032 46.8711 15.456V3.552C46.8711 2.96 46.8231 2.528 46.7271 2.256C46.6471 1.968 46.4631 1.776 46.1751 1.68C45.9031 1.568 45.5031 1.504 44.9751 1.488V1.008C45.3431 1.024 45.8151 1.04 46.3911 1.056C46.9831 1.072 47.6151 1.08 48.2871 1.08C48.8951 1.08 49.4871 1.072 50.0631 1.056C50.6551 1.04 51.1431 1.024 51.5271 1.008ZM60.2291 1.008C63.1891 1.008 65.3891 1.728 66.8291 3.168C68.2691 4.592 68.9891 6.64 68.9891 9.312C68.9891 11.056 68.6371 12.584 67.9331 13.896C67.2291 15.192 66.2051 16.2 64.8611 16.92C63.5331 17.64 61.9171 18 60.0131 18C59.7731 18 59.4451 17.992 59.0291 17.976C58.6291 17.96 58.2131 17.952 57.7811 17.952C57.3491 17.936 56.9571 17.928 56.6051 17.928C55.9971 17.928 55.3971 17.936 54.8051 17.952C54.2291 17.952 53.7571 17.968 53.3891 18V17.52C53.9331 17.488 54.3411 17.424 54.6131 17.328C54.8851 17.232 55.0611 17.04 55.1411 16.752C55.2371 16.464 55.2851 16.032 55.2851 15.456V3.552C55.2851 2.96 55.2371 2.528 55.1411 2.256C55.0611 1.968 54.8771 1.776 54.5891 1.68C54.3171 1.568 53.9171 1.504 53.3891 1.488V1.008C53.7571 1.024 54.2291 1.048 54.8051 1.08C55.3971 1.096 55.9811 1.096 56.5571 1.08C57.1331 1.064 57.7731 1.048 58.4771 1.032C59.1971 1.016 59.7811 1.008 60.2291 1.008ZM59.8211 1.44C59.0851 1.44 58.6051 1.576 58.3811 1.848C58.1571 2.12 58.0451 2.672 58.0451 3.504V15.504C58.0451 16.336 58.1571 16.888 58.3811 17.16C58.6211 17.432 59.1091 17.568 59.8451 17.568C61.4611 17.568 62.7171 17.256 63.6131 16.632C64.5091 15.992 65.1411 15.064 65.5091 13.848C65.8771 12.632 66.0611 11.152 66.0611 9.408C66.0611 7.616 65.8611 6.136 65.4611 4.968C65.0611 3.784 64.4051 2.904 63.4931 2.328C62.5971 1.736 61.3731 1.44 59.8211 1.44ZM83.2313 1.008C83.1673 1.616 83.1193 2.208 83.0873 2.784C83.0713 3.344 83.0633 3.776 83.0633 4.08C83.0633 4.384 83.0713 4.672 83.0873 4.944C83.1033 5.216 83.1193 5.44 83.1353 5.616H82.5833C82.4713 4.592 82.2953 3.784 82.0553 3.192C81.8313 2.6 81.4873 2.184 81.0233 1.944C80.5753 1.688 79.9433 1.56 79.1273 1.56H77.4713C76.9593 1.56 76.5673 1.608 76.2953 1.704C76.0393 1.784 75.8633 1.96 75.7673 2.232C75.6713 2.488 75.6233 2.896 75.6233 3.456V15.552C75.6233 16.096 75.6713 16.504 75.7673 16.776C75.8633 17.048 76.0393 17.232 76.2953 17.328C76.5673 17.408 76.9593 17.448 77.4713 17.448H79.0313C79.9433 17.448 80.6633 17.304 81.1913 17.016C81.7353 16.728 82.1433 16.256 82.4153 15.6C82.7033 14.944 82.9193 14.048 83.0633 12.912H83.6153C83.5673 13.376 83.5433 13.984 83.5433 14.736C83.5433 15.056 83.5513 15.52 83.5673 16.128C83.5993 16.736 83.6473 17.36 83.7113 18C82.8953 17.968 81.9753 17.952 80.9513 17.952C79.9273 17.936 79.0153 17.928 78.2153 17.928C77.8473 17.928 77.3753 17.928 76.7993 17.928C76.2233 17.928 75.5993 17.936 74.9273 17.952C74.2713 17.952 73.5993 17.96 72.9113 17.976C72.2393 17.976 71.5913 17.984 70.9673 18V17.52C71.5113 17.488 71.9193 17.424 72.1913 17.328C72.4633 17.232 72.6393 17.04 72.7193 16.752C72.8153 16.464 72.8633 16.032 72.8633 15.456V3.552C72.8633 2.96 72.8153 2.528 72.7193 2.256C72.6393 1.968 72.4553 1.776 72.1673 1.68C71.8953 1.568 71.4953 1.504 70.9673 1.488V1.008C71.5913 1.024 72.2393 1.04 72.9113 1.056C73.5993 1.056 74.2713 1.064 74.9273 1.08C75.5993 1.08 76.2233 1.08 76.7993 1.08C77.3753 1.08 77.8473 1.08 78.2153 1.08C78.9513 1.08 79.7833 1.08 80.7113 1.08C81.6553 1.064 82.4953 1.04 83.2313 1.008ZM79.2473 9.216C79.2473 9.216 79.2473 9.296 79.2473 9.456C79.2473 9.616 79.2473 9.696 79.2473 9.696H74.9033C74.9033 9.696 74.9033 9.616 74.9033 9.456C74.9033 9.296 74.9033 9.216 74.9033 9.216H79.2473ZM79.9433 6.048C79.8793 6.96 79.8473 7.656 79.8473 8.136C79.8633 8.616 79.8713 9.056 79.8713 9.456C79.8713 9.856 79.8793 10.296 79.8953 10.776C79.9113 11.256 79.9513 11.952 80.0153 12.864H79.4633C79.3833 12.336 79.2793 11.832 79.1513 11.352C79.0233 10.856 78.7913 10.456 78.4553 10.152C78.1353 9.848 77.6313 9.696 76.9433 9.696V9.216C77.4553 9.216 77.8553 9.112 78.1433 8.904C78.4473 8.696 78.6793 8.424 78.8393 8.088C78.9993 7.752 79.1113 7.408 79.1753 7.056C79.2553 6.688 79.3273 6.352 79.3913 6.048H79.9433ZM101.116 1.008V1.488C100.572 1.52 100.164 1.616 99.8918 1.776C99.6198 1.936 99.4358 2.2 99.3398 2.568C99.2598 2.92 99.2198 3.424 99.2198 4.08V18.096C99.0918 18.096 98.9638 18.096 98.8358 18.096C98.7078 18.096 98.5718 18.096 98.4278 18.096L88.2518 3.312V14.832C88.2518 15.504 88.2998 16.032 88.3958 16.416C88.4918 16.784 88.6998 17.048 89.0198 17.208C89.3398 17.368 89.8278 17.472 90.4838 17.52V18C90.1798 17.968 89.7878 17.952 89.3078 17.952C88.8438 17.936 88.4038 17.928 87.9878 17.928C87.5878 17.928 87.1878 17.936 86.7878 17.952C86.3878 17.952 86.0598 17.968 85.8038 18V17.52C86.3318 17.472 86.7318 17.376 87.0038 17.232C87.2758 17.072 87.4598 16.808 87.5558 16.44C87.6518 16.072 87.6998 15.568 87.6998 14.928V3.552C87.6998 2.96 87.6518 2.528 87.5558 2.256C87.4598 1.968 87.2758 1.776 87.0038 1.68C86.7318 1.568 86.3318 1.504 85.8038 1.488V1.008C86.0598 1.024 86.3878 1.04 86.7878 1.056C87.1878 1.072 87.5878 1.08 87.9878 1.08C88.3398 1.08 88.6838 1.072 89.0198 1.056C89.3558 1.04 89.6518 1.024 89.9078 1.008L98.6678 13.536V4.176C98.6678 3.488 98.6118 2.96 98.4998 2.592C98.4038 2.224 98.1958 1.96 97.8758 1.8C97.5558 1.624 97.0758 1.52 96.4358 1.488V1.008C96.7238 1.024 97.1078 1.04 97.5878 1.056C98.0678 1.072 98.5158 1.08 98.9318 1.08C99.3318 1.08 99.7318 1.072 100.132 1.056C100.532 1.04 100.86 1.024 101.116 1.008ZM116.522 1.008C116.458 1.68 116.41 2.336 116.378 2.976C116.362 3.6 116.354 4.08 116.354 4.416C116.354 4.784 116.362 5.136 116.378 5.472C116.394 5.808 116.41 6.096 116.426 6.336H115.874C115.714 5.136 115.498 4.192 115.226 3.504C114.97 2.816 114.594 2.32 114.098 2.016C113.602 1.712 112.89 1.56 111.962 1.56H110.93V15.24C110.93 15.88 110.986 16.36 111.098 16.68C111.226 17 111.466 17.216 111.818 17.328C112.186 17.424 112.714 17.488 113.402 17.52V18C112.954 17.968 112.378 17.952 111.674 17.952C110.97 17.936 110.25 17.928 109.514 17.928C108.746 17.928 108.018 17.936 107.33 17.952C106.658 17.952 106.114 17.968 105.698 18V17.52C106.386 17.488 106.906 17.424 107.258 17.328C107.61 17.216 107.85 17 107.978 16.68C108.106 16.36 108.17 15.88 108.17 15.24V1.56H107.114C106.218 1.56 105.514 1.712 105.002 2.016C104.49 2.32 104.106 2.816 103.85 3.504C103.594 4.192 103.386 5.136 103.226 6.336H102.674C102.706 6.096 102.722 5.808 102.722 5.472C102.738 5.136 102.746 4.784 102.746 4.416C102.746 4.08 102.73 3.6 102.698 2.976C102.682 2.336 102.642 1.68 102.578 1.008C103.266 1.024 104.018 1.04 104.834 1.056C105.65 1.072 106.474 1.08 107.306 1.08C108.138 1.08 108.89 1.08 109.562 1.08C110.234 1.08 110.978 1.08 111.794 1.08C112.61 1.08 113.434 1.072 114.266 1.056C115.098 1.04 115.85 1.024 116.522 1.008Z" fill="white"/>
</svg>
