<svg width="132" height="14" viewBox="0 0 132 14" fill="none" xmlns="http://www.w3.org/2000/svg">
<path d="M3.53516 11.5H2.73438V5.4502C2.67253 5.51204 2.58138 5.58366 2.46094 5.66504C2.34375 5.74316 2.21029 5.82129 2.06055 5.89941C1.91406 5.97754 1.75781 6.05078 1.5918 6.11914C1.42904 6.1875 1.26953 6.24121 1.11328 6.28027V5.46973C1.28906 5.4209 1.47461 5.35579 1.66992 5.27441C1.86849 5.18978 2.06217 5.09701 2.25098 4.99609C2.44303 4.89193 2.6237 4.78451 2.79297 4.67383C2.96224 4.5599 3.10872 4.44922 3.23242 4.3418H3.53516V11.5ZM12.1875 10.582V11.5H11.4258V10.582H11.2939C10.5127 10.582 9.86654 10.3167 9.35547 9.78613C8.84766 9.25228 8.59375 8.59635 8.59375 7.81836C8.59375 7.07617 8.84766 6.45117 9.35547 5.94336C9.86328 5.43555 10.5127 5.18164 11.3037 5.18164H11.4258V4.30273H12.1875V5.18164H12.3047C13.1055 5.18164 13.7565 5.43229 14.2578 5.93359C14.7624 6.43164 15.0146 7.0599 15.0146 7.81836C15.0146 8.58659 14.7591 9.23926 14.248 9.77637C13.7402 10.3135 13.0957 10.582 12.3145 10.582H12.1875ZM12.1875 5.87012V9.85938H12.3145C12.8711 9.85938 13.3171 9.67546 13.6523 9.30762C13.9876 8.93652 14.1553 8.44336 14.1553 7.82812C14.1553 7.24219 13.9876 6.77018 13.6523 6.41211C13.3171 6.05078 12.8678 5.87012 12.3047 5.87012H12.1875ZM11.4258 9.85938V5.87012H11.3037C10.7503 5.87012 10.3027 6.05241 9.96094 6.41699C9.6224 6.78158 9.45312 7.25195 9.45312 7.82812C9.45312 8.44661 9.62077 8.93978 9.95605 9.30762C10.2913 9.67546 10.7373 9.85938 11.2939 9.85938H11.4258ZM20.0293 11.5H16.3184V4.49805H19.873V5.24023H17.1387V7.56934H19.668V8.30664H17.1387V10.7578H20.0293V11.5ZM21.377 11.5V4.49805H23.3691C23.9746 4.49805 24.4548 4.64616 24.8096 4.94238C25.1644 5.23861 25.3418 5.62435 25.3418 6.09961C25.3418 6.49674 25.2344 6.8418 25.0195 7.13477C24.8047 7.42773 24.5085 7.63607 24.1309 7.75977V7.7793C24.6029 7.83464 24.9805 8.01367 25.2637 8.31641C25.5469 8.61589 25.6885 9.00651 25.6885 9.48828C25.6885 10.0872 25.4736 10.5723 25.0439 10.9434C24.6143 11.3145 24.0723 11.5 23.418 11.5H21.377ZM22.1973 5.24023V7.50098H23.0371C23.4863 7.50098 23.8395 7.39355 24.0967 7.17871C24.3538 6.96061 24.4824 6.65462 24.4824 6.26074C24.4824 5.5804 24.0348 5.24023 23.1396 5.24023H22.1973ZM22.1973 8.23828V10.7578H23.3105C23.7923 10.7578 24.165 10.6439 24.4287 10.416C24.6956 10.1882 24.8291 9.87565 24.8291 9.47852C24.8291 8.65169 24.266 8.23828 23.1396 8.23828H22.1973ZM27.9297 8.85352V11.5H27.1094V4.49805H29.0332C29.7819 4.49805 30.3613 4.68034 30.7715 5.04492C31.1849 5.40951 31.3916 5.92383 31.3916 6.58789C31.3916 7.25195 31.1621 7.79557 30.7031 8.21875C30.2474 8.64193 29.6305 8.85352 28.8525 8.85352H27.9297ZM27.9297 5.24023V8.11133H28.7891C29.3555 8.11133 29.7868 7.98275 30.083 7.72559C30.3825 7.46517 30.5322 7.09896 30.5322 6.62695C30.5322 5.70247 29.9854 5.24023 28.8916 5.24023H27.9297ZM38.1348 11.5H37.2266L36.4844 9.53711H33.5156L32.8174 11.5H31.9043L34.5898 4.49805H35.4395L38.1348 11.5ZM36.2158 8.7998L35.1172 5.81641C35.0814 5.71875 35.0456 5.5625 35.0098 5.34766H34.9902C34.9577 5.54622 34.9202 5.70247 34.8779 5.81641L33.7891 8.7998H36.2158ZM44.0527 11.5H43.2324V5.24023H41.2891C41.0645 7.00456 40.887 8.2513 40.7568 8.98047C40.6266 9.70964 40.4948 10.2467 40.3613 10.5918C40.2279 10.9368 40.0472 11.194 39.8193 11.3633C39.5915 11.5293 39.318 11.6123 38.999 11.6123C38.7419 11.6123 38.5189 11.5781 38.3301 11.5098V10.7383C38.4961 10.8327 38.68 10.8799 38.8818 10.8799C39.0837 10.8799 39.2725 10.7594 39.4482 10.5186C39.6273 10.2777 39.8079 9.65104 39.9902 8.63867C40.1758 7.6263 40.3809 6.24609 40.6055 4.49805H44.0527V11.5ZM49.9658 11.5H49.1455V8.52148H48.125C47.9297 8.52148 47.7572 8.5752 47.6074 8.68262C47.4609 8.78678 47.3031 9.02279 47.1338 9.39062L46.2549 11.5H45.2783L46.3428 9.16113C46.4111 9.00814 46.5153 8.84701 46.6553 8.67773C46.7985 8.50521 46.9645 8.38314 47.1533 8.31152V8.29199C46.6878 8.19108 46.3249 7.97786 46.0645 7.65234C45.8073 7.32682 45.6787 6.93294 45.6787 6.4707C45.6787 5.875 45.8854 5.39811 46.2988 5.04004C46.7155 4.67871 47.2607 4.49805 47.9346 4.49805H49.9658V11.5ZM49.1455 7.7793V5.24023H48.0078C47.5456 5.24023 47.1859 5.34928 46.9287 5.56738C46.6748 5.78548 46.5479 6.0931 46.5479 6.49023C46.5479 6.88737 46.6781 7.2015 46.9385 7.43262C47.1989 7.66374 47.5488 7.7793 47.9883 7.7793H49.1455ZM57.4023 6.33398C57.4023 6.11914 57.3682 5.93197 57.2998 5.77246C57.2347 5.61296 57.1436 5.48112 57.0264 5.37695C56.9124 5.26953 56.7773 5.18978 56.6211 5.1377C56.4648 5.08561 56.2956 5.05957 56.1133 5.05957C55.957 5.05957 55.804 5.08073 55.6543 5.12305C55.5046 5.16536 55.3581 5.22396 55.2148 5.29883C55.0749 5.3737 54.9382 5.46322 54.8047 5.56738C54.6745 5.67155 54.5524 5.78711 54.4385 5.91406V5.05469C54.6631 4.83659 54.9137 4.67057 55.1904 4.55664C55.4704 4.43945 55.8105 4.38086 56.2109 4.38086C56.4974 4.38086 56.7627 4.42318 57.0068 4.50781C57.251 4.58919 57.4626 4.70964 57.6416 4.86914C57.8206 5.02865 57.9606 5.22559 58.0615 5.45996C58.1657 5.69434 58.2178 5.96289 58.2178 6.26562C58.2178 6.54232 58.1852 6.79297 58.1201 7.01758C58.0583 7.24219 57.9622 7.45378 57.832 7.65234C57.7051 7.85091 57.5439 8.04134 57.3486 8.22363C57.1533 8.40592 56.9238 8.59147 56.6602 8.78027C56.3314 9.01465 56.0596 9.21484 55.8447 9.38086C55.6331 9.54688 55.4639 9.70312 55.3369 9.84961C55.2132 9.99284 55.1253 10.1377 55.0732 10.2842C55.0244 10.4274 55 10.5934 55 10.7822H58.4863V11.5H54.165V11.1533C54.165 10.8538 54.1976 10.5902 54.2627 10.3623C54.3278 10.1344 54.4352 9.91797 54.585 9.71289C54.7347 9.50781 54.93 9.30273 55.1709 9.09766C55.415 8.89258 55.7129 8.66146 56.0645 8.4043C56.3184 8.22201 56.5299 8.04785 56.6992 7.88184C56.8717 7.71582 57.0101 7.5498 57.1143 7.38379C57.2184 7.21777 57.2917 7.05013 57.334 6.88086C57.3796 6.70833 57.4023 6.52604 57.4023 6.33398ZM64.0039 7.96973C64.0039 8.55566 63.9502 9.07487 63.8428 9.52734C63.7386 9.97982 63.5856 10.3623 63.3838 10.6748C63.1852 10.984 62.9395 11.2201 62.6465 11.3828C62.3568 11.5423 62.0264 11.6221 61.6553 11.6221C61.3037 11.6221 60.9896 11.5456 60.7129 11.3926C60.4395 11.2363 60.2083 11.0101 60.0195 10.7139C59.8307 10.4176 59.6875 10.0547 59.5898 9.625C59.4922 9.19206 59.4434 8.69727 59.4434 8.14062C59.4434 7.52865 59.4938 6.98828 59.5947 6.51953C59.6989 6.05078 59.8503 5.65853 60.0488 5.34277C60.2474 5.02376 60.4932 4.78451 60.7861 4.625C61.0824 4.46224 61.4209 4.38086 61.8018 4.38086C63.2699 4.38086 64.0039 5.57715 64.0039 7.96973ZM63.1836 8.04785C63.1836 6.05566 62.71 5.05957 61.7627 5.05957C60.7633 5.05957 60.2637 6.07357 60.2637 8.10156C60.2637 9.99284 60.7536 10.9385 61.7334 10.9385C62.7002 10.9385 63.1836 9.97493 63.1836 8.04785ZM68.1836 6.33398C68.1836 6.11914 68.1494 5.93197 68.0811 5.77246C68.016 5.61296 67.9248 5.48112 67.8076 5.37695C67.6937 5.26953 67.5586 5.18978 67.4023 5.1377C67.2461 5.08561 67.0768 5.05957 66.8945 5.05957C66.7383 5.05957 66.5853 5.08073 66.4355 5.12305C66.2858 5.16536 66.1393 5.22396 65.9961 5.29883C65.8561 5.3737 65.7194 5.46322 65.5859 5.56738C65.4557 5.67155 65.3337 5.78711 65.2197 5.91406V5.05469C65.4443 4.83659 65.695 4.67057 65.9717 4.55664C66.2516 4.43945 66.5918 4.38086 66.9922 4.38086C67.2786 4.38086 67.5439 4.42318 67.7881 4.50781C68.0322 4.58919 68.2438 4.70964 68.4229 4.86914C68.6019 5.02865 68.7419 5.22559 68.8428 5.45996C68.9469 5.69434 68.999 5.96289 68.999 6.26562C68.999 6.54232 68.9665 6.79297 68.9014 7.01758C68.8395 7.24219 68.7435 7.45378 68.6133 7.65234C68.4863 7.85091 68.3252 8.04134 68.1299 8.22363C67.9346 8.40592 67.7051 8.59147 67.4414 8.78027C67.1126 9.01465 66.8408 9.21484 66.626 9.38086C66.4144 9.54688 66.2451 9.70312 66.1182 9.84961C65.9945 9.99284 65.9066 10.1377 65.8545 10.2842C65.8057 10.4274 65.7812 10.5934 65.7812 10.7822H69.2676V11.5H64.9463V11.1533C64.9463 10.8538 64.9788 10.5902 65.0439 10.3623C65.109 10.1344 65.2165 9.91797 65.3662 9.71289C65.516 9.50781 65.7113 9.30273 65.9521 9.09766C66.1963 8.89258 66.4941 8.66146 66.8457 8.4043C67.0996 8.22201 67.3112 8.04785 67.4805 7.88184C67.653 7.71582 67.7913 7.5498 67.8955 7.38379C67.9997 7.21777 68.0729 7.05013 68.1152 6.88086C68.1608 6.70833 68.1836 6.52604 68.1836 6.33398ZM73.9551 4.49805V9.12207H74.8535V9.85449H73.9551V11.5H73.1641V9.85449H69.873V9.16113C70.179 8.81608 70.4883 8.44824 70.8008 8.05762C71.1133 7.66374 71.4111 7.26497 71.6943 6.86133C71.9808 6.45768 72.2445 6.05566 72.4854 5.65527C72.7295 5.25163 72.9346 4.86589 73.1006 4.49805H73.9551ZM70.7764 9.12207H73.1641V5.69434C72.9199 6.12077 72.6888 6.50163 72.4707 6.83691C72.2526 7.1722 72.0443 7.47656 71.8457 7.75C71.6504 8.02344 71.4632 8.27083 71.2842 8.49219C71.1051 8.71354 70.9359 8.9235 70.7764 9.12207Z" fill="#979797"/>
<circle cx="88" cy="7" r="2" fill="#979797"/>
<path d="M104.731 9.36133C104.731 9.70312 104.673 10.0124 104.556 10.2891C104.438 10.5658 104.271 10.8034 104.053 11.002C103.838 11.2005 103.577 11.3535 103.271 11.4609C102.965 11.5684 102.625 11.6221 102.251 11.6221C101.6 11.6221 101.117 11.5244 100.801 11.3291V10.4795C101.276 10.7855 101.763 10.9385 102.261 10.9385C102.515 10.9385 102.743 10.901 102.944 10.8262C103.149 10.7513 103.324 10.6471 103.467 10.5137C103.61 10.3802 103.719 10.2191 103.794 10.0303C103.872 9.84147 103.911 9.63477 103.911 9.41016C103.911 8.95443 103.758 8.59798 103.452 8.34082C103.146 8.0804 102.702 7.9502 102.119 7.9502C102.025 7.9502 101.925 7.95182 101.821 7.95508C101.717 7.95833 101.613 7.96322 101.509 7.96973C101.405 7.97298 101.302 7.97786 101.201 7.98438C101.104 7.99089 101.014 7.99902 100.933 8.00879L101.172 4.49805H104.409V5.2207H101.865L101.724 7.27637C101.828 7.26986 101.938 7.26497 102.056 7.26172C102.173 7.25521 102.277 7.25195 102.368 7.25195C102.739 7.25195 103.071 7.30078 103.364 7.39844C103.657 7.49609 103.905 7.63607 104.106 7.81836C104.312 7.9974 104.466 8.21875 104.57 8.48242C104.678 8.74284 104.731 9.03581 104.731 9.36133ZM116.191 11.5H115.376V6.80273C115.376 6.43164 115.399 5.97754 115.444 5.44043H115.425C115.347 5.75618 115.277 5.98242 115.215 6.11914L112.822 11.5H112.422L110.034 6.1582C109.966 6.00195 109.896 5.7627 109.824 5.44043H109.805C109.831 5.72038 109.844 6.17773 109.844 6.8125V11.5H109.053V4.49805H110.137L112.285 9.38086C112.451 9.75521 112.559 10.0352 112.607 10.2207H112.637C112.777 9.83659 112.889 9.55013 112.974 9.36133L115.166 4.49805H116.191V11.5ZM123.682 11.5H122.861V6.44141C122.861 5.98568 122.878 5.66504 122.91 5.47949H122.881C122.819 5.639 122.744 5.78548 122.656 5.91895L119.053 11.5H118.037V4.49805H118.857V9.42969C118.857 9.95703 118.844 10.3005 118.818 10.46H118.838C118.91 10.3167 119.001 10.1605 119.111 9.99121L122.627 4.49805H123.682V11.5ZM130.791 11.5H129.971V8.30664H126.348V11.5H125.527V4.49805H126.348V7.56934H129.971V4.49805H130.791V11.5Z" fill="#979797"/>
</svg>
