<svg width="40" height="40" viewBox="0 0 40 40" fill="none" xmlns="http://www.w3.org/2000/svg">
<path d="M21.2414 12.6282C21.0971 12.6427 20.765 12.7177 20.56 12.7812C19.6275 13.0671 18.923 13.7745 18.6169 14.7301C18.4524 15.2469 18.435 15.426 18.4206 16.7714L18.4062 18.0071H17.283H16.1599V19.3353V20.6634H17.2859H18.412V24.027V27.3906H19.7834H21.1548V24.027V20.6634H22.2895H23.4213L23.5888 19.3555C23.6811 18.6394 23.7562 18.0418 23.7533 18.0273C23.7533 18.0158 23.1672 18.0071 22.4512 18.0071H21.149L21.1606 16.9735C21.1721 15.9918 21.175 15.9341 21.2385 15.7407C21.2905 15.579 21.3367 15.5097 21.4551 15.3913C21.7265 15.1199 22.0268 15.0622 23.2134 15.0622H23.8399V13.8813V12.7004L23.6754 12.6831C23.0893 12.6196 21.6341 12.5849 21.2414 12.6282Z" fill="url(#paint0_linear_49_353)"/>
<defs>
<linearGradient id="paint0_linear_49_353" x1="16.1599" y1="32.1419" x2="26.1067" y2="32.0561" gradientUnits="userSpaceOnUse">
<stop stop-color="#AF802A"/>
<stop offset="1" stop-color="#DFC464"/>
</linearGradient>
</defs>
</svg>
