<svg width="368" height="103" viewBox="0 0 368 103" fill="none" xmlns="http://www.w3.org/2000/svg">
<rect width="99" height="26" fill="url(#paint0_linear_385_1633)"/>
<path d="M16.972 17V8.48H18.316V12.044H19.312L21.988 8.48H23.524L20.392 12.608L23.752 17H22.108L19.312 13.28H18.316V17H16.972ZM28.0352 17.06C27.4192 17.06 26.8632 16.94 26.3672 16.7C25.8712 16.46 25.4432 16.136 25.0832 15.728C24.7232 15.312 24.4432 14.848 24.2432 14.336C24.0512 13.816 23.9552 13.284 23.9552 12.74C23.9552 12.172 24.0592 11.632 24.2672 11.12C24.4752 10.6 24.7632 10.14 25.1312 9.74C25.4992 9.332 25.9312 9.012 26.4272 8.78C26.9312 8.54 27.4752 8.42 28.0592 8.42C28.6672 8.42 29.2192 8.544 29.7152 8.792C30.2192 9.04 30.6472 9.372 30.9992 9.788C31.3592 10.204 31.6352 10.668 31.8272 11.18C32.0272 11.692 32.1272 12.216 32.1272 12.752C32.1272 13.32 32.0232 13.864 31.8152 14.384C31.6152 14.896 31.3312 15.356 30.9632 15.764C30.5952 16.164 30.1592 16.48 29.6552 16.712C29.1592 16.944 28.6192 17.06 28.0352 17.06ZM25.3232 12.74C25.3232 13.14 25.3872 13.528 25.5152 13.904C25.6432 14.28 25.8232 14.616 26.0552 14.912C26.2952 15.2 26.5832 15.428 26.9192 15.596C27.2552 15.764 27.6312 15.848 28.0472 15.848C28.4792 15.848 28.8632 15.76 29.1992 15.584C29.5352 15.408 29.8152 15.172 30.0392 14.876C30.2712 14.572 30.4472 14.236 30.5672 13.868C30.6872 13.492 30.7472 13.116 30.7472 12.74C30.7472 12.34 30.6832 11.956 30.5552 11.588C30.4352 11.212 30.2552 10.88 30.0152 10.592C29.7752 10.296 29.4872 10.064 29.1512 9.896C28.8232 9.728 28.4552 9.644 28.0472 9.644C27.6152 9.644 27.2312 9.732 26.8952 9.908C26.5592 10.084 26.2752 10.32 26.0432 10.616C25.8112 10.912 25.6312 11.244 25.5032 11.612C25.3832 11.98 25.3232 12.356 25.3232 12.74ZM40.5146 8.48V17H39.1586V13.244H34.8626V17H33.5186V8.48H34.8626V12.044H39.1586V8.48H40.5146ZM48.6886 9.668H45.8566V17H44.5006V9.668H41.6566V8.48H48.6886V9.668ZM51.5059 8.48H52.7779L56.0899 17H54.6739L53.7739 14.684H50.4859L49.5979 17H48.1699L51.5059 8.48ZM53.5099 13.688L52.1419 9.956L50.7259 13.688H53.5099ZM57.1556 17V8.48H58.4996V12.044H59.4956L62.1716 8.48H63.7076L60.5756 12.608L63.9356 17H62.2916L59.4956 13.28H58.4996V17H57.1556ZM71.4229 9.668H68.5909V17H67.2349V9.668H64.3909V8.48H71.4229V9.668ZM72.5655 17V8.48H73.9095V11.624H75.8175C76.4415 11.624 76.9655 11.736 77.3895 11.96C77.8215 12.176 78.1455 12.484 78.3615 12.884C78.5855 13.284 78.6975 13.756 78.6975 14.3C78.6975 14.812 78.5895 15.276 78.3735 15.692C78.1575 16.1 77.8415 16.42 77.4255 16.652C77.0095 16.884 76.5015 17 75.9015 17H72.5655ZM73.9095 15.884H75.7095C76.0855 15.884 76.3935 15.812 76.6335 15.668C76.8735 15.524 77.0455 15.332 77.1495 15.092C77.2615 14.844 77.3175 14.58 77.3175 14.3C77.3175 14.028 77.2655 13.772 77.1615 13.532C77.0655 13.292 76.8975 13.1 76.6575 12.956C76.4255 12.812 76.1055 12.74 75.6975 12.74H73.9095V15.884ZM80.0415 17V8.492H81.3975V17H80.0415Z" fill="white"/>
<path d="M11.7773 60.6289H11.0156C10.9453 60.4102 10.8477 60.1602 10.7227 59.8789C10.5977 59.5898 10.4141 59.25 10.1719 58.8594C9.96875 58.5234 9.73828 58.2305 9.48047 57.9805C9.23047 57.7227 8.96875 57.5781 8.69531 57.5469C8.47656 57.5234 8.22266 57.5039 7.93359 57.4883C7.65234 57.4727 7.40234 57.4648 7.18359 57.4648H6.32812V65.8555C6.32812 66.1367 6.375 66.375 6.46875 66.5703C6.57031 66.7578 6.74219 66.8867 6.98438 66.957C7.17188 67.0117 7.35156 67.0547 7.52344 67.0859C7.69531 67.1094 7.91016 67.1289 8.16797 67.1445V68H0.726562V67.1445C0.921875 67.1289 1.11719 67.1094 1.3125 67.0859C1.51562 67.0547 1.6875 67.0156 1.82812 66.9688C2.07812 66.8828 2.25 66.75 2.34375 66.5703C2.4375 66.3906 2.48438 66.1562 2.48438 65.8672V58.5078C2.48438 58.2344 2.43359 58.0039 2.33203 57.8164C2.23828 57.6211 2.07031 57.4844 1.82812 57.4062C1.625 57.3438 1.4375 57.3047 1.26562 57.2891C1.09375 57.2656 0.914062 57.2461 0.726562 57.2305V56.375H11.7773V60.6289ZM18.2109 66.0547C18.2109 66.6719 17.9805 67.207 17.5195 67.6602C17.0664 68.1133 16.5273 68.3398 15.9023 68.3398C15.2695 68.3398 14.7227 68.1172 14.2617 67.6719C13.8086 67.2188 13.582 66.6797 13.582 66.0547C13.582 65.4297 13.8086 64.8906 14.2617 64.4375C14.7227 63.9766 15.2695 63.7461 15.9023 63.7461C16.5273 63.7461 17.0664 63.9766 17.5195 64.4375C17.9805 64.8984 18.2109 65.4375 18.2109 66.0547ZM38.4141 63.1836C38.4141 61.9805 38.0703 61.0625 37.3828 60.4297C36.7031 59.7891 35.7227 59.4688 34.4414 59.4688C34.293 59.4688 34.0977 59.4766 33.8555 59.4922C33.6211 59.5 33.4453 59.5078 33.3281 59.5156V65.8906C33.3984 66.1953 33.6133 66.4453 33.9727 66.6406C34.3398 66.8281 34.7812 66.9219 35.2969 66.9219C36.2266 66.9219 36.9766 66.5938 37.5469 65.9375C38.125 65.2734 38.4141 64.3555 38.4141 63.1836ZM43.043 63.0195C43.043 63.8477 42.8594 64.582 42.4922 65.2227C42.1328 65.8633 41.6406 66.3945 41.0156 66.8164C40.4062 67.2148 39.7344 67.5117 39 67.707C38.2734 67.9023 37.5156 68 36.7266 68H26.7305V67.0859C26.957 67.0625 27.2578 67.0312 27.6328 66.9922C28.0078 66.9453 28.2695 66.8906 28.418 66.8281C28.6992 66.7188 28.8945 66.5664 29.0039 66.3711C29.1133 66.1758 29.168 65.9258 29.168 65.6211V53.8906C29.168 53.625 29.1172 53.3945 29.0156 53.1992C28.9219 52.9961 28.7227 52.8281 28.418 52.6953C28.1992 52.6016 27.9102 52.5156 27.5508 52.4375C27.1914 52.3594 26.918 52.3086 26.7305 52.2852V51.3711H41.5781V56.1289H40.6758C40.3242 55.2227 39.8867 54.418 39.3633 53.7148C38.8477 53.0117 38.3867 52.6289 37.9805 52.5664C37.7305 52.5195 37.4414 52.4844 37.1133 52.4609C36.7852 52.4375 36.4492 52.4258 36.1055 52.4258H33.3281V58.3555C33.6875 58.3477 34.0859 58.3359 34.5234 58.3203C34.9609 58.2969 35.3828 58.2852 35.7891 58.2852C36.8281 58.2852 37.7734 58.3672 38.625 58.5312C39.4766 58.6953 40.2383 58.9688 40.9102 59.3516C41.5664 59.7188 42.0859 60.207 42.4688 60.8164C42.8516 61.418 43.043 62.1523 43.043 63.0195ZM60.3633 68H53.2852V67.1445C53.418 67.1211 53.582 67.0938 53.7773 67.0625C53.9727 67.0234 54.1484 66.957 54.3047 66.8633C54.4922 66.7539 54.6211 66.6211 54.6914 66.4648C54.7695 66.3008 54.8086 66.0664 54.8086 65.7617V60.2422L50.1211 65.7852V65.8203C50.1211 66.1016 50.1562 66.3281 50.2266 66.5C50.3047 66.6641 50.4375 66.7969 50.625 66.8984C50.75 66.9688 50.9062 67.0234 51.0938 67.0625C51.2891 67.0938 51.4844 67.1211 51.6797 67.1445V68H44.6016V67.1445C44.7969 67.1289 44.9922 67.1094 45.1875 67.0859C45.3906 67.0547 45.5625 67.0156 45.7031 66.9688C45.9531 66.8828 46.125 66.75 46.2188 66.5703C46.3125 66.3906 46.3594 66.1562 46.3594 65.8672V58.5078C46.3594 58.2344 46.3086 58.0039 46.207 57.8164C46.1133 57.6211 45.9453 57.4844 45.7031 57.4062C45.5 57.3438 45.3125 57.3047 45.1406 57.2891C44.9688 57.2656 44.7891 57.2461 44.6016 57.2305V56.375H51.6797V57.2305C51.4922 57.2539 51.3164 57.2852 51.1523 57.3242C50.9961 57.3555 50.832 57.418 50.6602 57.5117C50.4727 57.6133 50.3398 57.7578 50.2617 57.9453C50.1914 58.1328 50.1562 58.3555 50.1562 58.6133V64.1328L54.8438 58.5898V58.5547C54.8438 58.2734 54.8047 58.0508 54.7266 57.8867C54.6562 57.7148 54.5273 57.5781 54.3398 57.4766C54.1914 57.3906 54.0117 57.3359 53.8008 57.3125C53.5977 57.2812 53.4258 57.2539 53.2852 57.2305V56.375H60.3633V57.2305C60.1289 57.2461 59.9336 57.2656 59.7773 57.2891C59.6211 57.3125 59.4492 57.3516 59.2617 57.4062C59.0352 57.4766 58.8672 57.6055 58.7578 57.793C58.6562 57.9727 58.6055 58.2109 58.6055 58.5078V65.8672C58.6055 66.1484 58.6523 66.3867 58.7461 66.582C58.8477 66.7695 59.0195 66.8984 59.2617 66.9688C59.4492 67.0234 59.6133 67.0625 59.7539 67.0859C59.9023 67.1094 60.1055 67.1289 60.3633 67.1445V68ZM84.1172 68H61.8281V67.1445C62.0234 67.1289 62.2188 67.1094 62.4141 67.0859C62.6172 67.0547 62.7891 67.0156 62.9297 66.9688C63.1797 66.8828 63.3516 66.75 63.4453 66.5703C63.5391 66.3906 63.5859 66.1562 63.5859 65.8672V58.5078C63.5859 58.2344 63.5352 58.0039 63.4336 57.8164C63.3398 57.6211 63.1719 57.4844 62.9297 57.4062C62.7266 57.3438 62.5391 57.3047 62.3672 57.2891C62.1953 57.2656 62.0156 57.2461 61.8281 57.2305V56.375H68.6719V57.2305C68.4766 57.2539 68.3125 57.2852 68.1797 57.3242C68.0547 57.3633 67.9258 57.418 67.793 57.4883C67.6211 57.5898 67.5078 57.7227 67.4531 57.8867C67.3984 58.0508 67.3711 58.2852 67.3711 58.5898V65.8906C67.3711 66.0547 67.375 66.1953 67.3828 66.3125C67.3906 66.4219 67.4258 66.5352 67.4883 66.6523C67.5508 66.7539 67.6523 66.8398 67.793 66.9102C67.9414 66.9727 68.1289 67.0078 68.3555 67.0156C68.5742 67.0234 68.7578 67.0312 68.9062 67.0391C69.0547 67.0391 69.2422 67.0391 69.4688 67.0391C69.6875 67.0391 69.8594 67.0391 69.9844 67.0391C70.1094 67.0312 70.2734 67.0195 70.4766 67.0039C70.7891 66.9883 70.9648 66.9062 71.0039 66.7578C71.0508 66.6094 71.0742 66.3867 71.0742 66.0898V58.5898C71.0742 58.3086 71.0508 58.0859 71.0039 57.9219C70.957 57.75 70.8398 57.6055 70.6523 57.4883C70.5117 57.4023 70.3711 57.3438 70.2305 57.3125C70.0977 57.2812 69.9531 57.2539 69.7969 57.2305V56.375H76.1484V57.2305C75.9531 57.2539 75.793 57.2852 75.668 57.3242C75.5508 57.3633 75.4258 57.418 75.293 57.4883C75.1211 57.5898 75.0078 57.7227 74.9531 57.8867C74.8984 58.0508 74.8711 58.2852 74.8711 58.5898V65.8906C74.8711 66.0547 74.875 66.1953 74.8828 66.3125C74.8906 66.4219 74.9258 66.5352 74.9883 66.6523C75.0508 66.7539 75.1523 66.8398 75.293 66.9102C75.4414 66.9727 75.6289 67.0078 75.8555 67.0156C76.0742 67.0234 76.2578 67.0312 76.4062 67.0391C76.5547 67.0391 76.7422 67.0391 76.9688 67.0391C77.1875 67.0391 77.3594 67.0391 77.4844 67.0391C77.6094 67.0312 77.7734 67.0195 77.9766 67.0039C78.2891 66.9883 78.4648 66.9062 78.5039 66.7578C78.5508 66.6094 78.5742 66.3867 78.5742 66.0898V58.5898C78.5742 58.3086 78.5508 58.0859 78.5039 57.9219C78.457 57.75 78.3398 57.6055 78.1523 57.4883C78.0117 57.4023 77.8672 57.3438 77.7188 57.3125C77.5781 57.2812 77.4297 57.2539 77.2734 57.2305V56.375H84.1172V57.2305C83.8828 57.2461 83.6875 57.2656 83.5312 57.2891C83.375 57.3125 83.2031 57.3516 83.0156 57.4062C82.7891 57.4766 82.6211 57.6055 82.5117 57.793C82.4102 57.9727 82.3594 58.2109 82.3594 58.5078V65.8672C82.3594 66.1719 82.4062 66.4141 82.5 66.5938C82.6016 66.7734 82.7734 66.8984 83.0156 66.9688C83.2031 67.0234 83.3672 67.0625 83.5078 67.0859C83.6562 67.1094 83.8594 67.1289 84.1172 67.1445V68ZM100.113 68H94.6758C94.5352 67.3281 94.4062 66.7578 94.2891 66.2891C94.1797 65.8203 94.0312 65.3047 93.8438 64.7422C93.6094 64.0391 93.3047 63.5156 92.9297 63.1719C92.5625 62.8203 91.9766 62.6367 91.1719 62.6211V65.7617C91.1719 66.0352 91.2109 66.2617 91.2891 66.4414C91.3672 66.6211 91.4961 66.7617 91.6758 66.8633C91.8008 66.9336 91.9531 66.9922 92.1328 67.0391C92.3203 67.0859 92.5078 67.1211 92.6953 67.1445V68H85.5703V67.1445C85.7656 67.1289 85.9609 67.1094 86.1562 67.0859C86.3594 67.0547 86.5312 67.0156 86.6719 66.9688C86.9219 66.8828 87.0938 66.75 87.1875 66.5703C87.2812 66.3906 87.3281 66.1562 87.3281 65.8672V58.5078C87.3281 58.2344 87.2773 58.0039 87.1758 57.8164C87.082 57.6211 86.9141 57.4844 86.6719 57.4062C86.4688 57.3438 86.2812 57.3047 86.1094 57.2891C85.9375 57.2656 85.7578 57.2461 85.5703 57.2305V56.375H92.6953V57.2305C92.5078 57.2539 92.332 57.2852 92.168 57.3242C92.0117 57.3555 91.8477 57.418 91.6758 57.5117C91.4883 57.6133 91.3555 57.7578 91.2773 57.9453C91.207 58.1328 91.1719 58.3555 91.1719 58.6133V61.6836H91.7109C92.0938 61.6836 92.4062 61.6406 92.6484 61.5547C92.8906 61.4609 93.082 61.3086 93.2227 61.0977C93.4492 60.7461 93.6211 60.3984 93.7383 60.0547C93.8555 59.7109 93.9609 59.375 94.0547 59.0469C94.1484 58.7031 94.2695 58.3633 94.418 58.0273C94.5664 57.6914 94.7773 57.3594 95.0508 57.0312C95.3242 56.7031 95.6445 56.4609 96.0117 56.3047C96.3789 56.1406 96.8086 56.0586 97.3008 56.0586C97.7148 56.0586 98.0625 56.1211 98.3438 56.2461C98.6328 56.3633 98.8594 56.5117 99.0234 56.6914C99.2031 56.8789 99.3281 57.0859 99.3984 57.3125C99.4766 57.5312 99.5156 57.7578 99.5156 57.9922C99.5156 58.6172 99.3438 59.0898 99 59.4102C98.6641 59.7305 98.2617 59.8906 97.793 59.8906C97.3945 59.8906 97.0078 59.7656 96.6328 59.5156C96.2656 59.2656 95.9492 58.9844 95.6836 58.6719C95.5039 58.7812 95.3594 58.957 95.25 59.1992C95.1484 59.4336 95.0469 59.6875 94.9453 59.9609C94.8359 60.25 94.7227 60.5312 94.6055 60.8047C94.4961 61.0703 94.332 61.3086 94.1133 61.5195C94.918 61.668 95.5977 61.9961 96.1523 62.5039C96.7148 63.0039 97.1406 63.5977 97.4297 64.2852C97.5625 64.5977 97.6992 64.9219 97.8398 65.2578C97.9883 65.5938 98.1133 65.8789 98.2148 66.1133C98.3633 66.4414 98.5391 66.668 98.7422 66.793C98.9453 66.9102 99.1055 66.9766 99.2227 66.9922C99.332 67.0156 99.4844 67.0469 99.6797 67.0859C99.875 67.1172 100.02 67.1367 100.113 67.1445V68ZM113.496 65.1992C113.223 65.6445 112.891 66.0664 112.5 66.4648C112.117 66.8555 111.68 67.1914 111.188 67.4727C110.664 67.7695 110.133 67.9922 109.594 68.1406C109.062 68.2969 108.449 68.375 107.754 68.375C106.598 68.375 105.598 68.2109 104.754 67.8828C103.918 67.5547 103.227 67.1133 102.68 66.5586C102.133 66.0039 101.723 65.3516 101.449 64.6016C101.184 63.8438 101.051 63.0234 101.051 62.1406C101.051 61.3438 101.195 60.582 101.484 59.8555C101.781 59.1211 102.199 58.4688 102.738 57.8984C103.27 57.3438 103.938 56.8945 104.742 56.5508C105.555 56.207 106.461 56.0352 107.461 56.0352C108.555 56.0352 109.453 56.168 110.156 56.4336C110.859 56.6992 111.441 57.0664 111.902 57.5352C112.348 57.9805 112.672 58.5078 112.875 59.1172C113.078 59.7188 113.18 60.3516 113.18 61.0156V61.7773H105.258C105.258 63.3789 105.566 64.5977 106.184 65.4336C106.801 66.2695 107.781 66.6875 109.125 66.6875C109.859 66.6875 110.52 66.4883 111.105 66.0898C111.691 65.6836 112.191 65.1719 112.605 64.5547L113.496 65.1992ZM109.02 60.7461C109.02 60.2773 108.996 59.7969 108.949 59.3047C108.902 58.8125 108.82 58.4102 108.703 58.0977C108.57 57.7305 108.387 57.4531 108.152 57.2656C107.926 57.0781 107.637 56.9844 107.285 56.9844C106.684 56.9844 106.203 57.2891 105.844 57.8984C105.484 58.5078 105.289 59.4727 105.258 60.793L109.02 60.7461ZM129.223 68H123.785C123.645 67.3281 123.516 66.7578 123.398 66.2891C123.289 65.8203 123.141 65.3047 122.953 64.7422C122.719 64.0391 122.414 63.5156 122.039 63.1719C121.672 62.8203 121.086 62.6367 120.281 62.6211V65.7617C120.281 66.0352 120.32 66.2617 120.398 66.4414C120.477 66.6211 120.605 66.7617 120.785 66.8633C120.91 66.9336 121.062 66.9922 121.242 67.0391C121.43 67.0859 121.617 67.1211 121.805 67.1445V68H114.68V67.1445C114.875 67.1289 115.07 67.1094 115.266 67.0859C115.469 67.0547 115.641 67.0156 115.781 66.9688C116.031 66.8828 116.203 66.75 116.297 66.5703C116.391 66.3906 116.438 66.1562 116.438 65.8672V58.5078C116.438 58.2344 116.387 58.0039 116.285 57.8164C116.191 57.6211 116.023 57.4844 115.781 57.4062C115.578 57.3438 115.391 57.3047 115.219 57.2891C115.047 57.2656 114.867 57.2461 114.68 57.2305V56.375H121.805V57.2305C121.617 57.2539 121.441 57.2852 121.277 57.3242C121.121 57.3555 120.957 57.418 120.785 57.5117C120.598 57.6133 120.465 57.7578 120.387 57.9453C120.316 58.1328 120.281 58.3555 120.281 58.6133V61.6836H120.82C121.203 61.6836 121.516 61.6406 121.758 61.5547C122 61.4609 122.191 61.3086 122.332 61.0977C122.559 60.7461 122.73 60.3984 122.848 60.0547C122.965 59.7109 123.07 59.375 123.164 59.0469C123.258 58.7031 123.379 58.3633 123.527 58.0273C123.676 57.6914 123.887 57.3594 124.16 57.0312C124.434 56.7031 124.754 56.4609 125.121 56.3047C125.488 56.1406 125.918 56.0586 126.41 56.0586C126.824 56.0586 127.172 56.1211 127.453 56.2461C127.742 56.3633 127.969 56.5117 128.133 56.6914C128.312 56.8789 128.438 57.0859 128.508 57.3125C128.586 57.5312 128.625 57.7578 128.625 57.9922C128.625 58.6172 128.453 59.0898 128.109 59.4102C127.773 59.7305 127.371 59.8906 126.902 59.8906C126.504 59.8906 126.117 59.7656 125.742 59.5156C125.375 59.2656 125.059 58.9844 124.793 58.6719C124.613 58.7812 124.469 58.957 124.359 59.1992C124.258 59.4336 124.156 59.6875 124.055 59.9609C123.945 60.25 123.832 60.5312 123.715 60.8047C123.605 61.0703 123.441 61.3086 123.223 61.5195C124.027 61.668 124.707 61.9961 125.262 62.5039C125.824 63.0039 126.25 63.5977 126.539 64.2852C126.672 64.5977 126.809 64.9219 126.949 65.2578C127.098 65.5938 127.223 65.8789 127.324 66.1133C127.473 66.4414 127.648 66.668 127.852 66.793C128.055 66.9102 128.215 66.9766 128.332 66.9922C128.441 67.0156 128.594 67.0469 128.789 67.0859C128.984 67.1172 129.129 67.1367 129.223 67.1445V68ZM135.645 67.3789C135.645 68.332 135.246 69.3047 134.449 70.2969C133.652 71.2969 132.695 72.0508 131.578 72.5586L131.062 71.7266C131.445 71.5234 131.805 71.3047 132.141 71.0703C132.484 70.8359 132.789 70.5625 133.055 70.25C133.328 69.9219 133.543 69.5859 133.699 69.2422C133.863 68.9062 133.965 68.4922 134.004 68H133.348C132.551 68 131.949 67.8203 131.543 67.4609C131.137 67.1016 130.934 66.6055 130.934 65.9727C130.934 65.4727 131.129 65.0234 131.52 64.625C131.91 64.2188 132.391 64.0156 132.961 64.0156C133.836 64.0156 134.5 64.3164 134.953 64.918C135.414 65.5117 135.645 66.332 135.645 67.3789ZM157.219 57.2305C156.867 57.2852 156.523 57.418 156.188 57.6289C155.859 57.8398 155.586 58.168 155.367 58.6133C154.695 60.0352 154.004 61.5508 153.293 63.1602C152.582 64.7617 151.793 66.4961 150.926 68.3633C150.441 69.4102 149.973 70.2461 149.52 70.8711C149.066 71.4961 148.641 71.9766 148.242 72.3125C147.867 72.625 147.496 72.8516 147.129 72.9922C146.762 73.1328 146.391 73.2031 146.016 73.2031C145.273 73.2031 144.672 72.9961 144.211 72.582C143.758 72.168 143.531 71.7031 143.531 71.1875C143.531 70.9688 143.555 70.7656 143.602 70.5781C143.656 70.3906 143.766 70.1953 143.93 69.9922C144.055 69.8203 144.246 69.6719 144.504 69.5469C144.77 69.4297 145.066 69.3711 145.395 69.3711C145.832 69.3711 146.25 69.5234 146.648 69.8281C147.047 70.1328 147.461 70.5547 147.891 71.0938C148.148 70.8359 148.465 70.4492 148.84 69.9336C149.223 69.4258 149.504 68.9023 149.684 68.3633C148.754 66.4102 147.93 64.7188 147.211 63.2891C146.492 61.8516 145.688 60.25 144.797 58.4844C144.602 58.1094 144.34 57.8203 144.012 57.6172C143.684 57.4062 143.336 57.2773 142.969 57.2305V56.375H150.141V57.2305C149.875 57.2383 149.566 57.2969 149.215 57.4062C148.871 57.5156 148.699 57.6562 148.699 57.8281C148.699 57.8906 148.711 57.9609 148.734 58.0391C148.758 58.1094 148.801 58.2148 148.863 58.3555C149.129 58.9023 149.504 59.6641 149.988 60.6406C150.48 61.6094 151.051 62.7461 151.699 64.0508C152.184 62.9414 152.594 61.9883 152.93 61.1914C153.273 60.3867 153.605 59.5977 153.926 58.8242C154.004 58.6289 154.047 58.4766 154.055 58.3672C154.07 58.25 154.078 58.1719 154.078 58.1328C154.078 57.9922 154.008 57.8711 153.867 57.7695C153.734 57.6602 153.574 57.5664 153.387 57.4883C153.191 57.4102 153.004 57.3516 152.824 57.3125C152.645 57.2734 152.496 57.2461 152.379 57.2305V56.375H157.219V57.2305ZM171.832 68H164.449V67.1445C164.645 67.1289 164.844 67.1094 165.047 67.0859C165.25 67.0547 165.422 67.0156 165.562 66.9688C165.812 66.8828 165.984 66.75 166.078 66.5703C166.18 66.3906 166.23 66.1562 166.23 65.8672V57.5H163.605C163.566 59.4531 163.395 61.1211 163.09 62.5039C162.785 63.8867 162.402 65.0039 161.941 65.8555C161.473 66.7148 160.965 67.3477 160.418 67.7539C159.871 68.1602 159.32 68.3633 158.766 68.3633C158.344 68.3633 157.988 68.293 157.699 68.1523C157.418 68.0195 157.191 67.8477 157.02 67.6367C156.84 67.4258 156.715 67.1914 156.645 66.9336C156.574 66.6758 156.539 66.4453 156.539 66.2422C156.539 65.6641 156.703 65.2031 157.031 64.8594C157.367 64.5078 157.809 64.332 158.355 64.332C158.816 64.332 159.219 64.457 159.562 64.707C159.906 64.9492 160.234 65.2461 160.547 65.5977C161.023 64.8789 161.422 63.9141 161.742 62.7031C162.07 61.4844 162.234 60.2188 162.234 58.9062C162.234 58.5547 162.176 58.2812 162.059 58.0859C161.941 57.8906 161.785 57.7344 161.59 57.6172C161.371 57.4922 161.121 57.4023 160.84 57.3477C160.559 57.2852 160.312 57.2461 160.102 57.2305V56.375H171.832V57.2305C171.598 57.2461 171.402 57.2656 171.246 57.2891C171.09 57.3125 170.918 57.3516 170.73 57.4062C170.504 57.4766 170.336 57.6055 170.227 57.793C170.125 57.9727 170.074 58.2109 170.074 58.5078V65.8672C170.074 66.1484 170.121 66.3867 170.215 66.582C170.316 66.7695 170.488 66.8984 170.73 66.9688C170.918 67.0234 171.082 67.0625 171.223 67.0859C171.371 67.1094 171.574 67.1289 171.832 67.1445V68ZM178.828 66.0547C178.828 66.6719 178.598 67.207 178.137 67.6602C177.684 68.1133 177.145 68.3398 176.52 68.3398C175.887 68.3398 175.34 68.1172 174.879 67.6719C174.426 67.2188 174.199 66.6797 174.199 66.0547C174.199 65.4297 174.426 64.8906 174.879 64.4375C175.34 63.9766 175.887 63.7461 176.52 63.7461C177.145 63.7461 177.684 63.9766 178.137 64.4375C178.598 64.8984 178.828 65.4375 178.828 66.0547ZM207.645 68H198.656V67.0859C198.852 67.0703 199.137 67.0469 199.512 67.0156C199.887 66.9844 200.145 66.9375 200.285 66.875C200.574 66.7578 200.773 66.6055 200.883 66.418C200.992 66.2227 201.047 65.9766 201.047 65.6797V59.9492H193.945V65.5508C193.945 65.8164 194 66.0547 194.109 66.2656C194.227 66.4766 194.422 66.6406 194.695 66.7578C194.844 66.8203 195.098 66.8867 195.457 66.957C195.816 67.0273 196.109 67.0703 196.336 67.0859V68H187.348V67.0859C187.543 67.0781 187.828 67.0547 188.203 67.0156C188.586 66.9688 188.863 66.9141 189.035 66.8516C189.316 66.75 189.512 66.5977 189.621 66.3945C189.73 66.1836 189.785 65.9375 189.785 65.6562V53.8906C189.785 53.6172 189.734 53.3867 189.633 53.1992C189.539 53.0117 189.34 52.8477 189.035 52.707C188.809 52.6055 188.512 52.5156 188.145 52.4375C187.777 52.3516 187.512 52.3008 187.348 52.2852V51.3711H196.336V52.2852C196.094 52.3008 195.805 52.3398 195.469 52.4023C195.133 52.4648 194.875 52.5234 194.695 52.5781C194.391 52.6797 194.188 52.8438 194.086 53.0703C193.992 53.2891 193.945 53.5234 193.945 53.7734V58.7422H201.047V53.8906C201.047 53.6172 200.996 53.3867 200.895 53.1992C200.793 53.0117 200.59 52.8477 200.285 52.707C200.082 52.6133 199.809 52.5273 199.465 52.4492C199.129 52.3633 198.859 52.3086 198.656 52.2852V51.3711H207.645V52.2852C207.395 52.3008 207.113 52.3359 206.801 52.3906C206.488 52.4375 206.207 52.5 205.957 52.5781C205.66 52.6797 205.461 52.8398 205.359 53.0586C205.258 53.2773 205.207 53.5156 205.207 53.7734V65.5508C205.207 65.832 205.258 66.0703 205.359 66.2656C205.461 66.4609 205.66 66.625 205.957 66.7578C206.145 66.8359 206.414 66.9062 206.766 66.9688C207.125 67.0312 207.418 67.0703 207.645 67.0859V68ZM222.375 57.2305C222.023 57.2852 221.68 57.418 221.344 57.6289C221.016 57.8398 220.742 58.168 220.523 58.6133C219.852 60.0352 219.16 61.5508 218.449 63.1602C217.738 64.7617 216.949 66.4961 216.082 68.3633C215.598 69.4102 215.129 70.2461 214.676 70.8711C214.223 71.4961 213.797 71.9766 213.398 72.3125C213.023 72.625 212.652 72.8516 212.285 72.9922C211.918 73.1328 211.547 73.2031 211.172 73.2031C210.43 73.2031 209.828 72.9961 209.367 72.582C208.914 72.168 208.688 71.7031 208.688 71.1875C208.688 70.9688 208.711 70.7656 208.758 70.5781C208.812 70.3906 208.922 70.1953 209.086 69.9922C209.211 69.8203 209.402 69.6719 209.66 69.5469C209.926 69.4297 210.223 69.3711 210.551 69.3711C210.988 69.3711 211.406 69.5234 211.805 69.8281C212.203 70.1328 212.617 70.5547 213.047 71.0938C213.305 70.8359 213.621 70.4492 213.996 69.9336C214.379 69.4258 214.66 68.9023 214.84 68.3633C213.91 66.4102 213.086 64.7188 212.367 63.2891C211.648 61.8516 210.844 60.25 209.953 58.4844C209.758 58.1094 209.496 57.8203 209.168 57.6172C208.84 57.4062 208.492 57.2773 208.125 57.2305V56.375H215.297V57.2305C215.031 57.2383 214.723 57.2969 214.371 57.4062C214.027 57.5156 213.855 57.6562 213.855 57.8281C213.855 57.8906 213.867 57.9609 213.891 58.0391C213.914 58.1094 213.957 58.2148 214.02 58.3555C214.285 58.9023 214.66 59.6641 215.145 60.6406C215.637 61.6094 216.207 62.7461 216.855 64.0508C217.34 62.9414 217.75 61.9883 218.086 61.1914C218.43 60.3867 218.762 59.5977 219.082 58.8242C219.16 58.6289 219.203 58.4766 219.211 58.3672C219.227 58.25 219.234 58.1719 219.234 58.1328C219.234 57.9922 219.164 57.8711 219.023 57.7695C218.891 57.6602 218.73 57.5664 218.543 57.4883C218.348 57.4102 218.16 57.3516 217.98 57.3125C217.801 57.2734 217.652 57.2461 217.535 57.2305V56.375H222.375V57.2305ZM236.906 62.293C236.906 63.9414 236.355 65.3555 235.254 66.5352C234.152 67.7148 232.758 68.3047 231.07 68.3047C230.32 68.3047 229.711 68.2266 229.242 68.0703C228.773 67.9219 228.387 67.7383 228.082 67.5195H227.988V70.8125C227.988 71.0859 228.047 71.3242 228.164 71.5273C228.289 71.7305 228.461 71.8789 228.68 71.9727C228.891 72.0586 229.188 72.1367 229.57 72.207C229.961 72.2773 230.285 72.3203 230.543 72.3359V73.2031H222.082V72.3359C222.277 72.3203 222.523 72.2891 222.82 72.2422C223.117 72.2031 223.34 72.1602 223.488 72.1133C223.738 72.0273 223.906 71.8789 223.992 71.668C224.086 71.4648 224.133 71.2305 224.133 70.9648V58.9766C224.109 58.7188 224.047 58.4922 223.945 58.2969C223.852 58.1016 223.699 57.9297 223.488 57.7812C223.332 57.6797 223.125 57.5977 222.867 57.5352C222.609 57.4648 222.355 57.418 222.105 57.3945V56.5391L227.812 56.2344L227.988 56.3867V57.6875L228.082 57.7109C228.598 57.1875 229.168 56.7812 229.793 56.4922C230.426 56.2031 231.051 56.0586 231.668 56.0586C233.285 56.0586 234.562 56.6328 235.5 57.7812C236.438 58.9219 236.906 60.4258 236.906 62.293ZM232.699 62.3398C232.699 61.7539 232.656 61.1953 232.57 60.6641C232.484 60.125 232.332 59.6445 232.113 59.2227C231.902 58.8008 231.621 58.4648 231.27 58.2148C230.926 57.9648 230.504 57.8398 230.004 57.8398C229.496 57.8398 229.09 57.9297 228.785 58.1094C228.48 58.2812 228.215 58.5078 227.988 58.7891V65.4336C228.035 65.5898 228.125 65.793 228.258 66.043C228.391 66.2852 228.523 66.4805 228.656 66.6289C228.852 66.8398 229.074 66.9961 229.324 67.0977C229.574 67.1992 229.848 67.25 230.145 67.25C230.918 67.25 231.535 66.8359 231.996 66.0078C232.465 65.1719 232.699 63.9492 232.699 62.3398ZM253.02 68H247.582C247.441 67.3281 247.312 66.7578 247.195 66.2891C247.086 65.8203 246.938 65.3047 246.75 64.7422C246.516 64.0391 246.211 63.5156 245.836 63.1719C245.469 62.8203 244.883 62.6367 244.078 62.6211V65.7617C244.078 66.0352 244.117 66.2617 244.195 66.4414C244.273 66.6211 244.402 66.7617 244.582 66.8633C244.707 66.9336 244.859 66.9922 245.039 67.0391C245.227 67.0859 245.414 67.1211 245.602 67.1445V68H238.477V67.1445C238.672 67.1289 238.867 67.1094 239.062 67.0859C239.266 67.0547 239.438 67.0156 239.578 66.9688C239.828 66.8828 240 66.75 240.094 66.5703C240.188 66.3906 240.234 66.1562 240.234 65.8672V58.5078C240.234 58.2344 240.184 58.0039 240.082 57.8164C239.988 57.6211 239.82 57.4844 239.578 57.4062C239.375 57.3438 239.188 57.3047 239.016 57.2891C238.844 57.2656 238.664 57.2461 238.477 57.2305V56.375H245.602V57.2305C245.414 57.2539 245.238 57.2852 245.074 57.3242C244.918 57.3555 244.754 57.418 244.582 57.5117C244.395 57.6133 244.262 57.7578 244.184 57.9453C244.113 58.1328 244.078 58.3555 244.078 58.6133V61.6836H244.617C245 61.6836 245.312 61.6406 245.555 61.5547C245.797 61.4609 245.988 61.3086 246.129 61.0977C246.355 60.7461 246.527 60.3984 246.645 60.0547C246.762 59.7109 246.867 59.375 246.961 59.0469C247.055 58.7031 247.176 58.3633 247.324 58.0273C247.473 57.6914 247.684 57.3594 247.957 57.0312C248.23 56.7031 248.551 56.4609 248.918 56.3047C249.285 56.1406 249.715 56.0586 250.207 56.0586C250.621 56.0586 250.969 56.1211 251.25 56.2461C251.539 56.3633 251.766 56.5117 251.93 56.6914C252.109 56.8789 252.234 57.0859 252.305 57.3125C252.383 57.5312 252.422 57.7578 252.422 57.9922C252.422 58.6172 252.25 59.0898 251.906 59.4102C251.57 59.7305 251.168 59.8906 250.699 59.8906C250.301 59.8906 249.914 59.7656 249.539 59.5156C249.172 59.2656 248.855 58.9844 248.59 58.6719C248.41 58.7812 248.266 58.957 248.156 59.1992C248.055 59.4336 247.953 59.6875 247.852 59.9609C247.742 60.25 247.629 60.5312 247.512 60.8047C247.402 61.0703 247.238 61.3086 247.02 61.5195C247.824 61.668 248.504 61.9961 249.059 62.5039C249.621 63.0039 250.047 63.5977 250.336 64.2852C250.469 64.5977 250.605 64.9219 250.746 65.2578C250.895 65.5938 251.02 65.8789 251.121 66.1133C251.27 66.4414 251.445 66.668 251.648 66.793C251.852 66.9102 252.012 66.9766 252.129 66.9922C252.238 67.0156 252.391 67.0469 252.586 67.0859C252.781 67.1172 252.926 67.1367 253.02 67.1445V68ZM267.199 67.7539C266.855 67.9023 266.449 68.0391 265.98 68.1641C265.512 68.2891 265.016 68.3516 264.492 68.3516C263.531 68.3516 262.824 68.2109 262.371 67.9297C261.918 67.6406 261.609 67.2305 261.445 66.6992H261.375C261.109 66.9648 260.852 67.1914 260.602 67.3789C260.359 67.5664 260.098 67.7266 259.816 67.8594C259.449 68.0312 259.094 68.1562 258.75 68.2344C258.414 68.3203 257.941 68.3633 257.332 68.3633C256.426 68.3633 255.652 68.0977 255.012 67.5664C254.371 67.0273 254.051 66.3164 254.051 65.4336C254.051 64.9258 254.121 64.4961 254.262 64.1445C254.402 63.7852 254.602 63.4688 254.859 63.1953C255.094 62.9453 255.363 62.7383 255.668 62.5742C255.98 62.4102 256.32 62.2578 256.688 62.1172C257.391 61.8594 258.234 61.5938 259.219 61.3203C260.203 61.0391 260.922 60.7891 261.375 60.5703V59.4453C261.375 59.25 261.359 58.9922 261.328 58.6719C261.297 58.3516 261.23 58.082 261.129 57.8633C261.02 57.6133 260.848 57.4023 260.613 57.2305C260.379 57.0586 260.07 56.9727 259.688 56.9727C259.344 56.9727 259.055 57.0234 258.82 57.125C258.594 57.2188 258.41 57.3164 258.27 57.418C258.293 57.5742 258.359 57.8125 258.469 58.1328C258.578 58.4531 258.633 58.7617 258.633 59.0586C258.633 59.1914 258.598 59.3594 258.527 59.5625C258.457 59.7578 258.355 59.9141 258.223 60.0312C258.043 60.1875 257.84 60.3086 257.613 60.3945C257.395 60.4805 257.055 60.5234 256.594 60.5234C255.938 60.5234 255.441 60.3672 255.105 60.0547C254.77 59.7344 254.602 59.3203 254.602 58.8125C254.602 58.375 254.773 57.9844 255.117 57.6406C255.469 57.2891 255.895 57 256.395 56.7734C256.887 56.5391 257.453 56.3594 258.094 56.2344C258.734 56.1016 259.328 56.0352 259.875 56.0352C260.633 56.0352 261.328 56.082 261.961 56.1758C262.594 56.2617 263.164 56.4453 263.672 56.7266C264.156 57 264.539 57.3984 264.82 57.9219C265.109 58.4375 265.254 59.1133 265.254 59.9492C265.254 60.832 265.234 61.8789 265.195 63.0898C265.164 64.3008 265.148 65.0977 265.148 65.4805C265.148 65.832 265.199 66.1094 265.301 66.3125C265.41 66.5156 265.574 66.668 265.793 66.7695C265.926 66.832 266.133 66.8711 266.414 66.8867C266.703 66.8945 266.965 66.8984 267.199 66.8984V67.7539ZM261.375 61.6484C260.938 61.7969 260.504 61.9688 260.074 62.1641C259.645 62.3516 259.293 62.5508 259.02 62.7617C258.73 62.9805 258.504 63.2617 258.34 63.6055C258.176 63.9414 258.094 64.3398 258.094 64.8008C258.094 65.4102 258.23 65.8516 258.504 66.125C258.785 66.3984 259.129 66.5352 259.535 66.5352C259.965 66.5352 260.316 66.4492 260.59 66.2773C260.871 66.0977 261.117 65.8789 261.328 65.6211L261.375 61.6484ZM285.961 68H278.648V67.1445C278.844 67.1289 279.039 67.1094 279.234 67.0859C279.438 67.0547 279.609 67.0156 279.75 66.9688C280 66.8828 280.172 66.75 280.266 66.5703C280.359 66.3828 280.406 66.1445 280.406 65.8555V58.0508H280.066L276.504 67.8125H274.898L271.477 58.0391H271.113V65.4805C271.113 65.8711 271.164 66.1797 271.266 66.4062C271.375 66.6328 271.539 66.793 271.758 66.8867C271.922 66.9648 272.102 67.0234 272.297 67.0625C272.492 67.1016 272.691 67.1289 272.895 67.1445V68H268.207V67.1445C268.387 67.1289 268.57 67.1133 268.758 67.0977C268.953 67.0742 269.121 67.0391 269.262 66.9922C269.496 66.9141 269.66 66.7617 269.754 66.5352C269.855 66.3008 269.906 65.9844 269.906 65.5859V58.6602C269.906 58.3555 269.852 58.1094 269.742 57.9219C269.633 57.7266 269.469 57.582 269.25 57.4883C269.039 57.3945 268.84 57.3359 268.652 57.3125C268.465 57.2812 268.289 57.2539 268.125 57.2305V56.375H274.805L277.125 63.2188L279.047 57.8633C279.148 57.5742 279.23 57.2773 279.293 56.9727C279.363 56.6602 279.402 56.4609 279.41 56.375H285.961V57.2305C285.727 57.2461 285.531 57.2656 285.375 57.2891C285.219 57.3125 285.047 57.3516 284.859 57.4062C284.633 57.4766 284.465 57.6055 284.355 57.793C284.254 57.9727 284.203 58.2109 284.203 58.5078V65.8672C284.203 66.1484 284.25 66.3867 284.344 66.582C284.445 66.7695 284.617 66.8984 284.859 66.9688C285.047 67.0234 285.211 67.0625 285.352 67.0859C285.5 67.1094 285.703 67.1289 285.961 67.1445V68ZM300.762 67.7539C300.418 67.9023 300.012 68.0391 299.543 68.1641C299.074 68.2891 298.578 68.3516 298.055 68.3516C297.094 68.3516 296.387 68.2109 295.934 67.9297C295.48 67.6406 295.172 67.2305 295.008 66.6992H294.938C294.672 66.9648 294.414 67.1914 294.164 67.3789C293.922 67.5664 293.66 67.7266 293.379 67.8594C293.012 68.0312 292.656 68.1562 292.312 68.2344C291.977 68.3203 291.504 68.3633 290.895 68.3633C289.988 68.3633 289.215 68.0977 288.574 67.5664C287.934 67.0273 287.613 66.3164 287.613 65.4336C287.613 64.9258 287.684 64.4961 287.824 64.1445C287.965 63.7852 288.164 63.4688 288.422 63.1953C288.656 62.9453 288.926 62.7383 289.23 62.5742C289.543 62.4102 289.883 62.2578 290.25 62.1172C290.953 61.8594 291.797 61.5938 292.781 61.3203C293.766 61.0391 294.484 60.7891 294.938 60.5703V59.4453C294.938 59.25 294.922 58.9922 294.891 58.6719C294.859 58.3516 294.793 58.082 294.691 57.8633C294.582 57.6133 294.41 57.4023 294.176 57.2305C293.941 57.0586 293.633 56.9727 293.25 56.9727C292.906 56.9727 292.617 57.0234 292.383 57.125C292.156 57.2188 291.973 57.3164 291.832 57.418C291.855 57.5742 291.922 57.8125 292.031 58.1328C292.141 58.4531 292.195 58.7617 292.195 59.0586C292.195 59.1914 292.16 59.3594 292.09 59.5625C292.02 59.7578 291.918 59.9141 291.785 60.0312C291.605 60.1875 291.402 60.3086 291.176 60.3945C290.957 60.4805 290.617 60.5234 290.156 60.5234C289.5 60.5234 289.004 60.3672 288.668 60.0547C288.332 59.7344 288.164 59.3203 288.164 58.8125C288.164 58.375 288.336 57.9844 288.68 57.6406C289.031 57.2891 289.457 57 289.957 56.7734C290.449 56.5391 291.016 56.3594 291.656 56.2344C292.297 56.1016 292.891 56.0352 293.438 56.0352C294.195 56.0352 294.891 56.082 295.523 56.1758C296.156 56.2617 296.727 56.4453 297.234 56.7266C297.719 57 298.102 57.3984 298.383 57.9219C298.672 58.4375 298.816 59.1133 298.816 59.9492C298.816 60.832 298.797 61.8789 298.758 63.0898C298.727 64.3008 298.711 65.0977 298.711 65.4805C298.711 65.832 298.762 66.1094 298.863 66.3125C298.973 66.5156 299.137 66.668 299.355 66.7695C299.488 66.832 299.695 66.8711 299.977 66.8867C300.266 66.8945 300.527 66.8984 300.762 66.8984V67.7539ZM294.938 61.6484C294.5 61.7969 294.066 61.9688 293.637 62.1641C293.207 62.3516 292.855 62.5508 292.582 62.7617C292.293 62.9805 292.066 63.2617 291.902 63.6055C291.738 63.9414 291.656 64.3398 291.656 64.8008C291.656 65.4102 291.793 65.8516 292.066 66.125C292.348 66.3984 292.691 66.5352 293.098 66.5352C293.527 66.5352 293.879 66.4492 294.152 66.2773C294.434 66.0977 294.68 65.8789 294.891 65.6211L294.938 61.6484ZM316.02 68H308.637V67.1445C308.832 67.1289 309.031 67.1094 309.234 67.0859C309.438 67.0547 309.609 67.0156 309.75 66.9688C310 66.8828 310.172 66.75 310.266 66.5703C310.367 66.3906 310.418 66.1562 310.418 65.8672V57.5H307.793C307.754 59.4531 307.582 61.1211 307.277 62.5039C306.973 63.8867 306.59 65.0039 306.129 65.8555C305.66 66.7148 305.152 67.3477 304.605 67.7539C304.059 68.1602 303.508 68.3633 302.953 68.3633C302.531 68.3633 302.176 68.293 301.887 68.1523C301.605 68.0195 301.379 67.8477 301.207 67.6367C301.027 67.4258 300.902 67.1914 300.832 66.9336C300.762 66.6758 300.727 66.4453 300.727 66.2422C300.727 65.6641 300.891 65.2031 301.219 64.8594C301.555 64.5078 301.996 64.332 302.543 64.332C303.004 64.332 303.406 64.457 303.75 64.707C304.094 64.9492 304.422 65.2461 304.734 65.5977C305.211 64.8789 305.609 63.9141 305.93 62.7031C306.258 61.4844 306.422 60.2188 306.422 58.9062C306.422 58.5547 306.363 58.2812 306.246 58.0859C306.129 57.8906 305.973 57.7344 305.777 57.6172C305.559 57.4922 305.309 57.4023 305.027 57.3477C304.746 57.2852 304.5 57.2461 304.289 57.2305V56.375H316.02V57.2305C315.785 57.2461 315.59 57.2656 315.434 57.2891C315.277 57.3125 315.105 57.3516 314.918 57.4062C314.691 57.4766 314.523 57.6055 314.414 57.793C314.312 57.9727 314.262 58.2109 314.262 58.5078V65.8672C314.262 66.1484 314.309 66.3867 314.402 66.582C314.504 66.7695 314.676 66.8984 314.918 66.9688C315.105 67.0234 315.27 67.0625 315.41 67.0859C315.559 67.1094 315.762 67.1289 316.02 67.1445V68ZM330.832 67.7539C330.488 67.9023 330.082 68.0391 329.613 68.1641C329.145 68.2891 328.648 68.3516 328.125 68.3516C327.164 68.3516 326.457 68.2109 326.004 67.9297C325.551 67.6406 325.242 67.2305 325.078 66.6992H325.008C324.742 66.9648 324.484 67.1914 324.234 67.3789C323.992 67.5664 323.73 67.7266 323.449 67.8594C323.082 68.0312 322.727 68.1562 322.383 68.2344C322.047 68.3203 321.574 68.3633 320.965 68.3633C320.059 68.3633 319.285 68.0977 318.645 67.5664C318.004 67.0273 317.684 66.3164 317.684 65.4336C317.684 64.9258 317.754 64.4961 317.895 64.1445C318.035 63.7852 318.234 63.4688 318.492 63.1953C318.727 62.9453 318.996 62.7383 319.301 62.5742C319.613 62.4102 319.953 62.2578 320.32 62.1172C321.023 61.8594 321.867 61.5938 322.852 61.3203C323.836 61.0391 324.555 60.7891 325.008 60.5703V59.4453C325.008 59.25 324.992 58.9922 324.961 58.6719C324.93 58.3516 324.863 58.082 324.762 57.8633C324.652 57.6133 324.48 57.4023 324.246 57.2305C324.012 57.0586 323.703 56.9727 323.32 56.9727C322.977 56.9727 322.688 57.0234 322.453 57.125C322.227 57.2188 322.043 57.3164 321.902 57.418C321.926 57.5742 321.992 57.8125 322.102 58.1328C322.211 58.4531 322.266 58.7617 322.266 59.0586C322.266 59.1914 322.23 59.3594 322.16 59.5625C322.09 59.7578 321.988 59.9141 321.855 60.0312C321.676 60.1875 321.473 60.3086 321.246 60.3945C321.027 60.4805 320.688 60.5234 320.227 60.5234C319.57 60.5234 319.074 60.3672 318.738 60.0547C318.402 59.7344 318.234 59.3203 318.234 58.8125C318.234 58.375 318.406 57.9844 318.75 57.6406C319.102 57.2891 319.527 57 320.027 56.7734C320.52 56.5391 321.086 56.3594 321.727 56.2344C322.367 56.1016 322.961 56.0352 323.508 56.0352C324.266 56.0352 324.961 56.082 325.594 56.1758C326.227 56.2617 326.797 56.4453 327.305 56.7266C327.789 57 328.172 57.3984 328.453 57.9219C328.742 58.4375 328.887 59.1133 328.887 59.9492C328.887 60.832 328.867 61.8789 328.828 63.0898C328.797 64.3008 328.781 65.0977 328.781 65.4805C328.781 65.832 328.832 66.1094 328.934 66.3125C329.043 66.5156 329.207 66.668 329.426 66.7695C329.559 66.832 329.766 66.8711 330.047 66.8867C330.336 66.8945 330.598 66.8984 330.832 66.8984V67.7539ZM325.008 61.6484C324.57 61.7969 324.137 61.9688 323.707 62.1641C323.277 62.3516 322.926 62.5508 322.652 62.7617C322.363 62.9805 322.137 63.2617 321.973 63.6055C321.809 63.9414 321.727 64.3398 321.727 64.8008C321.727 65.4102 321.863 65.8516 322.137 66.125C322.418 66.3984 322.762 66.5352 323.168 66.5352C323.598 66.5352 323.949 66.4492 324.223 66.2773C324.504 66.0977 324.75 65.8789 324.961 65.6211L325.008 61.6484ZM351.141 68H338.438V65.8789C338.992 65.3164 339.598 64.8047 340.254 64.3438C340.918 63.875 341.59 63.4609 342.27 63.1016C342.996 62.7188 343.605 62.3789 344.098 62.082C344.59 61.7773 344.977 61.4609 345.258 61.1328C345.539 60.8281 345.738 60.4961 345.855 60.1367C345.98 59.7773 346.043 59.375 346.043 58.9297C346.043 57.9375 345.809 57.2148 345.34 56.7617C344.871 56.3086 344.25 56.082 343.477 56.082C343.234 56.082 343.004 56.1016 342.785 56.1406C342.574 56.1719 342.352 56.2344 342.117 56.3281C342.234 56.6797 342.348 57.043 342.457 57.418C342.566 57.793 342.621 58.2109 342.621 58.6719C342.621 59.2266 342.422 59.668 342.023 59.9961C341.625 60.3242 341.117 60.4883 340.5 60.4883C339.914 60.4883 339.445 60.2969 339.094 59.9141C338.75 59.5312 338.578 59.0664 338.578 58.5195C338.578 57.5664 339.133 56.7422 340.242 56.0469C341.352 55.3516 342.703 55.0039 344.297 55.0039C346.141 55.0039 347.629 55.3203 348.762 55.9531C349.902 56.5859 350.473 57.6055 350.473 59.0117C350.473 59.7383 350.32 60.3242 350.016 60.7695C349.719 61.2148 349.277 61.6055 348.691 61.9414C348.168 62.2461 347.586 62.4961 346.945 62.6914C346.312 62.8867 345.633 63.0742 344.906 63.2539C344.133 63.4492 343.457 63.6562 342.879 63.875C342.309 64.0938 341.801 64.3555 341.355 64.6602V64.7891H351.141V68ZM366.539 62.0469C366.539 64.8906 365.578 67.2148 363.656 69.0195C361.734 70.832 359.109 71.957 355.781 72.3945L355.512 71.2344L356.754 71.0234C357.715 70.75 358.512 70.3984 359.145 69.9688C359.777 69.5391 360.297 69.0391 360.703 68.4688C361.125 67.8828 361.445 67.2617 361.664 66.6055C361.883 65.9492 362.047 65.2734 362.156 64.5781C361.469 65.1797 360.801 65.5781 360.152 65.7734C359.512 65.9609 358.789 66.0547 357.984 66.0547C357.312 66.0547 356.684 65.9219 356.098 65.6562C355.512 65.3906 355.004 65.0273 354.574 64.5664C354.137 64.0977 353.793 63.5352 353.543 62.8789C353.301 62.2148 353.18 61.4961 353.18 60.7227C353.18 59.0742 353.812 57.7109 355.078 56.6328C356.344 55.5469 357.926 55.0039 359.824 55.0039C361.879 55.0039 363.512 55.6406 364.723 56.9141C365.934 58.1875 366.539 59.8984 366.539 62.0469ZM362.262 62.6914C362.262 62.582 362.266 62.4492 362.273 62.293C362.281 62.1367 362.285 61.9844 362.285 61.8359C362.285 59.9609 362.059 58.5273 361.605 57.5352C361.16 56.5352 360.578 56.0352 359.859 56.0352C359.164 56.0352 358.598 56.4141 358.16 57.1719C357.73 57.9297 357.516 59.0234 357.516 60.4531C357.516 61.7031 357.734 62.6992 358.172 63.4414C358.617 64.1836 359.199 64.5547 359.918 64.5547C360.371 64.5547 360.789 64.4648 361.172 64.2852C361.555 64.1055 361.91 63.7695 362.238 63.2773C362.238 63.2383 362.242 63.1719 362.25 63.0781C362.258 62.9766 362.262 62.8477 362.262 62.6914Z" fill="white"/>
<path d="M1.12 88.2H5.95V89.32H2.31V98H1.12V88.2ZM7.06289 101.08H5.94289V91.56H7.06289V101.08ZM12.4529 94.78C12.4529 95.4707 12.3082 96.068 12.0189 96.572C11.7296 97.076 11.3422 97.4633 10.8569 97.734C10.3809 98.0047 9.84889 98.14 9.26089 98.14C8.72889 98.14 8.25756 98.0047 7.84689 97.734C7.44556 97.4633 7.12822 97.076 6.89489 96.572C6.67089 96.068 6.55889 95.4707 6.55889 94.78C6.55889 94.08 6.67089 93.4827 6.89489 92.988C7.12822 92.484 7.44556 92.0967 7.84689 91.826C8.25756 91.5553 8.72889 91.42 9.26089 91.42C9.84889 91.42 10.3809 91.5553 10.8569 91.826C11.3422 92.0967 11.7296 92.484 12.0189 92.988C12.3082 93.4827 12.4529 94.08 12.4529 94.78ZM11.3189 94.78C11.3189 94.2853 11.2162 93.8653 11.0109 93.52C10.8149 93.1747 10.5489 92.9133 10.2129 92.736C9.88622 92.5587 9.52222 92.47 9.12089 92.47C8.79422 92.47 8.47222 92.5587 8.15489 92.736C7.83756 92.9133 7.57622 93.1747 7.37089 93.52C7.16556 93.8653 7.06289 94.2853 7.06289 94.78C7.06289 95.2747 7.16556 95.6947 7.37089 96.04C7.57622 96.3853 7.83756 96.6467 8.15489 96.824C8.47222 97.0013 8.79422 97.09 9.12089 97.09C9.52222 97.09 9.88622 97.0013 10.2129 96.824C10.5489 96.6467 10.8149 96.3853 11.0109 96.04C11.2162 95.6947 11.3189 95.2747 11.3189 94.78ZM14.5013 96.11C14.5013 96.334 14.5619 96.5253 14.6833 96.684C14.8046 96.8333 14.9679 96.95 15.1733 97.034C15.3786 97.1087 15.6073 97.146 15.8593 97.146C16.2326 97.146 16.5639 97.09 16.8533 96.978C17.1426 96.866 17.3666 96.6887 17.5253 96.446C17.6933 96.2033 17.7773 95.8813 17.7773 95.48L18.0013 96.18C18.0013 96.5907 17.8893 96.9453 17.6653 97.244C17.4506 97.5333 17.1613 97.7573 16.7973 97.916C16.4333 98.0653 16.0273 98.14 15.5793 98.14C15.1779 98.14 14.8093 98.0653 14.4733 97.916C14.1373 97.7667 13.8666 97.5473 13.6613 97.258C13.4653 96.9593 13.3673 96.5907 13.3673 96.152C13.3673 95.6947 13.4793 95.3073 13.7033 94.99C13.9273 94.6727 14.2446 94.43 14.6553 94.262C15.0659 94.0847 15.5513 93.996 16.1113 93.996C16.5219 93.996 16.8719 94.052 17.1613 94.164C17.4599 94.2667 17.6979 94.388 17.8753 94.528C18.0526 94.6587 18.1739 94.766 18.2393 94.85V95.508C17.9219 95.284 17.5999 95.1207 17.2733 95.018C16.9466 94.906 16.5779 94.85 16.1673 94.85C15.7939 94.85 15.4813 94.9013 15.2293 95.004C14.9866 95.1067 14.8046 95.2513 14.6833 95.438C14.5619 95.6247 14.5013 95.8487 14.5013 96.11ZM14.5013 93.072L13.9553 92.218C14.1979 92.0407 14.5246 91.8633 14.9353 91.686C15.3459 91.5087 15.8406 91.42 16.4193 91.42C16.9139 91.42 17.3433 91.4993 17.7073 91.658C18.0806 91.8073 18.3699 92.0267 18.5753 92.316C18.7899 92.6053 18.8973 92.96 18.8973 93.38V98H17.7773V93.38C17.7773 93.0533 17.6373 92.8107 17.3573 92.652C17.0866 92.484 16.7739 92.4 16.4193 92.4C16.1113 92.4 15.8313 92.442 15.5793 92.526C15.3273 92.6007 15.1079 92.694 14.9213 92.806C14.7439 92.9087 14.6039 92.9973 14.5013 93.072ZM23.2842 90.16H24.4042V99.4H23.2842V90.16ZM20.2322 94.78C20.2322 94.1267 20.3815 93.548 20.6802 93.044C20.9789 92.54 21.3989 92.1433 21.9402 91.854C22.4909 91.5647 23.1255 91.42 23.8442 91.42C24.5722 91.42 25.2069 91.5647 25.7482 91.854C26.2895 92.1433 26.7095 92.54 27.0082 93.044C27.3069 93.548 27.4562 94.1267 27.4562 94.78C27.4562 95.424 27.3069 96.0027 27.0082 96.516C26.7095 97.02 26.2895 97.4167 25.7482 97.706C25.2069 97.9953 24.5722 98.14 23.8442 98.14C23.1255 98.14 22.4909 97.9953 21.9402 97.706C21.3989 97.4167 20.9789 97.02 20.6802 96.516C20.3815 96.0027 20.2322 95.424 20.2322 94.78ZM21.3662 94.78C21.3662 95.228 21.4642 95.6247 21.6602 95.97C21.8655 96.3153 22.1502 96.5907 22.5142 96.796C22.8875 96.992 23.3309 97.09 23.8442 97.09C24.3575 97.09 24.7962 96.992 25.1602 96.796C25.5335 96.5907 25.8182 96.3153 26.0142 95.97C26.2195 95.6247 26.3222 95.228 26.3222 94.78C26.3222 94.332 26.2195 93.9353 26.0142 93.59C25.8182 93.2353 25.5335 92.96 25.1602 92.764C24.7962 92.568 24.3575 92.47 23.8442 92.47C23.3309 92.47 22.8875 92.568 22.5142 92.764C22.1502 92.96 21.8655 93.2353 21.6602 93.59C21.4642 93.9353 21.3662 94.332 21.3662 94.78ZM34.3853 92.68L29.0653 98.49L29.1353 96.88L34.4553 91.07L34.3853 92.68ZM30.1853 91.56V96.95L29.0653 98.49V91.56H30.1853ZM34.4553 91.07V98H33.3353V92.61L34.4553 91.07ZM36.5542 91.56H37.6742V98H36.5542V91.56ZM40.0542 91.56H41.4542L38.6542 94.22L41.7342 98H40.3342L37.2542 94.22L40.0542 91.56ZM48.0375 101.08H46.9175V91.56H48.0375V101.08ZM53.4275 94.78C53.4275 95.4707 53.2828 96.068 52.9935 96.572C52.7042 97.076 52.3168 97.4633 51.8315 97.734C51.3555 98.0047 50.8235 98.14 50.2355 98.14C49.7035 98.14 49.2322 98.0047 48.8215 97.734C48.4202 97.4633 48.1028 97.076 47.8695 96.572C47.6455 96.068 47.5335 95.4707 47.5335 94.78C47.5335 94.08 47.6455 93.4827 47.8695 92.988C48.1028 92.484 48.4202 92.0967 48.8215 91.826C49.2322 91.5553 49.7035 91.42 50.2355 91.42C50.8235 91.42 51.3555 91.5553 51.8315 91.826C52.3168 92.0967 52.7042 92.484 52.9935 92.988C53.2828 93.4827 53.4275 94.08 53.4275 94.78ZM52.2935 94.78C52.2935 94.2853 52.1908 93.8653 51.9855 93.52C51.7895 93.1747 51.5235 92.9133 51.1875 92.736C50.8608 92.5587 50.4968 92.47 50.0955 92.47C49.7688 92.47 49.4468 92.5587 49.1295 92.736C48.8122 92.9133 48.5508 93.1747 48.3455 93.52C48.1402 93.8653 48.0375 94.2853 48.0375 94.78C48.0375 95.2747 48.1402 95.6947 48.3455 96.04C48.5508 96.3853 48.8122 96.6467 49.1295 96.824C49.4468 97.0013 49.7688 97.09 50.0955 97.09C50.4968 97.09 50.8608 97.0013 51.1875 96.824C51.5235 96.6467 51.7895 96.3853 51.9855 96.04C52.1908 95.6947 52.2935 95.2747 52.2935 94.78ZM55.4759 96.11C55.4759 96.334 55.5365 96.5253 55.6579 96.684C55.7792 96.8333 55.9425 96.95 56.1479 97.034C56.3532 97.1087 56.5819 97.146 56.8339 97.146C57.2072 97.146 57.5385 97.09 57.8279 96.978C58.1172 96.866 58.3412 96.6887 58.4999 96.446C58.6679 96.2033 58.7519 95.8813 58.7519 95.48L58.9759 96.18C58.9759 96.5907 58.8639 96.9453 58.6399 97.244C58.4252 97.5333 58.1359 97.7573 57.7719 97.916C57.4079 98.0653 57.0019 98.14 56.5539 98.14C56.1525 98.14 55.7839 98.0653 55.4479 97.916C55.1119 97.7667 54.8412 97.5473 54.6359 97.258C54.4399 96.9593 54.3419 96.5907 54.3419 96.152C54.3419 95.6947 54.4539 95.3073 54.6779 94.99C54.9019 94.6727 55.2192 94.43 55.6299 94.262C56.0405 94.0847 56.5259 93.996 57.0859 93.996C57.4965 93.996 57.8465 94.052 58.1359 94.164C58.4345 94.2667 58.6725 94.388 58.8499 94.528C59.0272 94.6587 59.1485 94.766 59.2139 94.85V95.508C58.8965 95.284 58.5745 95.1207 58.2479 95.018C57.9212 94.906 57.5525 94.85 57.1419 94.85C56.7685 94.85 56.4559 94.9013 56.2039 95.004C55.9612 95.1067 55.7792 95.2513 55.6579 95.438C55.5365 95.6247 55.4759 95.8487 55.4759 96.11ZM55.4759 93.072L54.9299 92.218C55.1725 92.0407 55.4992 91.8633 55.9099 91.686C56.3205 91.5087 56.8152 91.42 57.3939 91.42C57.8885 91.42 58.3179 91.4993 58.6819 91.658C59.0552 91.8073 59.3445 92.0267 59.5499 92.316C59.7645 92.6053 59.8719 92.96 59.8719 93.38V98H58.7519V93.38C58.7519 93.0533 58.6119 92.8107 58.3319 92.652C58.0612 92.484 57.7485 92.4 57.3939 92.4C57.0859 92.4 56.8059 92.442 56.5539 92.526C56.3019 92.6007 56.0825 92.694 55.8959 92.806C55.7185 92.9087 55.5785 92.9973 55.4759 93.072ZM64.5388 92.47V91.42C65.1735 91.42 65.7381 91.5647 66.2328 91.854C66.7368 92.1433 67.1335 92.54 67.4228 93.044C67.7215 93.548 67.8708 94.1267 67.8708 94.78C67.8708 95.424 67.7215 96.0027 67.4228 96.516C67.1335 97.02 66.7368 97.4167 66.2328 97.706C65.7381 97.9953 65.1735 98.14 64.5388 98.14C63.9135 98.14 63.3488 97.986 62.8448 97.678C62.3408 97.3607 61.9395 96.8893 61.6408 96.264C61.3515 95.6387 61.2068 94.864 61.2068 93.94L62.3268 94.78C62.3268 95.228 62.4248 95.6247 62.6208 95.97C62.8168 96.3153 63.0781 96.5907 63.4048 96.796C63.7408 96.992 64.1188 97.09 64.5388 97.09C64.9588 97.09 65.3321 96.992 65.6588 96.796C65.9948 96.5907 66.2561 96.3153 66.4428 95.97C66.6388 95.6247 66.7368 95.228 66.7368 94.78C66.7368 94.332 66.6388 93.9353 66.4428 93.59C66.2561 93.2353 65.9948 92.96 65.6588 92.764C65.3321 92.568 64.9588 92.47 64.5388 92.47ZM61.8228 94.78C61.8228 94.2573 61.8881 93.7907 62.0188 93.38C62.1495 92.96 62.3361 92.6053 62.5788 92.316C62.8215 92.0267 63.1061 91.8073 63.4328 91.658C63.7688 91.4993 64.1375 91.42 64.5388 91.42V92.47C64.2961 92.47 64.0441 92.5213 63.7828 92.624C63.5215 92.7267 63.2788 92.876 63.0548 93.072C62.8401 93.268 62.6628 93.5107 62.5228 93.8C62.3921 94.08 62.3268 94.4067 62.3268 94.78H61.8228ZM61.2068 93.94C61.2068 93.0627 61.2908 92.288 61.4588 91.616C61.6268 90.944 61.9208 90.3747 62.3408 89.908C62.7701 89.432 63.3581 89.068 64.1048 88.816C64.7395 88.6013 65.2108 88.3447 65.5188 88.046C65.8361 87.738 66.0275 87.416 66.0928 87.08H67.1988C67.1521 87.4907 67.0028 87.8687 66.7508 88.214C66.4988 88.55 66.1675 88.844 65.7568 89.096C65.3555 89.348 64.8981 89.558 64.3848 89.726C63.8061 89.9127 63.3535 90.1927 63.0268 90.566C62.7095 90.9393 62.4901 91.364 62.3688 91.84C62.2475 92.3067 62.1868 92.7733 62.1868 93.24V94.682L61.2068 93.94ZM68.8494 94.78C68.8494 94.1267 68.994 93.548 69.2834 93.044C69.582 92.54 69.9834 92.1433 70.4874 91.854C70.9914 91.5647 71.556 91.42 72.1814 91.42C72.816 91.42 73.3807 91.5647 73.8754 91.854C74.3794 92.1433 74.776 92.54 75.0654 93.044C75.364 93.548 75.5134 94.1267 75.5134 94.78C75.5134 95.424 75.364 96.0027 75.0654 96.516C74.776 97.02 74.3794 97.4167 73.8754 97.706C73.3807 97.9953 72.816 98.14 72.1814 98.14C71.556 98.14 70.9914 97.9953 70.4874 97.706C69.9834 97.4167 69.582 97.02 69.2834 96.516C68.994 96.0027 68.8494 95.424 68.8494 94.78ZM69.9834 94.78C69.9834 95.228 70.0767 95.6247 70.2634 95.97C70.4594 96.3153 70.7207 96.5907 71.0474 96.796C71.3834 96.992 71.7614 97.09 72.1814 97.09C72.6014 97.09 72.9747 96.992 73.3014 96.796C73.6374 96.5907 73.8987 96.3153 74.0854 95.97C74.2814 95.6247 74.3794 95.228 74.3794 94.78C74.3794 94.332 74.2814 93.9353 74.0854 93.59C73.8987 93.2353 73.6374 92.96 73.3014 92.764C72.9747 92.568 72.6014 92.47 72.1814 92.47C71.7614 92.47 71.3834 92.568 71.0474 92.764C70.7207 92.96 70.4594 93.2353 70.2634 93.59C70.0767 93.9353 69.9834 94.332 69.9834 94.78ZM76.072 91.56H79.852V92.61H76.072V91.56ZM77.402 91.84H78.522V98H77.402V91.84ZM86.7858 91.56H87.9058V98H86.7858V91.56ZM80.9758 91.56H82.0958V98H80.9758V91.56ZM81.6338 94.976V93.996H83.6358C84.2984 93.996 84.8538 94.1593 85.3018 94.486C85.7591 94.8033 85.9878 95.3073 85.9878 95.998C85.9878 96.4553 85.8851 96.8333 85.6798 97.132C85.4744 97.4307 85.1944 97.65 84.8398 97.79C84.4851 97.93 84.0838 98 83.6358 98H81.6338V97.02H83.6358C83.9064 97.02 84.1304 96.9827 84.3078 96.908C84.4944 96.824 84.6344 96.7073 84.7278 96.558C84.8211 96.3993 84.8678 96.2127 84.8678 95.998C84.8678 95.6713 84.7651 95.4193 84.5598 95.242C84.3544 95.0647 84.0464 94.976 83.6358 94.976H81.6338ZM90.2792 97.44C90.2792 97.2253 90.3539 97.0433 90.5032 96.894C90.6619 96.7447 90.8439 96.67 91.0492 96.67C91.2639 96.67 91.4459 96.7447 91.5952 96.894C91.7446 97.0433 91.8192 97.2253 91.8192 97.44C91.8192 97.6453 91.7446 97.8273 91.5952 97.986C91.4459 98.1353 91.2639 98.21 91.0492 98.21C90.8439 98.21 90.6619 98.1353 90.5032 97.986C90.3539 97.8273 90.2792 97.6453 90.2792 97.44ZM90.2792 92.12C90.2792 91.9053 90.3539 91.7233 90.5032 91.574C90.6619 91.4247 90.8439 91.35 91.0492 91.35C91.2639 91.35 91.4459 91.4247 91.5952 91.574C91.7446 91.7233 91.8192 91.9053 91.8192 92.12C91.8192 92.3253 91.7446 92.5073 91.5952 92.666C91.4459 92.8153 91.2639 92.89 91.0492 92.89C90.8439 92.89 90.6619 92.8153 90.5032 92.666C90.3539 92.5073 90.2792 92.3253 90.2792 92.12ZM98.8978 94.78C98.8978 95.228 98.9911 95.6247 99.1778 95.97C99.3738 96.3153 99.6351 96.5907 99.9618 96.796C100.298 96.992 100.676 97.09 101.096 97.09C101.441 97.09 101.763 97.0387 102.062 96.936C102.37 96.824 102.636 96.6793 102.86 96.502C103.084 96.3153 103.242 96.1193 103.336 95.914V97.314C103.112 97.5753 102.79 97.7807 102.37 97.93C101.959 98.07 101.534 98.14 101.096 98.14C100.47 98.14 99.9058 97.9953 99.4017 97.706C98.8978 97.4167 98.4964 97.02 98.1978 96.516C97.9084 96.0027 97.7638 95.424 97.7638 94.78C97.7638 94.1267 97.9084 93.548 98.1978 93.044C98.4964 92.54 98.8978 92.1433 99.4017 91.854C99.9058 91.5647 100.47 91.42 101.096 91.42C101.534 91.42 101.959 91.4947 102.37 91.644C102.79 91.784 103.112 91.9847 103.336 92.246V93.646C103.242 93.4313 103.084 93.2353 102.86 93.058C102.636 92.8807 102.37 92.7407 102.062 92.638C101.763 92.526 101.441 92.47 101.096 92.47C100.676 92.47 100.298 92.568 99.9618 92.764C99.6351 92.96 99.3738 93.2353 99.1778 93.59C98.9911 93.9353 98.8978 94.332 98.8978 94.78ZM114.457 91.42C114.457 90.972 114.359 90.58 114.163 90.244C113.976 89.8987 113.715 89.628 113.379 89.432C113.052 89.236 112.679 89.138 112.259 89.138C111.839 89.138 111.461 89.236 111.125 89.432C110.798 89.628 110.537 89.8987 110.341 90.244C110.154 90.58 110.061 90.972 110.061 91.42C110.061 91.868 110.154 92.2647 110.341 92.61C110.537 92.9553 110.798 93.2307 111.125 93.436C111.461 93.632 111.839 93.73 112.259 93.73C112.679 93.73 113.052 93.632 113.379 93.436C113.715 93.2307 113.976 92.9553 114.163 92.61C114.359 92.2647 114.457 91.868 114.457 91.42ZM111.671 98H110.173L113.239 93.954L113.323 94.024C113.136 94.2573 112.917 94.4113 112.665 94.486C112.422 94.5607 112.142 94.598 111.825 94.598C111.423 94.598 111.045 94.5187 110.691 94.36C110.345 94.2013 110.037 93.9773 109.767 93.688C109.505 93.3987 109.3 93.0627 109.151 92.68C109.001 92.288 108.927 91.868 108.927 91.42C108.927 90.748 109.071 90.16 109.361 89.656C109.659 89.152 110.061 88.76 110.565 88.48C111.069 88.2 111.633 88.06 112.259 88.06C112.893 88.06 113.458 88.2 113.953 88.48C114.457 88.76 114.853 89.152 115.143 89.656C115.441 90.16 115.591 90.748 115.591 91.42C115.591 91.8213 115.535 92.1947 115.423 92.54C115.311 92.8853 115.161 93.1887 114.975 93.45L111.671 98ZM117.623 97.44C117.623 97.2253 117.698 97.0433 117.847 96.894C118.006 96.7447 118.188 96.67 118.393 96.67C118.608 96.67 118.79 96.7447 118.939 96.894C119.088 97.0433 119.163 97.2253 119.163 97.44C119.163 97.6453 119.088 97.8273 118.939 97.986C118.79 98.1353 118.608 98.21 118.393 98.21C118.188 98.21 118.006 98.1353 117.847 97.986C117.698 97.8273 117.623 97.6453 117.623 97.44ZM117.623 92.12C117.623 91.9053 117.698 91.7233 117.847 91.574C118.006 91.4247 118.188 91.35 118.393 91.35C118.608 91.35 118.79 91.4247 118.939 91.574C119.088 91.7233 119.163 91.9053 119.163 92.12C119.163 92.3253 119.088 92.5073 118.939 92.666C118.79 92.8153 118.608 92.89 118.393 92.89C118.188 92.89 118.006 92.8153 117.847 92.666C117.698 92.5073 117.623 92.3253 117.623 92.12ZM122.24 93.1C122.24 93.6693 122.296 94.1967 122.408 94.682C122.52 95.158 122.684 95.5733 122.898 95.928C123.113 96.2733 123.37 96.544 123.668 96.74C123.976 96.9267 124.317 97.02 124.69 97.02C125.073 97.02 125.414 96.9267 125.712 96.74C126.011 96.544 126.268 96.2733 126.482 95.928C126.697 95.5733 126.86 95.158 126.972 94.682C127.084 94.1967 127.14 93.6693 127.14 93.1C127.14 92.5307 127.084 92.008 126.972 91.532C126.86 91.0467 126.697 90.6313 126.482 90.286C126.268 89.9313 126.011 89.6607 125.712 89.474C125.414 89.278 125.073 89.18 124.69 89.18C124.317 89.18 123.976 89.278 123.668 89.474C123.37 89.6607 123.113 89.9313 122.898 90.286C122.684 90.6313 122.52 91.0467 122.408 91.532C122.296 92.008 122.24 92.5307 122.24 93.1ZM121.05 93.1C121.05 92.12 121.204 91.252 121.512 90.496C121.82 89.74 122.245 89.1473 122.786 88.718C123.337 88.2793 123.972 88.06 124.69 88.06C125.409 88.06 126.039 88.2793 126.58 88.718C127.131 89.1473 127.56 89.74 127.868 90.496C128.176 91.252 128.33 92.12 128.33 93.1C128.33 94.08 128.176 94.948 127.868 95.704C127.56 96.46 127.131 97.0573 126.58 97.496C126.039 97.9253 125.409 98.14 124.69 98.14C123.972 98.14 123.337 97.9253 122.786 97.496C122.245 97.0573 121.82 96.46 121.512 95.704C121.204 94.948 121.05 94.08 121.05 93.1ZM130.635 93.1C130.635 93.6693 130.691 94.1967 130.803 94.682C130.915 95.158 131.078 95.5733 131.293 95.928C131.507 96.2733 131.764 96.544 132.063 96.74C132.371 96.9267 132.711 97.02 133.085 97.02C133.467 97.02 133.808 96.9267 134.107 96.74C134.405 96.544 134.662 96.2733 134.877 95.928C135.091 95.5733 135.255 95.158 135.367 94.682C135.479 94.1967 135.535 93.6693 135.535 93.1C135.535 92.5307 135.479 92.008 135.367 91.532C135.255 91.0467 135.091 90.6313 134.877 90.286C134.662 89.9313 134.405 89.6607 134.107 89.474C133.808 89.278 133.467 89.18 133.085 89.18C132.711 89.18 132.371 89.278 132.063 89.474C131.764 89.6607 131.507 89.9313 131.293 90.286C131.078 90.6313 130.915 91.0467 130.803 91.532C130.691 92.008 130.635 92.5307 130.635 93.1ZM129.445 93.1C129.445 92.12 129.599 91.252 129.907 90.496C130.215 89.74 130.639 89.1473 131.181 88.718C131.731 88.2793 132.366 88.06 133.085 88.06C133.803 88.06 134.433 88.2793 134.975 88.718C135.525 89.1473 135.955 89.74 136.263 90.496C136.571 91.252 136.725 92.12 136.725 93.1C136.725 94.08 136.571 94.948 136.263 95.704C135.955 96.46 135.525 97.0573 134.975 97.496C134.433 97.9253 133.803 98.14 133.085 98.14C132.366 98.14 131.731 97.9253 131.181 97.496C130.639 97.0573 130.215 96.46 129.907 95.704C129.599 94.948 129.445 94.08 129.445 93.1ZM146.027 93.492L144.137 97.58H142.877L146.027 91.07L149.177 97.58H147.917L146.027 93.492ZM148.897 98H143.227V99.26H142.037V96.95H150.017V99.26H148.897V98ZM151.14 94.78C151.14 94.1267 151.285 93.548 151.574 93.044C151.873 92.54 152.274 92.1433 152.778 91.854C153.282 91.5647 153.847 91.42 154.472 91.42C155.107 91.42 155.672 91.5647 156.166 91.854C156.67 92.1433 157.067 92.54 157.356 93.044C157.655 93.548 157.804 94.1267 157.804 94.78C157.804 95.424 157.655 96.0027 157.356 96.516C157.067 97.02 156.67 97.4167 156.166 97.706C155.672 97.9953 155.107 98.14 154.472 98.14C153.847 98.14 153.282 97.9953 152.778 97.706C152.274 97.4167 151.873 97.02 151.574 96.516C151.285 96.0027 151.14 95.424 151.14 94.78ZM152.274 94.78C152.274 95.228 152.368 95.6247 152.554 95.97C152.75 96.3153 153.012 96.5907 153.338 96.796C153.674 96.992 154.052 97.09 154.472 97.09C154.892 97.09 155.266 96.992 155.592 96.796C155.928 96.5907 156.19 96.3153 156.376 95.97C156.572 95.6247 156.67 95.228 156.67 94.78C156.67 94.332 156.572 93.9353 156.376 93.59C156.19 93.2353 155.928 92.96 155.592 92.764C155.266 92.568 154.892 92.47 154.472 92.47C154.052 92.47 153.674 92.568 153.338 92.764C153.012 92.96 152.75 93.2353 152.554 93.59C152.368 93.9353 152.274 94.332 152.274 94.78ZM162.77 98L167.404 93.058C167.619 92.8247 167.801 92.596 167.95 92.372C168.109 92.1387 168.226 91.9053 168.3 91.672C168.384 91.4293 168.426 91.1773 168.426 90.916C168.426 90.7013 168.384 90.4913 168.3 90.286C168.216 90.0807 168.09 89.894 167.922 89.726C167.764 89.558 167.568 89.4227 167.334 89.32C167.101 89.2173 166.835 89.166 166.536 89.166C166.116 89.166 165.752 89.264 165.444 89.46C165.146 89.6467 164.917 89.922 164.758 90.286C164.6 90.6407 164.52 91.0653 164.52 91.56H163.33C163.33 90.86 163.456 90.2487 163.708 89.726C163.96 89.194 164.324 88.7833 164.8 88.494C165.286 88.1953 165.864 88.046 166.536 88.046C167.078 88.046 167.544 88.1393 167.936 88.326C168.328 88.5033 168.65 88.7367 168.902 89.026C169.154 89.306 169.341 89.6093 169.462 89.936C169.584 90.2627 169.644 90.5753 169.644 90.874C169.644 91.378 169.523 91.8773 169.28 92.372C169.038 92.8667 168.725 93.31 168.342 93.702L165.22 96.88H169.686V98H162.77ZM172.211 93.1C172.211 93.6693 172.267 94.1967 172.379 94.682C172.491 95.158 172.654 95.5733 172.869 95.928C173.084 96.2733 173.34 96.544 173.639 96.74C173.947 96.9267 174.288 97.02 174.661 97.02C175.044 97.02 175.384 96.9267 175.683 96.74C175.982 96.544 176.238 96.2733 176.453 95.928C176.668 95.5733 176.831 95.158 176.943 94.682C177.055 94.1967 177.111 93.6693 177.111 93.1C177.111 92.5307 177.055 92.008 176.943 91.532C176.831 91.0467 176.668 90.6313 176.453 90.286C176.238 89.9313 175.982 89.6607 175.683 89.474C175.384 89.278 175.044 89.18 174.661 89.18C174.288 89.18 173.947 89.278 173.639 89.474C173.34 89.6607 173.084 89.9313 172.869 90.286C172.654 90.6313 172.491 91.0467 172.379 91.532C172.267 92.008 172.211 92.5307 172.211 93.1ZM171.021 93.1C171.021 92.12 171.175 91.252 171.483 90.496C171.791 89.74 172.216 89.1473 172.757 88.718C173.308 88.2793 173.942 88.06 174.661 88.06C175.38 88.06 176.01 88.2793 176.551 88.718C177.102 89.1473 177.531 89.74 177.839 90.496C178.147 91.252 178.301 92.12 178.301 93.1C178.301 94.08 178.147 94.948 177.839 95.704C177.531 96.46 177.102 97.0573 176.551 97.496C176.01 97.9253 175.38 98.14 174.661 98.14C173.942 98.14 173.308 97.9253 172.757 97.496C172.216 97.0573 171.791 96.46 171.483 95.704C171.175 94.948 171.021 94.08 171.021 93.1ZM180.185 97.44C180.185 97.2253 180.26 97.0433 180.409 96.894C180.568 96.7447 180.75 96.67 180.955 96.67C181.17 96.67 181.352 96.7447 181.501 96.894C181.651 97.0433 181.725 97.2253 181.725 97.44C181.725 97.6453 181.651 97.8273 181.501 97.986C181.352 98.1353 181.17 98.21 180.955 98.21C180.75 98.21 180.568 98.1353 180.409 97.986C180.26 97.8273 180.185 97.6453 180.185 97.44ZM180.185 92.12C180.185 91.9053 180.26 91.7233 180.409 91.574C180.568 91.4247 180.75 91.35 180.955 91.35C181.17 91.35 181.352 91.4247 181.501 91.574C181.651 91.7233 181.725 91.9053 181.725 92.12C181.725 92.3253 181.651 92.5073 181.501 92.666C181.352 92.8153 181.17 92.89 180.955 92.89C180.75 92.89 180.568 92.8153 180.409 92.666C180.26 92.5073 180.185 92.3253 180.185 92.12ZM184.803 93.1C184.803 93.6693 184.859 94.1967 184.971 94.682C185.083 95.158 185.246 95.5733 185.461 95.928C185.675 96.2733 185.932 96.544 186.231 96.74C186.539 96.9267 186.879 97.02 187.253 97.02C187.635 97.02 187.976 96.9267 188.275 96.74C188.573 96.544 188.83 96.2733 189.045 95.928C189.259 95.5733 189.423 95.158 189.535 94.682C189.647 94.1967 189.703 93.6693 189.703 93.1C189.703 92.5307 189.647 92.008 189.535 91.532C189.423 91.0467 189.259 90.6313 189.045 90.286C188.83 89.9313 188.573 89.6607 188.275 89.474C187.976 89.278 187.635 89.18 187.253 89.18C186.879 89.18 186.539 89.278 186.231 89.474C185.932 89.6607 185.675 89.9313 185.461 90.286C185.246 90.6313 185.083 91.0467 184.971 91.532C184.859 92.008 184.803 92.5307 184.803 93.1ZM183.613 93.1C183.613 92.12 183.767 91.252 184.075 90.496C184.383 89.74 184.807 89.1473 185.349 88.718C185.899 88.2793 186.534 88.06 187.253 88.06C187.971 88.06 188.601 88.2793 189.143 88.718C189.693 89.1473 190.123 89.74 190.431 90.496C190.739 91.252 190.893 92.12 190.893 93.1C190.893 94.08 190.739 94.948 190.431 95.704C190.123 96.46 189.693 97.0573 189.143 97.496C188.601 97.9253 187.971 98.14 187.253 98.14C186.534 98.14 185.899 97.9253 185.349 97.496C184.807 97.0573 184.383 96.46 184.075 95.704C183.767 94.948 183.613 94.08 183.613 93.1ZM193.197 93.1C193.197 93.6693 193.253 94.1967 193.365 94.682C193.477 95.158 193.641 95.5733 193.855 95.928C194.07 96.2733 194.327 96.544 194.625 96.74C194.933 96.9267 195.274 97.02 195.647 97.02C196.03 97.02 196.371 96.9267 196.669 96.74C196.968 96.544 197.225 96.2733 197.439 95.928C197.654 95.5733 197.817 95.158 197.929 94.682C198.041 94.1967 198.097 93.6693 198.097 93.1C198.097 92.5307 198.041 92.008 197.929 91.532C197.817 91.0467 197.654 90.6313 197.439 90.286C197.225 89.9313 196.968 89.6607 196.669 89.474C196.371 89.278 196.03 89.18 195.647 89.18C195.274 89.18 194.933 89.278 194.625 89.474C194.327 89.6607 194.07 89.9313 193.855 90.286C193.641 90.6313 193.477 91.0467 193.365 91.532C193.253 92.008 193.197 92.5307 193.197 93.1ZM192.007 93.1C192.007 92.12 192.161 91.252 192.469 90.496C192.777 89.74 193.202 89.1473 193.743 88.718C194.294 88.2793 194.929 88.06 195.647 88.06C196.366 88.06 196.996 88.2793 197.537 88.718C198.088 89.1473 198.517 89.74 198.825 90.496C199.133 91.252 199.287 92.12 199.287 93.1C199.287 94.08 199.133 94.948 198.825 95.704C198.517 96.46 198.088 97.0573 197.537 97.496C196.996 97.9253 196.366 98.14 195.647 98.14C194.929 98.14 194.294 97.9253 193.743 97.496C193.202 97.0573 192.777 96.46 192.469 95.704C192.161 94.948 192.007 94.08 192.007 93.1Z" fill="#979797"/>
<defs>
<linearGradient id="paint0_linear_385_1633" x1="-4.9133e-07" y1="-8.35715" x2="127.719" y2="-0.285744" gradientUnits="userSpaceOnUse">
<stop stop-color="#AF802A"/>
<stop offset="1" stop-color="#DFC464"/>
</linearGradient>
</defs>
</svg>
